STARTFONT 2.1
FONT -FontForge-Public Sans-Bold-R-Normal-Sans--48-720-48-48-P-271-ISO10646-1
SIZE 72 48 48
FONTBOUNDINGBOX 70 65 -8 -12
COMMENT "Generated by fontforge, http://fontforge.sourceforge.net"
COMMENT "Copyright 2015 The Public Sans Project Authors (https://github.com/uswds/public-sans)"
STARTPROPERTIES 40
FOUNDRY "FontForge"
FAMILY_NAME "Public Sans"
WEIGHT_NAME "Bold"
SLANT "R"
SETWIDTH_NAME "Normal"
ADD_STYLE_NAME "Sans"
PIXEL_SIZE 48
POINT_SIZE 720
RESOLUTION_X 48
RESOLUTION_Y 48
SPACING "P"
AVERAGE_WIDTH 271
CHARSET_REGISTRY "ISO10646"
CHARSET_ENCODING "1"
FONTNAME_REGISTRY ""
CHARSET_COLLECTIONS "ISO8859-2 ISO8859-9 ISO8859-4 ISO10646-1"
FONT_NAME "PublicSans-Bold"
FACE_NAME "Public Sans Bold"
COPYRIGHT "Copyright 2015 The Public Sans Project Authors (https://github.com/uswds/public-sans)"
FONT_VERSION "2.001"
FONT_ASCENT 38
FONT_DESCENT 10
UNDERLINE_POSITION -11
UNDERLINE_THICKNESS 4
X_HEIGHT 24
CAP_HEIGHT 34
DEFAULT_CHAR 644
RAW_ASCENT 800
RAW_DESCENT 200
NORM_SPACE 11
RELATIVE_WEIGHT 70
RELATIVE_SETWIDTH 50
SUPERSCRIPT_X 0
SUPERSCRIPT_Y 16
SUPERSCRIPT_SIZE 28
SUBSCRIPT_X 0
SUBSCRIPT_Y 3
SUBSCRIPT_SIZE 28
AVG_LOWERCASE_WIDTH 264
AVG_UPPERCASE_WIDTH 334
ENDPROPERTIES
CHARS 645
STARTCHAR uni0000
ENCODING 0
SWIDTH 26 0
DWIDTH 1 0
BBX 1 1 0 0
BITMAP
00
ENDCHAR
STARTCHAR CR
ENCODING 13
SWIDTH 238 0
DWIDTH 11 0
BBX 1 1 0 0
BITMAP
00
ENDCHAR
STARTCHAR space
ENCODING 32
SWIDTH 225 0
DWIDTH 11 0
BBX 1 1 0 0
BITMAP
00
ENDCHAR
STARTCHAR exclam
ENCODING 33
SWIDTH 282 0
DWIDTH 14 0
BBX 9 35 2 0
BITMAP
FF80
7F80
7F00
7F00
7F00
7F00
7F00
7F00
7F00
7F00
7F00
7F00
7F00
3F00
3F00
3E00
3E00
3E00
3E00
3E00
3E00
3E00
3E00
3E00
0000
0000
0000
0000
7F00
7F00
7F00
7F00
7F00
7F00
7F00
ENDCHAR
STARTCHAR quotedbl
ENCODING 34
SWIDTH 479 0
DWIDTH 23 0
BBX 17 14 3 21
BITMAP
FE3F80
FE3F80
FE3F80
FC1F80
FC1F80
FC1F80
7C1F00
7C1F00
7C1F00
7C1F00
780F00
780F00
780F00
780F00
ENDCHAR
STARTCHAR numbersign
ENCODING 35
SWIDTH 616 0
DWIDTH 30 0
BBX 27 35 1 0
BITMAP
00701E00
00781E00
00781E00
00781E00
00701E00
00701E00
00F01C00
00F03C00
00F03C00
00F03C00
00F03C00
3FFFFFE0
3FFFFFE0
3FFFFFE0
01E07800
01E07800
01E07800
01E07800
01C07800
03C07000
03C0F000
FFFFFF80
FFFFFF80
FFFFFF80
0380F000
0380F000
0780E000
0781E000
0781E000
0781E000
0781E000
0701E000
0701E000
0F01C000
0F03C000
ENDCHAR
STARTCHAR dollar
ENCODING 36
SWIDTH 680 0
DWIDTH 33 0
BBX 28 45 2 -5
BITMAP
000FC000
000FC000
000FC000
000FC000
000FC000
003FF000
01FFFC00
03FFFF00
0FFFFF80
1FFFFFC0
1FFEFFC0
3FE01FE0
3FC00FE0
3F800FF0
7F800FF0
7F800000
7F800000
3FE00000
3FF80000
3FFF8000
1FFFF800
1FFFFE00
07FFFF80
03FFFFC0
00FFFFE0
000FFFE0
00007FF0
00001FF0
00000FF0
000007F0
FF0007F0
7F0007F0
7F800FF0
7FC01FF0
3FF03FE0
3FFFFFE0
1FFFFFC0
0FFFFF80
03FFFF00
00FFF800
000FC000
000FC000
000FC000
000FC000
000FC000
ENDCHAR
STARTCHAR percent
ENCODING 37
SWIDTH 939 0
DWIDTH 45 0
BBX 41 35 2 0
BITMAP
03F00007C000
0FFC00078000
1FFE000F0000
3F3F001E0000
7E1F001E0000
7C0F803C0000
7C0F80780000
FC0FC0780000
F807C0F00000
F807C1E00000
F807C1E00000
F80FC3C00000
7C0F87800000
7C0F87800000
7C0F8F000000
3E1F1E000000
1FFE1E0FE000
0FFC3C1FF800
07F87C3FFC00
0000787EFE00
0000F0F83E00
0001F0F81F00
0001E1F01F00
0003C1F01F00
0007C1F01F00
000781F01F80
000F01F01F80
001F01F01F00
001E01F01F00
003C00F81F00
007C00F83E00
0078007C7E00
00F0007FFC00
01F0003FF800
03E0000FF000
ENDCHAR
STARTCHAR ampersand
ENCODING 38
SWIDTH 783 0
DWIDTH 38 0
BBX 34 35 2 0
BITMAP
001FF00000
007FFC0000
01FFFE0000
03FFFF0000
03FC3F8000
07F01F8000
07F01FC000
07F00FC000
07F01FC000
07F01F8000
07F83F8000
03FC7F0000
03FEFE0000
01FFFC0000
00FFF80000
007FF03F80
01FFC03F80
03FFE07F00
0FFFF07F00
1FFFF87E00
3FE7F8FE00
3FC3FCFC00
7F81FEFC00
7F00FFF800
FF007FF000
FF003FF000
FF003FE000
FF801FE000
FF803FF000
7FE1FFF800
7FFFFFFC00
3FFFFFFE00
1FFFF9FE00
0FFFE0FF00
03FF807FC0
ENDCHAR
STARTCHAR quotesingle
ENCODING 39
SWIDTH 261 0
DWIDTH 13 0
BBX 7 14 3 21
BITMAP
FE
FE
FE
FC
FC
FC
7C
7C
7C
7C
78
78
78
78
ENDCHAR
STARTCHAR parenleft
ENCODING 40
SWIDTH 333 0
DWIDTH 16 0
BBX 12 43 3 -7
BITMAP
01F0
03E0
07E0
07C0
0FC0
0F80
1F80
1F80
3F00
3F00
3F00
7E00
7E00
7E00
7E00
FE00
FC00
FC00
FC00
FC00
FC00
FC00
FC00
FC00
FC00
FC00
FC00
FC00
FE00
7E00
7E00
7E00
3F00
3F00
3F00
1F00
1F80
0F80
0FC0
07C0
07C0
03E0
03E0
ENDCHAR
STARTCHAR parenright
ENCODING 41
SWIDTH 336 0
DWIDTH 16 0
BBX 11 43 1 -7
BITMAP
F800
F800
7C00
7C00
7E00
3E00
3F00
1F00
1F80
1F80
0FC0
0FC0
0FC0
0FC0
0FE0
07E0
07E0
07E0
07E0
07E0
07E0
07E0
07E0
07E0
07E0
07E0
07E0
07E0
07E0
0FE0
0FC0
0FC0
0FC0
1F80
1F80
1F80
3F00
3F00
3E00
7E00
7C00
F800
F800
ENDCHAR
STARTCHAR asterisk
ENCODING 42
SWIDTH 473 0
DWIDTH 23 0
BBX 20 19 1 16
BITMAP
00F800
00F000
00F000
00F000
00F000
20F060
7CF1E0
7FFFF0
FFFFF0
3FFFC0
03FC00
01FC00
03FE00
07DE00
0F9F00
0F8F80
3F07C0
1E0780
060200
ENDCHAR
STARTCHAR plus
ENCODING 43
SWIDTH 588 0
DWIDTH 28 0
BBX 22 23 3 6
BITMAP
007C00
007C00
007C00
007C00
007C00
007C00
007C00
007C00
007C00
FFFFFC
FFFFFC
FFFFFC
FFFFFC
FFFFFC
007C00
007C00
007C00
007C00
007C00
007C00
007C00
007C00
007C00
ENDCHAR
STARTCHAR comma
ENCODING 44
SWIDTH 277 0
DWIDTH 13 0
BBX 8 14 2 -7
BITMAP
7F
7F
7F
7F
7F
7F
7E
1E
3C
3C
38
70
70
E0
ENDCHAR
STARTCHAR hyphen
ENCODING 45
SWIDTH 393 0
DWIDTH 19 0
BBX 13 5 3 10
BITMAP
FFF8
FFF8
FFF8
FFF8
FFF8
ENDCHAR
STARTCHAR period
ENCODING 46
SWIDTH 269 0
DWIDTH 13 0
BBX 8 8 2 0
BITMAP
FF
FF
FF
FF
FF
FF
FF
FF
ENDCHAR
STARTCHAR slash
ENCODING 47
SWIDTH 381 0
DWIDTH 18 0
BBX 17 36 1 -1
BITMAP
000F80
001F00
001F00
001E00
003E00
003E00
003C00
007C00
007C00
007800
00F800
00F800
00F000
01F000
01F000
01E000
03E000
03E000
07C000
07C000
07C000
0F8000
0F8000
0F8000
1F0000
1F0000
1F0000
3E0000
3E0000
3E0000
7C0000
7C0000
7C0000
F80000
F80000
F80000
ENDCHAR
STARTCHAR zero
ENCODING 48
SWIDTH 644 0
DWIDTH 31 0
BBX 27 36 2 -1
BITMAP
007FC000
01FFF000
03FFF800
07FFFC00
0FFFFE00
1FF1FF00
3FC07F80
3F803F80
3F803F80
7F001FC0
7F001FC0
7F001FC0
FF001FC0
FF001FE0
FF001FE0
FE001FE0
FE001FE0
FE001FE0
FE001FE0
FE001FE0
FE001FE0
FF001FE0
FF001FE0
7F001FC0
7F001FC0
7F001FC0
7F803FC0
3F803F80
3FC07F80
1FF1FF00
1FFFFF00
0FFFFE00
07FFFC00
03FFF800
00FFE000
00060000
ENDCHAR
STARTCHAR one
ENCODING 49
SWIDTH 428 0
DWIDTH 21 0
BBX 13 35 2 0
BITMAP
0078
00F8
00F8
01F8
07F8
FFF8
FFF8
FFF8
FFF8
03F8
03F8
03F8
03F8
03F8
03F8
03F8
03F8
03F8
03F8
03F8
03F8
03F8
03F8
03F8
03F8
03F8
03F8
03F8
03F8
03F8
03F8
03F8
03F8
03F8
03F8
ENDCHAR
STARTCHAR two
ENCODING 50
SWIDTH 635 0
DWIDTH 30 0
BBX 26 35 2 0
BITMAP
00FFE000
03FFF800
0FFFFE00
1FFFFF00
3FFFFF00
3FFFFF80
7FC07FC0
7F803FC0
FF001FC0
FE001FC0
FE001FC0
FE001FC0
00003FC0
00003FC0
00007F80
0001FF80
0007FF00
001FFE00
007FFC00
00FFF800
03FFE000
07FF8000
0FFE0000
1FF80000
3FE00000
3FC00000
7F800000
7F800000
7F800000
7FFFFFC0
7FFFFFC0
7FFFFFC0
7FFFFFC0
7FFFFFC0
7FFFFFC0
ENDCHAR
STARTCHAR three
ENCODING 51
SWIDTH 665 0
DWIDTH 32 0
BBX 28 36 2 -1
BITMAP
00FFE000
03FFFC00
0FFFFF00
1FFFFF80
3FFFFFC0
3FE0FFC0
7F803FE0
7F001FE0
7F001FE0
FE000FE0
FE001FE0
00001FE0
00003FC0
0000FFC0
003FFF80
003FFE00
003FF800
003FFE00
003FFF00
003FFFC0
0000FFC0
00001FE0
00000FE0
00000FF0
FE000FF0
FE000FF0
FF000FF0
7F000FF0
7F803FE0
7FE0FFE0
3FFFFFC0
1FFFFF80
0FFFFF00
07FFFE00
01FFF000
00060000
ENDCHAR
STARTCHAR four
ENCODING 52
SWIDTH 656 0
DWIDTH 31 0
BBX 28 35 2 0
BITMAP
0000FE00
0001FE00
0003FE00
0007FE00
0007FE00
000FFE00
001FFE00
001FFE00
003FFE00
007EFE00
00FEFE00
00FCFE00
01F8FE00
03F0FE00
07F0FE00
07E0FE00
0FC0FE00
1FC0FE00
3F80FE00
3F00FE00
7E00FE00
FFFFFFF0
FFFFFFF0
FFFFFFF0
FFFFFFF0
FFFFFFF0
FFFFFFF0
0000FE00
0000FE00
0000FE00
0000FE00
0000FE00
0000FE00
0000FE00
0000FE00
ENDCHAR
STARTCHAR five
ENCODING 53
SWIDTH 675 0
DWIDTH 32 0
BBX 28 36 2 -1
BITMAP
0FFFFFC0
0FFFFFC0
0FFFFFC0
1FFFFFC0
1FFFFFC0
1FFFFFC0
1F800000
1F800000
1F800000
1F800000
1F800000
1F800000
1F818000
1FBFFC00
3FFFFF00
3FFFFF80
3FFFFFC0
3FFFFFE0
1FE07FE0
03801FF0
00000FF0
00000FF0
000007F0
000007F0
040007F0
1C0007F0
3E000FF0
FF000FF0
7F801FE0
7FE07FE0
3FFFFFC0
1FFFFFC0
0FFFFF00
03FFFE00
00FFF800
00060000
ENDCHAR
STARTCHAR six
ENCODING 54
SWIDTH 660 0
DWIDTH 32 0
BBX 28 36 2 -1
BITMAP
003FE000
00FFFC00
03FFFE00
07FFFF00
0FFFFF80
1FFCFFC0
1FE01FC0
3FC00FE0
3F800FE0
7F8007E0
7F000000
7F000000
7F000000
FF07F000
FF3FFC00
FF7FFF00
FFFFFF80
FFFFFFC0
FFF8FFC0
FFC03FE0
FF801FE0
FF000FE0
FF000FF0
7F000FF0
7F000FF0
7F800FE0
7F800FE0
3F801FE0
3FC03FE0
1FE07FC0
0FFFFF80
0FFFFF80
03FFFF00
01FFFC00
007FF000
00030000
ENDCHAR
STARTCHAR seven
ENCODING 55
SWIDTH 626 0
DWIDTH 30 0
BBX 26 35 2 0
BITMAP
FFFFFFC0
FFFFFFC0
FFFFFFC0
FFFFFFC0
FFFFFFC0
FFFFFFC0
00003FC0
00003F80
00007F00
0000FF00
0000FE00
0001FC00
0003FC00
0003F800
0007F800
0007F000
000FF000
000FE000
001FE000
001FC000
003FC000
003F8000
003F8000
007F8000
007F0000
007F0000
00FF0000
00FE0000
00FE0000
01FE0000
01FE0000
01FC0000
01FC0000
01FC0000
03FC0000
ENDCHAR
STARTCHAR eight
ENCODING 56
SWIDTH 671 0
DWIDTH 32 0
BBX 28 36 2 -1
BITMAP
007FE000
01FFFC00
07FFFE00
0FFFFF00
1FFFFF80
3FE07FC0
3FC01FC0
3F801FC0
3F801FC0
3F800FE0
3F801FE0
3F801FC0
3FC01FC0
1FE07FC0
1FFFFF80
0FFFFF00
03FFFC00
07FFFE00
0FFFFF80
1FFFFFC0
3FE07FC0
7F801FE0
7F000FF0
FF000FF0
FF0007F0
FF0007F0
FF000FF0
FF000FF0
7F801FF0
7FC03FE0
3FFFFFE0
3FFFFFC0
0FFFFF80
07FFFE00
01FFF800
00060000
ENDCHAR
STARTCHAR nine
ENCODING 57
SWIDTH 659 0
DWIDTH 32 0
BBX 28 36 2 -1
BITMAP
00FFC000
03FFF000
07FFFC00
1FFFFE00
1FFFFF00
3FE0FF00
7FC07F80
7F803FC0
7F001FC0
FF001FC0
FF001FE0
FF001FE0
FF001FE0
FF001FE0
7F801FE0
7F803FE0
7FE0FFF0
3FFFFFF0
3FFFFFE0
1FFFFFE0
07FFEFE0
01FF8FE0
00080FE0
00000FE0
00000FE0
FE000FC0
FE001FC0
7F003FC0
7F807F80
7FC1FF80
3FFFFF00
1FFFFE00
0FFFFC00
07FFF800
01FFE000
00080000
ENDCHAR
STARTCHAR colon
ENCODING 58
SWIDTH 269 0
DWIDTH 13 0
BBX 8 24 2 0
BITMAP
FF
FF
FF
FF
FF
FF
FF
00
00
00
00
00
00
00
00
00
FF
FF
FF
FF
FF
FF
FF
FF
ENDCHAR
STARTCHAR semicolon
ENCODING 59
SWIDTH 278 0
DWIDTH 13 0
BBX 8 31 2 -7
BITMAP
7F
7F
7F
7F
7F
7F
7F
7F
00
00
00
00
00
00
00
00
7F
7F
7F
7F
7F
7F
7F
7F
1F
1E
3C
3C
38
70
F0
ENDCHAR
STARTCHAR less
ENCODING 60
SWIDTH 577 0
DWIDTH 28 0
BBX 22 23 3 5
BITMAP
000004
00003C
0001FC
0007FC
003FFC
00FFFC
07FFF8
1FFFC0
FFFE00
FFF800
FFC000
FF0000
FFC000
FFF800
FFFE00
3FFFC0
07FFF8
00FFFC
003FFC
0007FC
0001FC
00003C
000004
ENDCHAR
STARTCHAR equal
ENCODING 61
SWIDTH 588 0
DWIDTH 28 0
BBX 22 17 3 8
BITMAP
FFFFFC
FFFFFC
FFFFFC
FFFFFC
FFFFFC
FFFFFC
000000
000000
000000
000000
000000
FFFFFC
FFFFFC
FFFFFC
FFFFFC
FFFFFC
FFFFFC
ENDCHAR
STARTCHAR greater
ENCODING 62
SWIDTH 577 0
DWIDTH 28 0
BBX 22 23 3 5
BITMAP
800000
F00000
FC0000
FF8000
FFE000
FFFC00
7FFF80
0FFFE0
03FFFC
007FFC
001FFC
0003FC
000FFC
007FFC
03FFFC
0FFFE0
7FFF80
FFFC00
FFE000
FF8000
FC0000
F00000
800000
ENDCHAR
STARTCHAR question
ENCODING 63
SWIDTH 534 0
DWIDTH 26 0
BBX 23 35 1 0
BITMAP
01FF80
07FFE0
1FFFF0
3FFFF8
7FFFFC
7F81FE
FE00FE
FC00FE
1C00FE
0000FE
0000FE
0001FC
0003FC
0007F8
0007F0
000FE0
001FC0
003F80
003F00
007E00
007E00
00FC00
00FC00
00FC00
000000
000000
000000
000000
01FE00
01FE00
01FE00
01FE00
01FE00
01FE00
01FE00
ENDCHAR
STARTCHAR at
ENCODING 64
SWIDTH 827 0
DWIDTH 40 0
BBX 36 36 2 -5
BITMAP
0001FE0000
001FFFE000
007FFFF800
00FFFFFC00
03FC01FF00
07F0003F80
0FC0000F80
1F800007C0
1F000003E0
3E03F803E0
3C0FFDE1E0
7C1FFFE1F0
783FFFE1F0
783F0FE0F0
F87E07E0F0
F07C07E0F0
F07C03C0F0
F0F803C0F0
F0F803C1F0
F0F807C1E0
F0F807C1E0
F0FC0FC3E0
F87C1FC7C0
F87F7FFFC0
787FFFFF80
7C3FFBFF00
7C1FF0FC00
3E07C00000
1F00000000
1F80000000
0FC0003000
07F0007800
03FF8FFC00
00FFFFF000
007FFFE000
000FFF0000
ENDCHAR
STARTCHAR A
ENCODING 65
SWIDTH 726 0
DWIDTH 35 0
BBX 33 35 1 0
BITMAP
0007F00000
000FF80000
000FF80000
000FF80000
001FFC0000
001FFC0000
003FFC0000
003F7E0000
003F7E0000
007F7E0000
007E3F0000
007E3F0000
00FE3F8000
00FC1F8000
00FC1F8000
01FC1FC000
01F80FC000
01F80FC000
03F80FE000
03F007E000
07F007E000
07FFFFF000
07FFFFF000
0FFFFFF000
0FFFFFF800
0FFFFFF800
1FFFFFFC00
1FC001FC00
1FC001FC00
3F8000FE00
3F8000FE00
3F8000FE00
7F00007F00
7F00007F00
FF00007F80
ENDCHAR
STARTCHAR B
ENCODING 66
SWIDTH 684 0
DWIDTH 33 0
BBX 27 35 4 0
BITMAP
FFFF0000
FFFFF000
FFFFFC00
FFFFFF00
FFFFFF00
FFFFFF80
FE007F80
FE003FC0
FE001FC0
FE001FC0
FE001FC0
FE001FC0
FE003F80
FE003F80
FE01FF00
FFFFFE00
FFFFF800
FFFFF800
FFFFFE00
FFFFFF00
FE00FF80
FE003FC0
FE001FC0
FE001FC0
FE000FE0
FE000FE0
FE001FE0
FE001FE0
FE003FC0
FE03FFC0
FFFFFF80
FFFFFF80
FFFFFF00
FFFFFC00
FFFFE000
ENDCHAR
STARTCHAR C
ENCODING 67
SWIDTH 718 0
DWIDTH 34 0
BBX 30 35 2 0
BITMAP
001FF800
00FFFE00
01FFFF80
07FFFFC0
0FFFFFE0
0FFFFFF0
1FF01FF0
3FE007F8
3FC003F8
3F8003FC
7F8003FC
7F8001FC
7F000000
7F000000
FF000000
FF000000
FF000000
FF000000
FF000000
FF000000
FF000000
7F000000
7F000000
7F8001FC
7F8003FC
3F8003FC
3FC007F8
3FE007F8
1FF00FF8
0FFC3FF0
07FFFFE0
07FFFFE0
01FFFFC0
00FFFF00
003FFC00
ENDCHAR
STARTCHAR D
ENCODING 68
SWIDTH 720 0
DWIDTH 35 0
BBX 28 35 4 0
BITMAP
FFF80000
FFFFC000
FFFFF000
FFFFFC00
FFFFFE00
FFFFFF00
FE03FF80
FE007FC0
FE003FC0
FE001FE0
FE001FE0
FE000FF0
FE000FF0
FE0007F0
FE0007F0
FE0007F0
FE0007F0
FE0007F0
FE0007F0
FE0007F0
FE0007F0
FE0007F0
FE000FF0
FE000FF0
FE001FE0
FE001FE0
FE003FC0
FE007FC0
FE01FF80
FFFFFF80
FFFFFF00
FFFFFC00
FFFFF800
FFFFE000
FFFE0000
ENDCHAR
STARTCHAR E
ENCODING 69
SWIDTH 634 0
DWIDTH 30 0
BBX 24 35 4 0
BITMAP
FFFFFF
FFFFFF
FFFFFF
FFFFFF
FFFFFF
FFFFFF
FE0000
FE0000
FE0000
FE0000
FE0000
FE0000
FE0000
FE0000
FE0000
FFFFF8
FFFFF8
FFFFF8
FFFFF8
FFFFF8
FE0000
FE0000
FE0000
FE0000
FE0000
FE0000
FE0000
FE0000
FE0000
FFFFFF
FFFFFF
FFFFFF
FFFFFF
FFFFFF
FFFFFF
ENDCHAR
STARTCHAR F
ENCODING 70
SWIDTH 613 0
DWIDTH 29 0
BBX 24 35 4 0
BITMAP
FFFFFF
FFFFFF
FFFFFF
FFFFFF
FFFFFF
FFFFFF
FE0000
FE0000
FE0000
FE0000
FE0000
FE0000
FE0000
FE0000
FE0000
FFFFF8
FFFFF8
FFFFF8
FFFFF8
FFFFF8
FFFFF8
FE0000
FE0000
FE0000
FE0000
FE0000
FE0000
FE0000
FE0000
FE0000
FE0000
FE0000
FE0000
FE0000
FE0000
ENDCHAR
STARTCHAR G
ENCODING 71
SWIDTH 759 0
DWIDTH 36 0
BBX 31 35 2 0
BITMAP
001FF800
007FFF00
01FFFF80
03FFFFC0
07FFFFE0
0FFFFFF0
1FF81FF8
1FE007F8
3FC003FC
3FC003FC
7F8001FC
7F8001FE
7F000000
7F000000
FF000000
FF000000
FF000000
FF00FFFE
FF00FFFE
FF00FFFE
FF00FFFE
7F00FFFE
7F0001FE
7F8001FE
7F8001FE
7FC001FE
3FC003FE
3FE007FE
1FF80FFE
0FFFFFFE
0FFFFFFE
07FFFFBE
03FFFF3E
00FFFE3E
003FF83E
ENDCHAR
STARTCHAR H
ENCODING 72
SWIDTH 770 0
DWIDTH 37 0
BBX 29 35 4 0
BITMAP
FE0003F8
FE0003F8
FE0003F8
FE0003F8
FE0003F8
FE0003F8
FE0003F8
FE0003F8
FE0003F8
FE0003F8
FE0003F8
FE0003F8
FE0003F8
FE0003F8
FFFFFFF8
FFFFFFF8
FFFFFFF8
FFFFFFF8
FFFFFFF8
FFFFFFF8
FE0003F8
FE0003F8
FE0003F8
FE0003F8
FE0003F8
FE0003F8
FE0003F8
FE0003F8
FE0003F8
FE0003F8
FE0003F8
FE0003F8
FE0003F8
FE0003F8
FE0003F8
ENDCHAR
STARTCHAR I
ENCODING 73
SWIDTH 307 0
DWIDTH 15 0
BBX 7 35 4 0
BITMAP
FE
FE
FE
FE
FE
FE
FE
FE
FE
FE
FE
FE
FE
FE
FE
FE
FE
FE
FE
FE
FE
FE
FE
FE
FE
FE
FE
FE
FE
FE
FE
FE
FE
FE
FE
ENDCHAR
STARTCHAR J
ENCODING 74
SWIDTH 402 0
DWIDTH 19 0
BBX 15 35 1 0
BITMAP
00FE
00FE
00FE
00FE
00FE
00FE
00FE
00FE
00FE
00FE
00FE
00FE
00FE
00FE
00FE
00FE
00FE
00FE
00FE
00FE
00FE
00FE
00FE
00FE
00FE
00FE
00FE
01FE
83FE
FFFE
FFFE
FFFC
FFFC
FFF8
FFF0
ENDCHAR
STARTCHAR K
ENCODING 75
SWIDTH 717 0
DWIDTH 34 0
BBX 29 35 4 0
BITMAP
FE000FF0
FE001FE0
FE003FC0
FE007F80
FE00FF80
FE00FF00
FE01FE00
FE03FC00
FE07F800
FE0FF800
FE0FF000
FE1FE000
FE3FC000
FE7FC000
FEFFC000
FEFFC000
FFFFE000
FFFFE000
FFFFF000
FFF7F800
FFE7F800
FFC3FC00
FF83FC00
FF01FE00
FF00FE00
FE00FF00
FE007F00
FE007F80
FE003FC0
FE003FC0
FE001FE0
FE001FE0
FE000FF0
FE0007F0
FE0007F8
ENDCHAR
STARTCHAR L
ENCODING 76
SWIDTH 577 0
DWIDTH 28 0
BBX 22 35 4 0
BITMAP
FE0000
FE0000
FE0000
FE0000
FE0000
FE0000
FE0000
FE0000
FE0000
FE0000
FE0000
FE0000
FE0000
FE0000
FE0000
FE0000
FE0000
FE0000
FE0000
FE0000
FE0000
FE0000
FE0000
FE0000
FE0000
FE0000
FE0000
FE0000
FE0000
FFFFFC
FFFFFC
FFFFFC
FFFFFC
FFFFFC
FFFFFC
ENDCHAR
STARTCHAR M
ENCODING 77
SWIDTH 917 0
DWIDTH 44 0
BBX 36 35 4 0
BITMAP
FFC0003FF0
FFC0003FF0
FFE0007FF0
FFE0007FF0
FFE0007FF0
FFF000FFF0
FFF000FFF0
FFF000FFF0
FFF801FFF0
FFF801FFF0
FEF801F7F0
FEFC03F7F0
FEFC03F7F0
FEFC03F7F0
FE7E07E7F0
FE7E07E7F0
FE7E07E7F0
FE3F0FC7F0
FE3F0FC7F0
FE3F0FC7F0
FE1F9F87F0
FE1F9F87F0
FE1F9F87F0
FE0FFF07F0
FE0FFF07F0
FE0FFF07F0
FE07FE07F0
FE07FE07F0
FE07FE07F0
FE03FC07F0
FE03FC07F0
FE03FC07F0
FE03FC07F0
FE01F807F0
FE01F807F0
ENDCHAR
STARTCHAR N
ENCODING 78
SWIDTH 782 0
DWIDTH 38 0
BBX 30 35 4 0
BITMAP
FE0001FC
FF0001FC
FF0001FC
FF8001FC
FFC001FC
FFC001FC
FFE001FC
FFF001FC
FFF001FC
FFF801FC
FFFC01FC
FFFE01FC
FEFE01FC
FE7F01FC
FE7F81FC
FE3F81FC
FE1FC1FC
FE1FE1FC
FE0FE1FC
FE07F1FC
FE07F9FC
FE03F9FC
FE01FDFC
FE01FFFC
FE00FFFC
FE007FFC
FE007FFC
FE003FFC
FE001FFC
FE000FFC
FE000FFC
FE0007FC
FE0003FC
FE0003FC
FE0001FC
ENDCHAR
STARTCHAR O
ENCODING 79
SWIDTH 760 0
DWIDTH 37 0
BBX 32 35 2 0
BITMAP
001FF800
007FFF00
01FFFF80
03FFFFE0
07FFFFF0
0FFFFFF8
1FF00FF8
1FE007FC
3FC003FC
3FC001FE
7F8001FE
7F8000FE
7F8000FF
7F0000FF
FF0000FF
FF0000FF
FF00007F
FF00007F
FF00007F
FF00007F
FF0000FF
7F0000FF
7F0000FF
7F8000FF
7F8000FE
7F8001FE
3FC001FE
3FE003FC
1FF007FC
0FFE3FF8
0FFFFFF0
07FFFFE0
01FFFFC0
00FFFF80
003FFC00
ENDCHAR
STARTCHAR P
ENCODING 80
SWIDTH 652 0
DWIDTH 31 0
BBX 26 35 4 0
BITMAP
FFFE0000
FFFFE000
FFFFF800
FFFFFC00
FFFFFE00
FFFFFF00
FE007F80
FE003F80
FE001FC0
FE001FC0
FE001FC0
FE001FC0
FE001FC0
FE001FC0
FE003FC0
FE003F80
FE00FF80
FFFFFF00
FFFFFF00
FFFFFE00
FFFFFC00
FFFFF000
FFFE0000
FE000000
FE000000
FE000000
FE000000
FE000000
FE000000
FE000000
FE000000
FE000000
FE000000
FE000000
FE000000
ENDCHAR
STARTCHAR Q
ENCODING 81
SWIDTH 773 0
DWIDTH 37 0
BBX 32 41 2 -6
BITMAP
001FF800
007FFF00
01FFFFC0
03FFFFE0
07FFFFF0
0FFFFFF8
1FF00FF8
1FE003FC
3FC003FC
3FC001FE
7F8001FE
7F8000FF
7F0000FF
7F0000FF
FF0000FF
FF0000FF
FF00007F
FF00007F
FF00007F
FF00007F
FF0000FF
7F0000FF
7F0000FF
7F8000FF
7F8000FE
7F8001FE
3FC001FE
3FE003FC
1FF007FC
0FFC3FF8
0FFFFFF0
07FFFFE0
03FFFFE0
00FFFFE0
003FFFF8
00000FFF
000007FF
000003FF
000001FF
0000007F
0000000F
ENDCHAR
STARTCHAR R
ENCODING 82
SWIDTH 696 0
DWIDTH 33 0
BBX 27 35 4 0
BITMAP
FFFFC000
FFFFF800
FFFFFE00
FFFFFF00
FFFFFF80
FFFFFF80
FE007FC0
FE003FC0
FE001FC0
FE001FC0
FE001FC0
FE001FC0
FE001FC0
FE001FC0
FE003FC0
FE007FC0
FFFFFF80
FFFFFF00
FFFFFE00
FFFFFC00
FFFFF000
FFFFF800
FE03F800
FE01FC00
FE01FC00
FE00FE00
FE00FE00
FE00FE00
FE007F00
FE007F00
FE003F80
FE003F80
FE001FC0
FE001FC0
FE001FE0
ENDCHAR
STARTCHAR S
ENCODING 83
SWIDTH 692 0
DWIDTH 33 0
BBX 29 35 2 0
BITMAP
003FF000
01FFFE00
03FFFF00
0FFFFFC0
1FFFFFC0
1FFCFFE0
3FC01FF0
3FC00FF0
3F8007F0
7F8007F0
7F800008
7F800000
3FC00000
3FF80000
3FFF8000
1FFFFC00
1FFFFF00
07FFFFC0
03FFFFE0
00FFFFE0
0007FFF0
00007FF0
00000FF8
000007F8
000003F8
FF0003F8
7F0003F8
7F8007F8
7FC00FF0
3FF03FF0
1FFFFFE0
0FFFFFC0
07FFFF80
03FFFE00
007FF800
ENDCHAR
STARTCHAR T
ENCODING 84
SWIDTH 616 0
DWIDTH 30 0
BBX 28 35 1 0
BITMAP
FFFFFFF0
FFFFFFF0
FFFFFFF0
FFFFFFF0
FFFFFFF0
FFFFFFF0
FFFFFFF0
003F8000
003F8000
003F8000
003F8000
003F8000
003F8000
003F8000
003F8000
003F8000
003F8000
003F8000
003F8000
003F8000
003F8000
003F8000
003F8000
003F8000
003F8000
003F8000
003F8000
003F8000
003F8000
003F8000
003F8000
003F8000
003F8000
003F8000
003F8000
ENDCHAR
STARTCHAR U
ENCODING 85
SWIDTH 724 0
DWIDTH 35 0
BBX 28 35 4 0
BITMAP
FE0007F0
FE0007F0
FE0007F0
FE0007F0
FE0007F0
FE0007F0
FE0007F0
FE0007F0
FE0007F0
FE0007F0
FE0007F0
FE0007F0
FE0007F0
FE0007F0
FE0007F0
FE0007F0
FE0007F0
FE0007F0
FE0007F0
FE0007F0
FE0007F0
FE0007F0
FE0007F0
FE000FF0
FE000FE0
FF000FE0
FF000FE0
7F801FE0
7FC03FE0
7FFFFFC0
3FFFFF80
1FFFFF80
0FFFFF00
07FFFC00
01FFF000
ENDCHAR
STARTCHAR V
ENCODING 86
SWIDTH 703 0
DWIDTH 34 0
BBX 32 35 1 0
BITMAP
FE00007F
FE00007E
7E0000FE
7F0000FE
7F0000FC
3F0001FC
3F8001FC
3F8001F8
1F8003F8
1FC003F8
1FC003F0
0FE007F0
0FE007F0
0FE007E0
07F00FE0
07F00FE0
03F01FC0
03F81FC0
03F81FC0
01F83F80
01FC3F80
01FC3F80
00FC7F00
00FE7F00
00FE7F00
007EFE00
007FFE00
007FFC00
003FFC00
003FFC00
003FF800
001FF800
001FF800
001FF000
000FF000
ENDCHAR
STARTCHAR W
ENCODING 87
SWIDTH 968 0
DWIDTH 46 0
BBX 45 35 1 0
BITMAP
FE000F8003F8
FE001F8007F0
7E001F8007F0
7F001FC007F0
7F003FC007E0
7F003FC00FE0
3F803FE00FE0
3F803FE00FC0
3F807FE01FC0
1F807FE01FC0
1FC07FF01FC0
1FC07FF01F80
0FC0FFF03F80
0FE0FDF83F80
0FE0FDF83F00
0FE1F9F87F00
07E1F9F87F00
07F1F8FC7F00
07F1F0FC7E00
03F3F0FCFE00
03F3F07EFE00
03FBF07EFC00
03FFE07FFC00
01FFE07FFC00
01FFE03FF800
01FFC03FF800
00FFC03FF800
00FFC01FF800
00FFC01FF000
007F801FF000
007F801FF000
007F800FE000
007F000FE000
003F000FE000
003F0007C000
ENDCHAR
STARTCHAR X
ENCODING 88
SWIDTH 717 0
DWIDTH 34 0
BBX 32 35 1 0
BITMAP
7F8001FE
7FC003FC
3FE003F8
1FE007F0
1FF007F0
0FF80FE0
07F81FC0
07FC1FC0
03FC3F80
01FE3F00
01FF7F00
00FFFE00
007FFE00
007FFC00
003FF800
001FF800
001FF000
000FF800
001FF800
003FFC00
003FFE00
007FFE00
00FFFF00
00FEFF80
01FC7F80
01FC7FC0
03F83FC0
07F01FE0
07F01FF0
0FE00FF0
1FE007F8
1FC007FC
3F8003FC
7F8003FE
FF0001FF
ENDCHAR
STARTCHAR Y
ENCODING 89
SWIDTH 667 0
DWIDTH 32 0
BBX 32 35 0 0
BITMAP
FF0000FF
7F8001FE
3F8001FC
3FC003FC
1FC003F8
0FE007F0
0FF00FF0
07F00FE0
07F81FE0
03F81FC0
01FC3F80
01FC3F80
00FE7F00
00FF7F00
007FFE00
003FFC00
003FFC00
001FF800
001FF800
000FF000
000FF000
000FF000
000FF000
000FF000
000FF000
000FF000
000FF000
000FF000
000FF000
000FF000
000FF000
000FF000
000FF000
000FF000
000FF000
ENDCHAR
STARTCHAR Z
ENCODING 90
SWIDTH 669 0
DWIDTH 32 0
BBX 27 35 3 0
BITMAP
7FFFFFE0
7FFFFFE0
7FFFFFE0
7FFFFFE0
7FFFFFE0
7FFFFFC0
00007F80
0000FF00
0000FF00
0001FE00
0003FC00
0007FC00
0007F800
000FF000
001FF000
001FE000
003FC000
007F8000
007F8000
00FF0000
01FE0000
01FE0000
03FC0000
07F80000
0FF80000
0FF00000
1FE00000
3FC00000
3FC00000
7FFFFFE0
FFFFFFE0
FFFFFFE0
FFFFFFE0
FFFFFFE0
FFFFFFE0
ENDCHAR
STARTCHAR bracketleft
ENCODING 91
SWIDTH 337 0
DWIDTH 16 0
BBX 11 43 4 -8
BITMAP
FFE0
FFE0
FFE0
FFE0
F800
F800
F800
F800
F800
F800
F800
F800
F800
F800
F800
F800
F800
F800
F800
F800
F800
F800
F800
F800
F800
F800
F800
F800
F800
F800
F800
F800
F800
F800
F800
F800
F800
F800
F800
FFE0
FFE0
FFE0
FFE0
ENDCHAR
STARTCHAR backslash
ENCODING 92
SWIDTH 381 0
DWIDTH 18 0
BBX 17 36 1 -1
BITMAP
F80000
F80000
F80000
7C0000
7C0000
7C0000
3E0000
3E0000
3E0000
1F0000
1F0000
1F0000
0F8000
0F8000
0F8000
07C000
07C000
07C000
03E000
03E000
03E000
01F000
01F000
01F000
00F800
00F800
00F800
007C00
007C00
007C00
003E00
003E00
001E00
001F00
001F00
000F80
ENDCHAR
STARTCHAR bracketright
ENCODING 93
SWIDTH 337 0
DWIDTH 16 0
BBX 11 43 2 -8
BITMAP
FFE0
FFE0
FFE0
FFE0
07E0
07E0
07E0
07E0
07E0
07E0
07E0
07E0
07E0
07E0
07E0
07E0
07E0
07E0
07E0
07E0
07E0
07E0
07E0
07E0
07E0
07E0
07E0
07E0
07E0
07E0
07E0
07E0
07E0
07E0
07E0
07E0
07E0
07E0
07E0
FFE0
FFE0
FFE0
FFE0
ENDCHAR
STARTCHAR asciicircum
ENCODING 94
SWIDTH 484 0
DWIDTH 23 0
BBX 19 19 2 6
BITMAP
00E000
01F000
01F000
03F800
03F800
07F800
07FC00
07BC00
0FBE00
0F3E00
1F1E00
1E1F00
3E0F00
3E0F80
3C0F80
7C07C0
7807C0
F803C0
F803E0
ENDCHAR
STARTCHAR underscore
ENCODING 95
SWIDTH 553 0
DWIDTH 27 0
BBX 21 5 3 -7
BITMAP
FFFFF8
FFFFF8
FFFFF8
FFFFF8
FFFFF8
ENDCHAR
STARTCHAR grave
ENCODING 96
SWIDTH 264 0
DWIDTH 13 0
BBX 12 7 0 28
BITMAP
FF00
7F00
3F80
0FC0
07C0
03E0
01F0
ENDCHAR
STARTCHAR a
ENCODING 97
SWIDTH 566 0
DWIDTH 27 0
BBX 23 25 2 0
BITMAP
01FFC0
0FFFF0
1FFFF8
3FFFFC
3FE7FC
7F01FC
7E00FC
7E00FC
0000FE
0007FE
07FFFE
1FFFFE
3FFFFE
7FC0FE
7F00FE
FE00FE
FE00FE
FE00FE
FE01FE
FE03FE
FF87FE
7FFFFE
7FFEFE
3FFCFE
0FF87E
ENDCHAR
STARTCHAR b
ENCODING 98
SWIDTH 608 0
DWIDTH 29 0
BBX 24 36 3 0
BITMAP
FE0000
FE0000
FE0000
FE0000
FE0000
FE0000
FE0000
FE0000
FE0000
FE0000
FE0000
FE1FE0
FE7FF0
FEFFF8
FFFFFC
FFFFFE
FFC1FE
FF00FF
FF007F
FF007F
FE007F
FE007F
FE003F
FE003F
FE007F
FE007F
FE007F
FE007F
FF007F
FF00FE
FF81FE
FFFFFE
FDFFFC
F9FFF8
F8FFF0
F87FE0
ENDCHAR
STARTCHAR c
ENCODING 99
SWIDTH 547 0
DWIDTH 26 0
BBX 22 25 2 0
BITMAP
01FF00
07FFC0
0FFFE0
1FFFF0
3FFFF8
3FC3F8
7F01FC
7E00FC
FE00FC
FE0000
FE0000
FC0000
FC0000
FC0000
FC0000
FE0000
FE00FC
FE00FC
7F00FC
7F81F8
3FFFF8
1FFFF0
0FFFE0
07FFC0
01FF80
ENDCHAR
STARTCHAR d
ENCODING 100
SWIDTH 608 0
DWIDTH 29 0
BBX 24 36 2 0
BITMAP
00007F
00007F
00007F
00007F
00007F
00007F
00007F
00007F
00007F
00007F
00007F
03FC7F
0FFE7F
1FFF7F
3FFFFF
7FFFFF
7F81FF
7F00FF
FF00FF
FE007F
FE007F
FE007F
FE007F
FE007F
FE007F
FE007F
FE007F
FE007F
FF00FF
7F00FF
7F81FF
3FFFFF
3FFFDF
1FFF9F
0FFF1F
03FE1F
ENDCHAR
STARTCHAR e
ENCODING 101
SWIDTH 576 0
DWIDTH 28 0
BBX 24 25 2 0
BITMAP
01FF80
07FFE0
0FFFF0
1FFFF8
3FFFFC
3F81FC
7F00FE
7E007E
7E007E
FE007E
FFFFFF
FFFFFF
FFFFFF
FFFFFF
FE0000
FE0000
FE0000
7F007F
7F007E
3F80FE
3FFFFC
1FFFFC
0FFFF8
07FFE0
01FF80
ENDCHAR
STARTCHAR f
ENCODING 102
SWIDTH 396 0
DWIDTH 19 0
BBX 17 35 1 0
BITMAP
003F80
01FF80
03FF80
07FF80
07FF80
07F000
07F000
07F000
07F000
07F000
FFFF80
FFFF80
FFFF80
FFFF80
FFFF80
07F000
07F000
07F000
07F000
07F000
07F000
07F000
07F000
07F000
07F000
07F000
07F000
07F000
07F000
07F000
07F000
07F000
07F000
07F000
07F000
ENDCHAR
STARTCHAR g
ENCODING 103
SWIDTH 628 0
DWIDTH 30 0
BBX 28 34 1 -8
BITMAP
00000010
00FFC0F0
03FFF7F0
0FFFFFF0
1FFFFFF0
1FC0FFC0
3F807F00
3F803F00
3F803F00
3F803F00
3F807F00
1FC07F00
1FE1FE00
0FFFFC00
07FFF800
03FFF000
0FFF0000
1F000000
3FC00000
3FFFF800
3FFFFE00
3FFFFF80
1FFFFFC0
07FFFFC0
3FDFFFE0
7F001FE0
FE000FE0
FE000FE0
FE000FC0
FF801FC0
7FFFFF80
3FFFFF00
1FFFFC00
03FFF000
ENDCHAR
STARTCHAR h
ENCODING 104
SWIDTH 592 0
DWIDTH 28 0
BBX 23 36 3 0
BITMAP
FE0000
FE0000
FE0000
FE0000
FE0000
FE0000
FE0000
FE0000
FE0000
FE0000
FE0000
FE1F80
FE7FE0
FEFFF8
FFFFF8
FFFFFC
FFEFFC
FF01FE
FE01FE
FE00FE
FE00FE
FE00FE
FE00FE
FE00FE
FE00FE
FE00FE
FE00FE
FE00FE
FE00FE
FE00FE
FE00FE
FE00FE
FE00FE
FE00FE
FE00FE
FE00FE
ENDCHAR
STARTCHAR i
ENCODING 105
SWIDTH 267 0
DWIDTH 13 0
BBX 7 35 3 0
BITMAP
FE
FE
FE
FE
FE
FE
FE
00
00
00
FE
FE
FE
FE
FE
FE
FE
FE
FE
FE
FE
FE
FE
FE
FE
FE
FE
FE
FE
FE
FE
FE
FE
FE
FE
ENDCHAR
STARTCHAR j
ENCODING 106
SWIDTH 288 0
DWIDTH 14 0
BBX 12 43 -1 -8
BITMAP
07F0
07F0
07F0
07F0
07F0
07F0
07F0
0000
0000
0000
07F0
07F0
07F0
07F0
07F0
07F0
07F0
07F0
07F0
07F0
07F0
07F0
07F0
07F0
07F0
07F0
07F0
07F0
07F0
07F0
07F0
07F0
07F0
07F0
07F0
07F0
0FF0
7FF0
FFE0
FFE0
FFC0
FF80
7E00
ENDCHAR
STARTCHAR k
ENCODING 107
SWIDTH 579 0
DWIDTH 28 0
BBX 24 36 3 0
BITMAP
FE0000
FE0000
FE0000
FE0000
FE0000
FE0000
FE0000
FE0000
FE0000
FE0000
FE0000
FE00FF
FE01FC
FE03FC
FE07F8
FE0FF0
FE1FE0
FE1FC0
FE3F80
FE7F00
FEFE00
FFFE00
FFFF00
FFFF00
FFFF80
FFFF80
FF9FC0
FF0FE0
FE0FE0
FE07F0
FE03F8
FE03F8
FE01FC
FE01FC
FE00FE
FE007F
ENDCHAR
STARTCHAR l
ENCODING 108
SWIDTH 329 0
DWIDTH 16 0
BBX 11 36 3 0
BITMAP
FE00
FE00
FE00
FE00
FE00
FE00
FE00
FE00
FE00
FE00
FE00
FE00
FE00
FE00
FE00
FE00
FE00
FE00
FE00
FE00
FE00
FE00
FE00
FE00
FE00
FE00
FE00
FE00
FE00
FE00
FF00
FFE0
FFE0
7FE0
3FE0
1FE0
ENDCHAR
STARTCHAR m
ENCODING 109
SWIDTH 895 0
DWIDTH 43 0
BBX 37 25 3 0
BITMAP
FE1FC03F80
FE7FF0FFC0
FEFFF9FFE0
FFFFFFFFF0
FFFFFFFFF8
FFEFFFDFF8
FF03FE07F8
FE01FC03F8
FE01FC03F8
FE01FC03F8
FE01FC03F8
FE01FC03F8
FE01FC03F8
FE01FC03F8
FE01FC03F8
FE01FC03F8
FE01FC03F8
FE01FC03F8
FE01FC03F8
FE01FC03F8
FE01FC03F8
FE01FC03F8
FE01FC03F8
FE01FC03F8
FE01FC03F8
ENDCHAR
STARTCHAR n
ENCODING 110
SWIDTH 593 0
DWIDTH 28 0
BBX 23 25 3 0
BITMAP
FE1F80
FE7FE0
FEFFF8
FFFFF8
FFFFFC
FFEFFC
FF01FE
FE01FE
FE00FE
FE00FE
FE00FE
FE00FE
FE00FE
FE00FE
FE00FE
FE00FE
FE00FE
FE00FE
FE00FE
FE00FE
FE00FE
FE00FE
FE00FE
FE00FE
FE00FE
ENDCHAR
STARTCHAR o
ENCODING 111
SWIDTH 575 0
DWIDTH 28 0
BBX 24 25 2 0
BITMAP
01FF80
07FFE0
0FFFF0
1FFFF8
3FFFFC
7F83FC
7F01FE
7F00FE
FE00FE
FE007F
FE007F
FE007F
FE007F
FE007F
FE007F
FE007F
FE00FE
FF00FE
7F01FE
7F83FC
3FFFFC
1FFFF8
0FFFF0
07FFE0
01FF80
ENDCHAR
STARTCHAR p
ENCODING 112
SWIDTH 607 0
DWIDTH 29 0
BBX 24 33 3 -8
BITMAP
FE1FE0
FE7FF0
FEFFF8
FFFFFC
FFFFFE
FFC1FE
FF80FF
FF007F
FF007F
FE007F
FE003F
FE003F
FE003F
FE003F
FE003F
FE007F
FF007F
FF007F
FF80FE
FFC1FE
FFFFFE
FFFFFC
FEFFF8
FE7FF0
FE3FE0
FE0000
FE0000
FE0000
FE0000
FE0000
FE0000
FE0000
FE0000
ENDCHAR
STARTCHAR q
ENCODING 113
SWIDTH 607 0
DWIDTH 29 0
BBX 24 33 2 -8
BITMAP
07F87F
0FFE7F
1FFF7F
3FFFFF
7FFFFF
7F83FF
7F01FF
FE00FF
FE00FF
FE007F
FE007F
FC007F
FC007F
FC007F
FC007F
FE007F
FE00FF
FE00FF
7F01FF
7F83FF
7FFFFF
3FFFFF
1FFF7F
0FFE7F
03FC7F
00007F
00007F
00007F
00007F
00007F
00007F
00007F
00007F
ENDCHAR
STARTCHAR r
ENCODING 114
SWIDTH 412 0
DWIDTH 20 0
BBX 16 25 3 0
BITMAP
FE1F
FE3F
FE7F
FEFF
FFFF
FFFF
FFE1
FF80
FF00
FE00
FE00
FE00
FE00
FE00
FE00
FE00
FE00
FE00
FE00
FE00
FE00
FE00
FE00
FE00
FE00
ENDCHAR
STARTCHAR s
ENCODING 115
SWIDTH 527 0
DWIDTH 25 0
BBX 21 25 2 0
BITMAP
03FF00
0FFFC0
1FFFE0
3FFFF0
7FCFF8
7E03F8
7E01F8
7E0000
7F0000
7FE000
7FFE00
3FFFC0
1FFFE0
0FFFF0
01FFF8
000FF8
0001F8
FC01F8
FC01F8
FE01F8
7FC7F8
3FFFF0
3FFFF0
0FFFC0
03FF80
ENDCHAR
STARTCHAR t
ENCODING 116
SWIDTH 416 0
DWIDTH 20 0
BBX 17 32 1 0
BITMAP
03E000
03E000
03E000
03E000
07E000
07E000
07E000
FFFF80
FFFF80
FFFF80
FFFF80
FFFF80
0FE000
0FE000
0FE000
0FE000
0FE000
0FE000
0FE000
0FE000
0FE000
0FE000
0FE000
0FE000
0FE000
0FF000
0FF000
07FF80
07FF80
07FF80
03FF80
00FF80
ENDCHAR
STARTCHAR u
ENCODING 117
SWIDTH 595 0
DWIDTH 29 0
BBX 23 25 3 0
BITMAP
FE00FE
FE00FE
FE00FE
FE00FE
FE00FE
FE00FE
FE00FE
FE00FE
FE00FE
FE00FE
FE00FE
FE00FE
FE00FE
FE00FE
FE00FE
FE00FE
FE00FE
FE01FE
FE01FE
FF03FE
FFFF7E
7FFF7E
3FFF7E
1FFE7E
07F87E
ENDCHAR
STARTCHAR v
ENCODING 118
SWIDTH 520 0
DWIDTH 25 0
BBX 23 25 1 0
BITMAP
FC007E
FC00FE
7E00FC
7E00FC
7E01FC
3F01F8
3F01F8
3F03F8
1F83F0
1F83F0
0FC7E0
0FC7E0
0FC7E0
07EFC0
07EFC0
07EFC0
03FF80
03FF80
01FF00
01FF00
01FF00
00FE00
00FE00
00FE00
007C00
ENDCHAR
STARTCHAR w
ENCODING 119
SWIDTH 788 0
DWIDTH 38 0
BBX 36 25 1 0
BITMAP
FC01F803F0
FC01F807F0
FE01F807E0
7E03F807E0
7E03FC07E0
7F03FC0FC0
3F07FC0FC0
3F07FE0FC0
3F07FE1F80
1F87FE1F80
1F8FFF1F80
1F8FBF3F00
0FCF9F3F00
0FDF9F3F00
0FDF1FBE00
07FF1FFE00
07FF0FFE00
07FE0FFC00
03FE0FFC00
03FE07FC00
03FE07F800
01FC07F800
01FC03F800
01FC03F000
00F803F000
ENDCHAR
STARTCHAR x
ENCODING 120
SWIDTH 588 0
DWIDTH 28 0
BBX 26 25 1 0
BITMAP
7F003FC0
3F807F80
3FC07F00
1FC0FE00
0FE1FC00
07F3FC00
07FBF800
03FFF000
01FFE000
00FFE000
00FFC000
007F8000
007F8000
00FFC000
00FFE000
01FFE000
03FFF000
07FBF800
07F3FC00
0FE1FC00
1FC0FE00
3FC0FF00
3F807F80
7F003F80
FF001FC0
ENDCHAR
STARTCHAR y
ENCODING 121
SWIDTH 563 0
DWIDTH 27 0
BBX 25 33 1 -8
BITMAP
FE003F80
FE003F80
7E003F00
7F007F00
7F007F00
3F807E00
3F80FE00
1F80FC00
1FC1FC00
1FC1FC00
0FC1F800
0FE3F800
07E3F000
07E3F000
07F7F000
03F7E000
03FFE000
01FFC000
01FFC000
01FFC000
00FF8000
00FF8000
007F0000
007F0000
007F0000
007E0000
00FE0000
03FC0000
7FFC0000
7FF80000
7FF00000
7FE00000
3F800000
ENDCHAR
STARTCHAR z
ENCODING 122
SWIDTH 496 0
DWIDTH 24 0
BBX 20 25 2 0
BITMAP
FFFFF0
FFFFF0
FFFFF0
FFFFF0
FFFFF0
001FE0
001FC0
003FC0
007F80
00FF00
00FE00
01FE00
03FC00
07F800
07F000
0FF000
1FE000
3FC000
7F8000
7F0000
FFFFF0
FFFFF0
FFFFF0
FFFFF0
FFFFF0
ENDCHAR
STARTCHAR braceleft
ENCODING 123
SWIDTH 384 0
DWIDTH 18 0
BBX 16 43 1 -8
BITMAP
003F
00FF
03FF
03FF
07F0
07E0
07E0
07E0
07E0
07E0
07E0
07E0
07E0
07E0
07E0
07E0
07E0
0FE0
0FC0
FFC0
FF00
FC00
FF80
3FC0
0FC0
07E0
07E0
07E0
07E0
07E0
07E0
07E0
07E0
07E0
07E0
07E0
07E0
07E0
07F0
03FF
03FF
00FF
003F
ENDCHAR
STARTCHAR bar
ENCODING 124
SWIDTH 268 0
DWIDTH 13 0
BBX 5 48 4 -8
BITMAP
F8
F8
F8
F8
F8
F8
F8
F8
F8
F8
F8
F8
F8
F8
F8
F8
F8
F8
F8
F8
F8
F8
F8
F8
F8
F8
F8
F8
F8
F8
F8
F8
F8
F8
F8
F8
F8
F8
F8
F8
F8
F8
F8
F8
F8
F8
F8
F8
ENDCHAR
STARTCHAR braceright
ENCODING 125
SWIDTH 384 0
DWIDTH 18 0
BBX 16 43 1 -8
BITMAP
F800
FF00
FF80
FFC0
1FC0
07C0
07E0
07E0
07E0
07E0
07E0
07E0
07E0
07E0
07E0
07E0
07E0
07E0
07F0
03FF
01FF
003F
01FF
03F8
07F0
07E0
07E0
07E0
07E0
07E0
07E0
07E0
07E0
07E0
07E0
07E0
07E0
07C0
1FC0
FFC0
FF80
FF00
F800
ENDCHAR
STARTCHAR asciitilde
ENCODING 126
SWIDTH 612 0
DWIDTH 29 0
BBX 23 9 3 13
BITMAP
000004
0FC00C
1FF00E
7FFE3E
FFFFFE
FCFFFC
F01FF8
6007E0
400000
ENDCHAR
STARTCHAR uni00A0
ENCODING 160
SWIDTH 225 0
DWIDTH 11 0
BBX 1 1 0 0
BITMAP
00
ENDCHAR
STARTCHAR exclamdown
ENCODING 161
SWIDTH 282 0
DWIDTH 14 0
BBX 9 33 2 -8
BITMAP
7F00
7F00
7F00
7F00
7F00
7F00
7F00
7F00
0000
0000
0000
3E00
3E00
3E00
3E00
3E00
3E00
3E00
3E00
3F00
3F00
7F00
7F00
7F00
7F00
7F00
7F00
7F00
7F00
7F00
7F00
7F80
FF80
ENDCHAR
STARTCHAR cent
ENCODING 162
SWIDTH 561 0
DWIDTH 27 0
BBX 23 35 2 0
BITMAP
003E00
003E00
003E00
003E00
003E00
01FFC0
07FFE0
0FFFF0
1FFFF8
1FFFFC
3FC1FC
3F80FC
7F007E
7F007E
7E0000
7E0000
FE0000
FE0000
FE0000
7E0000
7E0000
7F007E
7F007E
3F80FC
3FC1FC
1FFFF8
0FFFF8
07FFF0
03FFE0
00FF00
003E00
003E00
003E00
003E00
003E00
ENDCHAR
STARTCHAR sterling
ENCODING 163
SWIDTH 648 0
DWIDTH 31 0
BBX 28 35 1 0
BITMAP
003FE000
00FFF800
01FFFE00
03FFFF00
07FFFF80
0FFE7F80
0FF81FC0
0FF01E00
0FF01000
0FF00000
0FF00000
0FF00000
0FF00000
0FF00000
0FF80000
FFFFF000
FFFFF000
FFFFF000
FFFFF000
07F80000
07F80000
03F80000
03F80000
03F80000
03F80000
03F80200
07F003F0
07F007F0
0FE00FE0
FFFFFFE0
FFFFFFC0
FFFFFFC0
FFFFFF80
FFFFFE00
FFFFF800
ENDCHAR
STARTCHAR currency
ENCODING 164
SWIDTH 578 0
DWIDTH 28 0
BBX 23 23 2 6
BITMAP
300008
787C1C
FDFFBE
7FFFFE
3FFFFC
1FFFF8
1F81F8
3F00F8
3E007C
7C007C
7C007C
7C007C
7C007C
7C007C
3E007C
3F00F8
1F81F8
1FFFF8
3FFFFC
7FFFFE
FFFFBE
787E1C
300008
ENDCHAR
STARTCHAR yen
ENCODING 165
SWIDTH 659 0
DWIDTH 32 0
BBX 32 35 0 0
BITMAP
FF8000FF
FFC000FE
7FC001FE
3FE001FC
3FE003F8
1FF003F8
1FF007F0
0FF80FE0
07F80FE0
07FC1FC0
03FE1FC0
01FE3F80
01FF3F00
00FF7F00
00FFFE00
007FFE00
003FFC00
003FF800
07FFFFE0
07FFFFE0
07FFFFE0
07FFFFE0
000FF000
000FF000
000FF000
000FF000
07FFFFE0
07FFFFE0
07FFFFE0
07FFFFE0
000FF000
000FF000
000FF000
000FF000
000FF000
ENDCHAR
STARTCHAR brokenbar
ENCODING 166
SWIDTH 268 0
DWIDTH 13 0
BBX 5 48 4 -8
BITMAP
F8
F8
F8
F8
F8
F8
F8
F8
F8
F8
F8
F8
F8
F8
F8
F8
F8
F8
F8
F8
00
00
00
00
00
00
00
00
F8
F8
F8
F8
F8
F8
F8
F8
F8
F8
F8
F8
F8
F8
F8
F8
F8
F8
F8
F8
ENDCHAR
STARTCHAR section
ENCODING 167
SWIDTH 512 0
DWIDTH 25 0
BBX 22 39 1 -4
BITMAP
03FE00
0FFF80
1FFFE0
3FFFF0
3F87F8
7F01F0
7E00C0
7F0000
7F8000
3FE000
3FFC00
1FFF00
0FFFC0
0FFFE0
1FFFF0
3FBFF8
7E07F8
7E01F8
7E01F8
7E00F8
7F00F8
7FC1F8
3FF3F0
3FFFE0
1FFFC0
07FFE0
01FFF0
007FF8
000FF8
0003FC
0001FC
0800FC
3C01FC
FE01F8
7FFFF8
3FFFF0
1FFFE0
07FFC0
00FC00
ENDCHAR
STARTCHAR dieresis
ENCODING 168
SWIDTH 381 0
DWIDTH 18 0
BBX 18 6 0 29
BITMAP
FE1FC0
FE1FC0
FE1FC0
FE1FC0
FE1FC0
FE1FC0
ENDCHAR
STARTCHAR copyright
ENCODING 169
SWIDTH 830 0
DWIDTH 40 0
BBX 36 35 2 0
BITMAP
0007FE0000
003FFF8000
00FFFFE000
01FFFFF800
03F801FC00
07E0007E00
0F80003F00
1F00001F00
3E03FC0F80
3C0FFE07C0
7C1FFF03C0
783F9F83E0
787E0FC1E0
F87E07C1E0
F07C0001E0
F0FC0001E0
F0FC0001F0
F0FC0001F0
F0FC0001F0
F0FC0001F0
F07C0201E0
F87E03C1E0
787E07C1E0
783F8F83E0
7C1FFF03C0
3C0FFF07C0
3E07FC0780
1F00000F80
0F80001F00
0FC0007E00
07F001FC00
03FFBFF800
00FFFFF000
003FFFC000
000FFF0000
ENDCHAR
STARTCHAR ordfeminine
ENCODING 170
SWIDTH 406 0
DWIDTH 20 0
BBX 15 16 2 19
BITMAP
0FF0
3FF8
7FFC
F83C
103C
003C
03FC
1FFC
7FFC
F83C
F83C
F03C
F87C
FFFC
7FBE
3E3E
ENDCHAR
STARTCHAR guillemotleft
ENCODING 171
SWIDTH 499 0
DWIDTH 24 0
BBX 19 18 2 3
BITMAP
03C1E0
0783C0
0F87C0
0F0780
1F0F80
1E0F80
3E1F00
7E3F00
FC3E00
7C3E00
7E1F00
3E1F00
1E0F80
1F0F80
0F0780
0783C0
0783C0
03C1E0
ENDCHAR
STARTCHAR logicalnot
ENCODING 172
SWIDTH 588 0
DWIDTH 28 0
BBX 22 12 3 8
BITMAP
FFFFFC
FFFFFC
FFFFFC
FFFFFC
FFFFFC
00007C
00007C
00007C
00007C
00007C
00007C
00007C
ENDCHAR
STARTCHAR uni00AD
ENCODING 173
SWIDTH 393 0
DWIDTH 19 0
BBX 13 5 3 10
BITMAP
FFF8
FFF8
FFF8
FFF8
FFF8
ENDCHAR
STARTCHAR registered
ENCODING 174
SWIDTH 552 0
DWIDTH 27 0
BBX 22 22 2 13
BITMAP
01FE00
07FF80
0FFFC0
1E01E0
3C0070
780078
71FE38
F18F1C
E1871C
E1871C
E1FE1C
E1FC1C
E18C1C
E18E1C
F18E1C
718738
798778
3C0070
1E01E0
0FFFC0
07FF80
01FE00
ENDCHAR
STARTCHAR macron
ENCODING 175
SWIDTH 393 0
DWIDTH 19 0
BBX 17 4 1 29
BITMAP
FFFF80
FFFF80
FFFF80
FFFF80
ENDCHAR
STARTCHAR degree
ENCODING 176
SWIDTH 474 0
DWIDTH 23 0
BBX 16 16 3 24
BITMAP
07F0
1FF8
3FFC
7FFE
7C3F
F81F
F00F
F00F
F00F
F80F
781F
7C3E
7FFE
3FFC
1FF8
07E0
ENDCHAR
STARTCHAR plusminus
ENCODING 177
SWIDTH 588 0
DWIDTH 28 0
BBX 22 31 3 2
BITMAP
007C00
007C00
007C00
007C00
007C00
007C00
007C00
007C00
007C00
FFFFFC
FFFFFC
FFFFFC
FFFFFC
FFFFFC
007C00
007C00
007C00
007C00
007C00
007C00
007C00
007C00
007C00
000000
000000
000000
FFFFFC
FFFFFC
FFFFFC
FFFFFC
FFFFFC
ENDCHAR
STARTCHAR uni00B2
ENCODING 178
SWIDTH 392 0
DWIDTH 19 0
BBX 17 22 1 18
BITMAP
07F000
1FFC00
3FFE00
7FFF00
7C1F00
F80F00
F80F80
F00F00
001F00
003F00
00FE00
03FC00
0FF800
1FE000
3F8000
7E0000
7C0000
780000
FFFF00
FFFF00
FFFF00
FFFF00
ENDCHAR
STARTCHAR uni00B3
ENCODING 179
SWIDTH 425 0
DWIDTH 20 0
BBX 18 22 1 18
BITMAP
07F800
1FFE00
3FFF00
7FFF80
7C0F80
780780
780F80
000F80
001F80
01FF00
01FC00
01FE00
01FF80
000F80
0007C0
F807C0
7807C0
7C0FC0
7E1F80
3FFF80
1FFF00
0FFC00
ENDCHAR
STARTCHAR acute
ENCODING 180
SWIDTH 264 0
DWIDTH 13 0
BBX 12 7 0 28
BITMAP
07F0
0FE0
0FC0
1F80
3F00
7E00
FC00
ENDCHAR
STARTCHAR uni00B5
ENCODING 181
SWIDTH 604 0
DWIDTH 29 0
BBX 23 33 3 -8
BITMAP
FE00FE
FE00FE
FE00FE
FE00FE
FE00FE
FE00FE
FE00FE
FE00FE
FE00FE
FE00FE
FE00FE
FE00FE
FE00FE
FE00FE
FE00FE
FE00FE
FE01FE
FF03FE
FFCFFE
FFFFFE
FFFFFE
FFFEFE
FFFCFE
FFF0FE
FE00FE
FE0000
FE0000
FE0000
FE0000
FE0000
FE0000
FE0000
FE0000
ENDCHAR
STARTCHAR paragraph
ENCODING 182
SWIDTH 599 0
DWIDTH 29 0
BBX 24 39 2 -4
BITMAP
007FFF
07FFFF
0FFFFF
1FFFFF
3FFC78
7FFC78
7FFC78
FFFC78
FFFC78
FFFC78
FFFC78
FFFC78
FFFC78
FFFC78
FFFC78
7FFC78
3FFC78
3FFC78
0FFC78
07FC78
007C78
003C78
003C78
003C78
003C78
003C78
003C78
003C78
003C78
003C78
003C78
003C78
003C78
003C78
003C78
003C78
003C78
003C78
003C78
ENDCHAR
STARTCHAR periodcentered
ENCODING 183
SWIDTH 259 0
DWIDTH 12 0
BBX 8 7 2 14
BITMAP
FF
FF
FF
FF
FF
FF
FF
ENDCHAR
STARTCHAR cedilla
ENCODING 184
SWIDTH 273 0
DWIDTH 13 0
BBX 11 10 1 -10
BITMAP
0E00
1E00
1C00
3F80
07C0
01E0
01E0
E7E0
FFC0
7F80
ENDCHAR
STARTCHAR uni00B9
ENCODING 185
SWIDTH 256 0
DWIDTH 12 0
BBX 8 22 1 18
BITMAP
07
07
0F
FF
FF
FF
0F
0F
0F
0F
0F
0F
0F
0F
0F
0F
0F
0F
0F
0F
0F
0F
ENDCHAR
STARTCHAR ordmasculine
ENCODING 186
SWIDTH 403 0
DWIDTH 19 0
BBX 16 16 2 19
BITMAP
0FE0
1FF8
3FFC
7C3C
F83E
F81E
F81E
F01F
F01F
F81E
F81E
F83E
7C7C
3FFC
1FF0
07E0
ENDCHAR
STARTCHAR guillemotright
ENCODING 187
SWIDTH 511 0
DWIDTH 25 0
BBX 18 18 3 3
BITMAP
F07800
783C00
783E00
3C1E00
3E1F00
3E0F00
1F0F80
1F0FC0
0F87C0
0F87C0
1F0F80
1F0F80
3E1F00
3C1F00
7C1E00
783C00
783C00
F07800
ENDCHAR
STARTCHAR onequarter
ENCODING 188
SWIDTH 831 0
DWIDTH 40 0
BBX 38 35 1 0
BITMAP
0700001F00
0700001E00
0F00003C00
FF00007C00
FF00007800
FF0000F000
0F0001F000
0F0001E000
0F0003C000
0F0007C000
0F00078000
0F000F0000
0F001F0000
0F001E03E0
0F003C07E0
0F007C0FE0
0F00780FE0
0F00F01FE0
0F01F03FE0
0F01E07FE0
0F03C07BE0
0F07C0F3E0
000781E3E0
000F03E3E0
001F03C3E0
001E0783E0
003C0FFFFC
007C0FFFFC
00780FFFFC
00F00FFFFC
01F00003E0
01E00003E0
03C00003E0
07C00003E0
0F800003E0
ENDCHAR
STARTCHAR onehalf
ENCODING 189
SWIDTH 901 0
DWIDTH 43 0
BBX 41 35 1 0
BITMAP
0700001F0000
0700001E0000
0F00003C0000
FF00007C0000
FF0000780000
FF0000F00000
0F0001F00000
0F0001E00000
0F0003C00000
0F0007C00000
0F0007800000
0F000F000000
0F001F000000
0F001E07F800
0F003C1FFE00
0F007C3FFF00
0F00787FFF00
0F00F07C1F80
0F01F0780F80
0F01E0F80F80
0F03C0000F80
0F07C0001F80
000780003F00
000F0000FF00
001F0003FE00
001E0007F800
003C001FE000
007C003F8000
0078003E0000
00F0007C0000
01F0007C0000
01E0007FFF80
03C0007FFF80
07C0007FFF80
0F80007FFF80
ENDCHAR
STARTCHAR threequarters
ENCODING 190
SWIDTH 959 0
DWIDTH 46 0
BBX 44 35 1 0
BITMAP
07F800003C00
1FFE00007800
3FFF0000F000
7FFF8000F000
7C0F8001E000
78078003C000
780F8003C000
000F80078000
001F800F0000
01FF000F0000
01FC001E0000
01FE003C0000
01FF803C0000
000F80780F80
0007C0F01F80
F807C0F01F80
7807C1E03F80
7C0FC3C07F80
7E1F83C0FF80
3FFF8780FF80
1FFF0F01EF80
0FFC0F03CF80
00001E078F80
00003C078F80
00003C0F0F80
0000781E0F80
0000F03FFFF0
0000F03FFFF0
0001E03FFFF0
0003C03FFFF0
0003C0000F80
000780000F80
000F80000F80
000F00000F80
001E00000F80
ENDCHAR
STARTCHAR questiondown
ENCODING 191
SWIDTH 543 0
DWIDTH 26 0
BBX 23 33 2 -8
BITMAP
00FF00
00FF00
00FF00
00FF00
00FF00
00FF00
00FF00
00FF00
000000
000000
000000
007C00
007C00
00FC00
01FC00
01F800
07F800
0FF000
1FE000
3FC000
7F8000
FF0000
FE0000
FE0000
FE0070
FE00FE
FE01FE
FF03FC
FFFFF8
7FFFF8
3FFFE0
1FFFC0
03FF00
ENDCHAR
STARTCHAR Agrave
ENCODING 192
SWIDTH 726 0
DWIDTH 35 0
BBX 33 45 1 0
BITMAP
01FC000000
00FE000000
007F000000
003F000000
001F800000
000FC00000
0007E00000
0000000000
0000000000
0000000000
0007F00000
000FF80000
000FF80000
000FF80000
001FFC0000
001FFC0000
003FFC0000
003F7E0000
003F7E0000
007F7E0000
007E3F0000
007E3F0000
00FE3F8000
00FC1F8000
00FC1F8000
01FC1FC000
01F80FC000
01F80FC000
03F80FE000
03F007E000
07F007E000
07FFFFF000
07FFFFF000
0FFFFFF000
0FFFFFF800
0FFFFFF800
1FFFFFFC00
1FC001FC00
1FC001FC00
3F8000FE00
3F8000FE00
3F8000FE00
7F00007F00
7F00007F00
FF00007F80
ENDCHAR
STARTCHAR Aacute
ENCODING 193
SWIDTH 726 0
DWIDTH 35 0
BBX 33 45 1 0
BITMAP
00001FC000
00003F8000
00007F0000
0000FE0000
0000FC0000
0001F80000
0003F00000
0000000000
0000000000
0000000000
0007F00000
000FF80000
000FF80000
000FF80000
001FFC0000
001FFC0000
003FFC0000
003F7E0000
003F7E0000
007F7E0000
007E3F0000
007E3F0000
00FE3F8000
00FC1F8000
00FC1F8000
01FC1FC000
01F80FC000
01F80FC000
03F80FE000
03F007E000
07F007E000
07FFFFF000
07FFFFF000
0FFFFFF000
0FFFFFF800
0FFFFFF800
1FFFFFFC00
1FC001FC00
1FC001FC00
3F8000FE00
3F8000FE00
3F8000FE00
7F00007F00
7F00007F00
FF00007F80
ENDCHAR
STARTCHAR Acircumflex
ENCODING 194
SWIDTH 726 0
DWIDTH 35 0
BBX 33 44 1 0
BITMAP
0003E00000
0007F00000
001FF80000
003F7C0000
007E3E0000
00FC1F0000
0000008000
0000000000
0000000000
0007F00000
000FF80000
000FF80000
000FF80000
001FFC0000
001FFC0000
003FFC0000
003F7E0000
003F7E0000
007F7E0000
007E3F0000
007E3F0000
00FE3F8000
00FC1F8000
00FC1F8000
01FC1FC000
01F80FC000
01F80FC000
03F80FE000
03F007E000
07F007E000
07FFFFF000
07FFFFF000
0FFFFFF000
0FFFFFF800
0FFFFFF800
1FFFFFFC00
1FC001FC00
1FC001FC00
3F8000FE00
3F8000FE00
3F8000FE00
7F00007F00
7F00007F00
FF00007F80
ENDCHAR
STARTCHAR Atilde
ENCODING 195
SWIDTH 726 0
DWIDTH 35 0
BBX 33 45 1 0
BITMAP
0000010000
003F830000
007FFF0000
00FFFF8000
007FFF8000
0060FE0000
0000000000
0000000000
0000000000
0000000000
0007F00000
000FF80000
000FF80000
000FF80000
001FFC0000
001FFC0000
003FFC0000
003F7E0000
003F7E0000
007F7E0000
007E3F0000
007E3F0000
00FE3F8000
00FC1F8000
00FC1F8000
01FC1FC000
01F80FC000
01F80FC000
03F80FE000
03F007E000
07F007E000
07FFFFF000
07FFFFF000
0FFFFFF000
0FFFFFF800
0FFFFFF800
1FFFFFFC00
1FC001FC00
1FC001FC00
3F8000FE00
3F8000FE00
3F8000FE00
7F00007F00
7F00007F00
FF00007F80
ENDCHAR
STARTCHAR Adieresis
ENCODING 196
SWIDTH 726 0
DWIDTH 35 0
BBX 33 45 1 0
BITMAP
00FC1F8000
00FC1F8000
00FC1F8000
00FC1F8000
00FC1F8000
00FC1F8000
0000000000
0000000000
0000000000
0000000000
0007F00000
000FF80000
000FF80000
000FF80000
001FFC0000
001FFC0000
003FFC0000
003F7E0000
003F7E0000
007F7E0000
007E3F0000
007E3F0000
00FE3F8000
00FC1F8000
00FC1F8000
01FC1FC000
01F80FC000
01F80FC000
03F80FE000
03F007E000
07F007E000
07FFFFF000
07FFFFF000
0FFFFFF000
0FFFFFF800
0FFFFFF800
1FFFFFFC00
1FC001FC00
1FC001FC00
3F8000FE00
3F8000FE00
3F8000FE00
7F00007F00
7F00007F00
FF00007F80
ENDCHAR
STARTCHAR Aring
ENCODING 197
SWIDTH 726 0
DWIDTH 35 0
BBX 33 47 1 0
BITMAP
0003E00000
0007F00000
000FF80000
001C380000
001C1C0000
001C1C0000
001E380000
000FF80000
0007F00000
0003E00000
0000000000
0000000000
0007F00000
000FF80000
000FF80000
000FF80000
001FFC0000
001FFC0000
003FFC0000
003F7E0000
003F7E0000
007F7E0000
007E3F0000
007E3F0000
00FE3F8000
00FC1F8000
00FC1F8000
01FC1FC000
01F80FC000
01F80FC000
03F80FE000
03F007E000
07F007E000
07FFFFF000
07FFFFF000
0FFFFFF000
0FFFFFF800
0FFFFFF800
1FFFFFFC00
1FC001FC00
1FC001FC00
3F8000FE00
3F8000FE00
3F8000FE00
7F00007F00
7F00007F00
FF00007F80
ENDCHAR
STARTCHAR AE
ENCODING 198
SWIDTH 1040 0
DWIDTH 50 0
BBX 47 35 0 0
BITMAP
00003FFFFFFE
00003FFFFFFE
00007FFFFFFE
00007FFFFFFE
0000FFFFFFFE
0000FFFFFFFE
0001FFFC0000
0001FBFC0000
0003FBFC0000
0003F3FC0000
0007E3FC0000
0007E3FC0000
000FC3FC0000
001FC3FC0000
001F83FC0000
003F83FFFFF8
003F03FFFFF8
007F03FFFFF8
007E03FFFFF8
00FE03FFFFF8
00FC03FC0000
01FFFFFC0000
01FFFFFC0000
03FFFFFC0000
03FFFFFC0000
07FFFFFC0000
07FFFFFC0000
0FE003FC0000
1FC003FC0000
1FC003FFFFFE
3F8003FFFFFE
3F8003FFFFFE
7F0003FFFFFE
7F0003FFFFFE
FE0003FFFFFE
ENDCHAR
STARTCHAR Ccedilla
ENCODING 199
SWIDTH 718 0
DWIDTH 34 0
BBX 30 45 2 -10
BITMAP
001FF800
00FFFE00
01FFFF80
07FFFFC0
0FFFFFE0
0FFFFFF0
1FF01FF0
3FE007F8
3FC003F8
3F8003FC
7F8003FC
7F8001FC
7F000000
7F000000
FF000000
FF000000
FF000000
FF000000
FF000000
FF000000
FF000000
7F000000
7F000000
7F8001FC
7F8003FC
3F8003FC
3FC007F8
3FE007F8
1FF00FF8
0FFC3FF0
07FFFFE0
07FFFFE0
01FFFFC0
00FFFF00
003FFC00
0003C000
00038000
00078000
0007F000
0001F800
00007800
00007C00
001CF800
003FF800
000FE000
ENDCHAR
STARTCHAR Egrave
ENCODING 200
SWIDTH 634 0
DWIDTH 30 0
BBX 24 45 4 0
BITMAP
3FC000
1FC000
0FE000
07F000
03F000
01F800
00FC00
000000
000000
000000
FFFFFF
FFFFFF
FFFFFF
FFFFFF
FFFFFF
FFFFFF
FE0000
FE0000
FE0000
FE0000
FE0000
FE0000
FE0000
FE0000
FE0000
FFFFF8
FFFFF8
FFFFF8
FFFFF8
FFFFF8
FE0000
FE0000
FE0000
FE0000
FE0000
FE0000
FE0000
FE0000
FE0000
FFFFFF
FFFFFF
FFFFFF
FFFFFF
FFFFFF
FFFFFF
ENDCHAR
STARTCHAR Eacute
ENCODING 201
SWIDTH 634 0
DWIDTH 30 0
BBX 24 45 4 0
BITMAP
0003F8
0007F0
0007E0
000FC0
001F80
003F00
003E00
004000
000000
000000
FFFFFF
FFFFFF
FFFFFF
FFFFFF
FFFFFF
FFFFFF
FE0000
FE0000
FE0000
FE0000
FE0000
FE0000
FE0000
FE0000
FE0000
FFFFF8
FFFFF8
FFFFF8
FFFFF8
FFFFF8
FE0000
FE0000
FE0000
FE0000
FE0000
FE0000
FE0000
FE0000
FE0000
FFFFFF
FFFFFF
FFFFFF
FFFFFF
FFFFFF
FFFFFF
ENDCHAR
STARTCHAR Ecircumflex
ENCODING 202
SWIDTH 634 0
DWIDTH 30 0
BBX 24 44 4 0
BITMAP
007E00
00FF00
01FF80
03EFC0
07C7E0
0F83F0
100000
000000
000000
FFFFFF
FFFFFF
FFFFFF
FFFFFF
FFFFFF
FFFFFF
FE0000
FE0000
FE0000
FE0000
FE0000
FE0000
FE0000
FE0000
FE0000
FFFFF8
FFFFF8
FFFFF8
FFFFF8
FFFFF8
FE0000
FE0000
FE0000
FE0000
FE0000
FE0000
FE0000
FE0000
FE0000
FFFFFF
FFFFFF
FFFFFF
FFFFFF
FFFFFF
FFFFFF
ENDCHAR
STARTCHAR Edieresis
ENCODING 203
SWIDTH 634 0
DWIDTH 30 0
BBX 24 45 4 0
BITMAP
1FC3F8
1FC3F8
1FC3F8
1FC3F8
1FC3F8
1FC3F8
000000
000000
000000
000000
FFFFFF
FFFFFF
FFFFFF
FFFFFF
FFFFFF
FFFFFF
FE0000
FE0000
FE0000
FE0000
FE0000
FE0000
FE0000
FE0000
FE0000
FFFFF8
FFFFF8
FFFFF8
FFFFF8
FFFFF8
FE0000
FE0000
FE0000
FE0000
FE0000
FE0000
FE0000
FE0000
FE0000
FFFFFF
FFFFFF
FFFFFF
FFFFFF
FFFFFF
FFFFFF
ENDCHAR
STARTCHAR Igrave
ENCODING 204
SWIDTH 307 0
DWIDTH 15 0
BBX 13 45 -2 0
BITMAP
FE00
7F00
3F80
1F80
0FC0
07E0
03E0
0010
0000
0000
03F8
03F8
03F8
03F8
03F8
03F8
03F8
03F8
03F8
03F8
03F8
03F8
03F8
03F8
03F8
03F8
03F8
03F8
03F8
03F8
03F8
03F8
03F8
03F8
03F8
03F8
03F8
03F8
03F8
03F8
03F8
03F8
03F8
03F8
03F8
ENDCHAR
STARTCHAR Iacute
ENCODING 205
SWIDTH 307 0
DWIDTH 15 0
BBX 13 45 4 0
BITMAP
03F8
07F0
0FE0
1FC0
1F80
3F00
7E00
0000
0000
0000
FE00
FE00
FE00
FE00
FE00
FE00
FE00
FE00
FE00
FE00
FE00
FE00
FE00
FE00
FE00
FE00
FE00
FE00
FE00
FE00
FE00
FE00
FE00
FE00
FE00
FE00
FE00
FE00
FE00
FE00
FE00
FE00
FE00
FE00
FE00
ENDCHAR
STARTCHAR Icircumflex
ENCODING 206
SWIDTH 307 0
DWIDTH 15 0
BBX 17 44 -1 0
BITMAP
03E000
07F000
1FF800
3F7C00
7E3E00
FC1F00
000080
000000
000000
07F000
07F000
07F000
07F000
07F000
07F000
07F000
07F000
07F000
07F000
07F000
07F000
07F000
07F000
07F000
07F000
07F000
07F000
07F000
07F000
07F000
07F000
07F000
07F000
07F000
07F000
07F000
07F000
07F000
07F000
07F000
07F000
07F000
07F000
07F000
ENDCHAR
STARTCHAR Idieresis
ENCODING 207
SWIDTH 307 0
DWIDTH 15 0
BBX 18 45 -2 0
BITMAP
7E0FC0
7E0FC0
7E0FC0
7E0FC0
FE0FC0
FE0FC0
000000
000000
000000
000000
03F800
03F800
03F800
03F800
03F800
03F800
03F800
03F800
03F800
03F800
03F800
03F800
03F800
03F800
03F800
03F800
03F800
03F800
03F800
03F800
03F800
03F800
03F800
03F800
03F800
03F800
03F800
03F800
03F800
03F800
03F800
03F800
03F800
03F800
03F800
ENDCHAR
STARTCHAR Eth
ENCODING 208
SWIDTH 749 0
DWIDTH 36 0
BBX 32 35 2 0
BITMAP
1FFF0000
1FFFF800
1FFFFF00
1FFFFF80
1FFFFFE0
1FFFFFF0
1FC03FF8
1FC00FF8
1FC007FC
1FC003FC
1FC001FE
1FC001FE
1FC000FE
1FC000FE
1FC000FE
FFFF80FF
FFFF80FF
FFFF80FF
FFFF80FF
FFFF80FF
1FC000FE
1FC000FE
1FC000FE
1FC001FE
1FC001FE
1FC003FC
1FC007FC
1FC00FF8
1FC03FF8
1FFFFFF0
1FFFFFE0
1FFFFFC0
1FFFFF00
1FFFFC00
1FFFE000
ENDCHAR
STARTCHAR Ntilde
ENCODING 209
SWIDTH 782 0
DWIDTH 38 0
BBX 30 45 4 0
BITMAP
00000200
00FF0E00
01FFFE00
01FFFE00
01FFFE00
0181FC00
00000000
00000000
00000000
00000000
FE0001FC
FF0001FC
FF0001FC
FF8001FC
FFC001FC
FFC001FC
FFE001FC
FFF001FC
FFF001FC
FFF801FC
FFFC01FC
FFFE01FC
FEFE01FC
FE7F01FC
FE7F81FC
FE3F81FC
FE1FC1FC
FE1FE1FC
FE0FE1FC
FE07F1FC
FE07F9FC
FE03F9FC
FE01FDFC
FE01FFFC
FE00FFFC
FE007FFC
FE007FFC
FE003FFC
FE001FFC
FE000FFC
FE000FFC
FE0007FC
FE0003FC
FE0003FC
FE0001FC
ENDCHAR
STARTCHAR Ograve
ENCODING 210
SWIDTH 760 0
DWIDTH 37 0
BBX 32 45 2 0
BITMAP
01FC0000
00FE0000
007E0000
003F0000
001F8000
000F8000
0007C000
00002000
00000000
00000000
001FF800
007FFF00
01FFFF80
03FFFFE0
07FFFFF0
0FFFFFF8
1FF00FF8
1FE007FC
3FC003FC
3FC001FE
7F8001FE
7F8000FE
7F8000FF
7F0000FF
FF0000FF
FF0000FF
FF00007F
FF00007F
FF00007F
FF00007F
FF0000FF
7F0000FF
7F0000FF
7F8000FF
7F8000FE
7F8001FE
3FC001FE
3FE003FC
1FF007FC
0FFE3FF8
0FFFFFF0
07FFFFE0
01FFFFC0
00FFFF80
003FFC00
ENDCHAR
STARTCHAR Oacute
ENCODING 211
SWIDTH 760 0
DWIDTH 37 0
BBX 32 45 2 0
BITMAP
00003FC0
00003F80
00007F00
0000FE00
0000FC00
0001F800
0003F000
00000000
00000000
00000000
001FF800
007FFF00
01FFFF80
03FFFFE0
07FFFFF0
0FFFFFF8
1FF00FF8
1FE007FC
3FC003FC
3FC001FE
7F8001FE
7F8000FE
7F8000FF
7F0000FF
FF0000FF
FF0000FF
FF00007F
FF00007F
FF00007F
FF00007F
FF0000FF
7F0000FF
7F0000FF
7F8000FF
7F8000FE
7F8001FE
3FC001FE
3FE003FC
1FF007FC
0FFE3FF8
0FFFFFF0
07FFFFE0
01FFFFC0
00FFFF80
003FFC00
ENDCHAR
STARTCHAR Ocircumflex
ENCODING 212
SWIDTH 760 0
DWIDTH 37 0
BBX 32 44 2 0
BITMAP
0007E000
000FF000
001FF800
003F7C00
007E3E00
00FC1F00
00000080
00000000
00000000
001FF800
007FFF00
01FFFF80
03FFFFE0
07FFFFF0
0FFFFFF8
1FF00FF8
1FE007FC
3FC003FC
3FC001FE
7F8001FE
7F8000FE
7F8000FF
7F0000FF
FF0000FF
FF0000FF
FF00007F
FF00007F
FF00007F
FF00007F
FF0000FF
7F0000FF
7F0000FF
7F8000FF
7F8000FE
7F8001FE
3FC001FE
3FE003FC
1FF007FC
0FFE3FF8
0FFFFFF0
07FFFFE0
01FFFFC0
00FFFF80
003FFC00
ENDCHAR
STARTCHAR Otilde
ENCODING 213
SWIDTH 760 0
DWIDTH 37 0
BBX 32 45 2 0
BITMAP
00000100
003F8300
00FFFF00
00FFFF00
007FFF80
0060FE00
00000000
00000000
00000000
00000000
001FF800
007FFF00
01FFFF80
03FFFFE0
07FFFFF0
0FFFFFF8
1FF00FF8
1FE007FC
3FC003FC
3FC001FE
7F8001FE
7F8000FE
7F8000FF
7F0000FF
FF0000FF
FF0000FF
FF00007F
FF00007F
FF00007F
FF00007F
FF0000FF
7F0000FF
7F0000FF
7F8000FF
7F8000FE
7F8001FE
3FC001FE
3FE003FC
1FF007FC
0FFE3FF8
0FFFFFF0
07FFFFE0
01FFFFC0
00FFFF80
003FFC00
ENDCHAR
STARTCHAR Odieresis
ENCODING 214
SWIDTH 760 0
DWIDTH 37 0
BBX 32 45 2 0
BITMAP
01FC1F80
01FC1F80
01FC1F80
01FC1F80
01FC1F80
01FC1F80
00000000
00000000
00000000
00000000
001FF800
007FFF00
01FFFF80
03FFFFE0
07FFFFF0
0FFFFFF8
1FF00FF8
1FE007FC
3FC003FC
3FC001FE
7F8001FE
7F8000FE
7F8000FF
7F0000FF
FF0000FF
FF0000FF
FF00007F
FF00007F
FF00007F
FF00007F
FF0000FF
7F0000FF
7F0000FF
7F8000FF
7F8000FE
7F8001FE
3FC001FE
3FE003FC
1FF007FC
0FFE3FF8
0FFFFFF0
07FFFFE0
01FFFFC0
00FFFF80
003FFC00
ENDCHAR
STARTCHAR multiply
ENCODING 215
SWIDTH 576 0
DWIDTH 28 0
BBX 22 23 3 6
BITMAP
000020
300060
7800F0
FC01F8
FE03FC
7F07F0
3F8FE0
1FDFC0
0FFF80
07FF00
03FE00
01FC00
03FE00
07FF00
0FFF80
1FDFC0
3F8FE0
7F07F0
FE03FC
FC01F8
7800F0
300060
100020
ENDCHAR
STARTCHAR Oslash
ENCODING 216
SWIDTH 776 0
DWIDTH 37 0
BBX 35 36 1 -1
BITMAP
000FFC0180
003FFF83C0
00FFFFE7E0
01FFFFFFC0
03FFFFFF80
07FF1FFF00
0FFC07FF00
0FF001FE00
1FF001FF00
1FE003FF00
1FE007FF00
3FE00FFF80
3FC01FFF80
3FC01FFF80
3FC03E7F80
3FC07E7F80
7FC0FC7F80
7FC1F87F80
7FC3F07F80
3FC7E07F80
3FCFC07F80
3FDF807F80
3FFF00FF80
3FFE00FF80
3FFC00FF00
1FF800FF00
1FF001FF00
0FF001FE00
0FF803FE00
1FFE0FFC00
3FFFFFF800
7FFFFFF000
FCFFFFE000
787FFFC000
301FFE0000
1000000000
ENDCHAR
STARTCHAR Ugrave
ENCODING 217
SWIDTH 724 0
DWIDTH 35 0
BBX 28 45 4 0
BITMAP
0FE00000
07F00000
03F80000
01FC0000
00FC0000
007E0000
003F0000
00000000
00000000
00000000
FE0007F0
FE0007F0
FE0007F0
FE0007F0
FE0007F0
FE0007F0
FE0007F0
FE0007F0
FE0007F0
FE0007F0
FE0007F0
FE0007F0
FE0007F0
FE0007F0
FE0007F0
FE0007F0
FE0007F0
FE0007F0
FE0007F0
FE0007F0
FE0007F0
FE0007F0
FE0007F0
FE000FF0
FE000FE0
FF000FE0
FF000FE0
7F801FE0
7FC03FE0
7FFFFFC0
3FFFFF80
1FFFFF80
0FFFFF00
07FFFC00
01FFF000
ENDCHAR
STARTCHAR Uacute
ENCODING 218
SWIDTH 724 0
DWIDTH 35 0
BBX 28 45 4 0
BITMAP
0000FE00
0001FC00
0001F800
0003F000
0007E000
000FC000
000F8000
00100000
00000000
00000000
FE0007F0
FE0007F0
FE0007F0
FE0007F0
FE0007F0
FE0007F0
FE0007F0
FE0007F0
FE0007F0
FE0007F0
FE0007F0
FE0007F0
FE0007F0
FE0007F0
FE0007F0
FE0007F0
FE0007F0
FE0007F0
FE0007F0
FE0007F0
FE0007F0
FE0007F0
FE0007F0
FE000FF0
FE000FE0
FF000FE0
FF000FE0
7F801FE0
7FC03FE0
7FFFFFC0
3FFFFF80
1FFFFF80
0FFFFF00
07FFFC00
01FFF000
ENDCHAR
STARTCHAR Ucircumflex
ENCODING 219
SWIDTH 724 0
DWIDTH 35 0
BBX 28 44 4 0
BITMAP
001F8000
003FC000
007FE000
00FBF000
01F1F800
03E0FC00
04000000
00000000
00000000
FE0007F0
FE0007F0
FE0007F0
FE0007F0
FE0007F0
FE0007F0
FE0007F0
FE0007F0
FE0007F0
FE0007F0
FE0007F0
FE0007F0
FE0007F0
FE0007F0
FE0007F0
FE0007F0
FE0007F0
FE0007F0
FE0007F0
FE0007F0
FE0007F0
FE0007F0
FE0007F0
FE000FF0
FE000FE0
FF000FE0
FF000FE0
7F801FE0
7FC03FE0
7FFFFFC0
3FFFFF80
1FFFFF80
0FFFFF00
07FFFC00
01FFF000
ENDCHAR
STARTCHAR Udieresis
ENCODING 220
SWIDTH 724 0
DWIDTH 35 0
BBX 28 45 4 0
BITMAP
07F0FE00
07F0FE00
07E0FE00
07E0FE00
07E0FE00
07E0FE00
00000000
00000000
00000000
00000000
FE0007F0
FE0007F0
FE0007F0
FE0007F0
FE0007F0
FE0007F0
FE0007F0
FE0007F0
FE0007F0
FE0007F0
FE0007F0
FE0007F0
FE0007F0
FE0007F0
FE0007F0
FE0007F0
FE0007F0
FE0007F0
FE0007F0
FE0007F0
FE0007F0
FE0007F0
FE0007F0
FE000FF0
FE000FE0
FF000FE0
FF000FE0
7F801FE0
7FC03FE0
7FFFFFC0
3FFFFF80
1FFFFF80
0FFFFF00
07FFFC00
01FFF000
ENDCHAR
STARTCHAR Yacute
ENCODING 221
SWIDTH 667 0
DWIDTH 32 0
BBX 32 45 0 0
BITMAP
00001FC0
00003F80
00003F00
00007E00
0000FC00
0001F800
0001F000
00020000
00000000
00000000
FF0000FF
7F8001FE
3F8001FC
3FC003FC
1FC003F8
0FE007F0
0FF00FF0
07F00FE0
07F81FE0
03F81FC0
01FC3F80
01FC3F80
00FE7F00
00FF7F00
007FFE00
003FFC00
003FFC00
001FF800
001FF800
000FF000
000FF000
000FF000
000FF000
000FF000
000FF000
000FF000
000FF000
000FF000
000FF000
000FF000
000FF000
000FF000
000FF000
000FF000
000FF000
ENDCHAR
STARTCHAR Thorn
ENCODING 222
SWIDTH 680 0
DWIDTH 33 0
BBX 27 35 4 0
BITMAP
FE000000
FE000000
FE000000
FE000000
FE000000
FE000000
FE000000
FFFFE000
FFFFFC00
FFFFFF00
FFFFFF80
FFFFFFC0
FFFFFFC0
FE003FE0
FE001FE0
FE000FE0
FE000FE0
FE000FE0
FE000FE0
FE000FE0
FE001FE0
FE007FC0
FFFFFFC0
FFFFFF80
FFFFFF00
FFFFFE00
FFFFF800
FFFFC000
FE000000
FE000000
FE000000
FE000000
FE000000
FE000000
FE000000
ENDCHAR
STARTCHAR germandbls
ENCODING 223
SWIDTH 627 0
DWIDTH 30 0
BBX 25 35 3 0
BITMAP
007E0000
03FFC000
0FFFF000
1FFFF800
3FFFF800
7F83FC00
7F01FC00
7E00FC00
FE01FC00
FE01FC00
FE03F800
FE07F000
FE0FE000
FE1F8000
FE3E0000
FE7C0000
FE7E0000
FE7F8000
FE7FE000
FE7FF800
FE3FFC00
FE1FFE00
FE0FFF00
FE03FF80
FE007F80
FE003F80
FE001F80
FE001F80
FE001F80
FE003F80
FE387F80
FE3FFF00
FE7FFE00
FE7FFC00
FE3FF000
ENDCHAR
STARTCHAR agrave
ENCODING 224
SWIDTH 566 0
DWIDTH 27 0
BBX 23 35 2 0
BITMAP
3FC000
0FC000
07E000
03F000
01F800
00F800
007C00
000200
000000
000000
01FFC0
0FFFF0
1FFFF8
3FFFFC
3FE7FC
7F01FC
7E00FC
7E00FC
0000FE
0007FE
07FFFE
1FFFFE
3FFFFE
7FC0FE
7F00FE
FE00FE
FE00FE
FE00FE
FE01FE
FE03FE
FF87FE
7FFFFE
7FFEFE
3FFCFE
0FF87E
ENDCHAR
STARTCHAR aacute
ENCODING 225
SWIDTH 566 0
DWIDTH 27 0
BBX 23 35 2 0
BITMAP
0003FC
0003F0
0007E0
000FC0
001F80
001F00
003E00
004000
000000
000000
01FFC0
0FFFF0
1FFFF8
3FFFFC
3FE7FC
7F01FC
7E00FC
7E00FC
0000FE
0007FE
07FFFE
1FFFFE
3FFFFE
7FC0FE
7F00FE
FE00FE
FE00FE
FE00FE
FE01FE
FE03FE
FF87FE
7FFFFE
7FFEFE
3FFCFE
0FF87E
ENDCHAR
STARTCHAR acircumflex
ENCODING 226
SWIDTH 566 0
DWIDTH 27 0
BBX 23 34 2 0
BITMAP
007E00
00FF00
01FF80
03E7C0
07C3E0
0F83F0
100008
000000
000000
01FFC0
0FFFF0
1FFFF8
3FFFFC
3FE7FC
7F01FC
7E00FC
7E00FC
0000FE
0007FE
07FFFE
1FFFFE
3FFFFE
7FC0FE
7F00FE
FE00FE
FE00FE
FE00FE
FE01FE
FE03FE
FF87FE
7FFFFE
7FFEFE
3FFCFE
0FF87E
ENDCHAR
STARTCHAR atilde
ENCODING 227
SWIDTH 566 0
DWIDTH 27 0
BBX 23 35 2 0
BITMAP
000010
07F830
0FFFF0
0FFFF0
0FFFF0
040FE0
000000
000000
000000
000000
01FFC0
0FFFF0
1FFFF8
3FFFFC
3FE7FC
7F01FC
7E00FC
7E00FC
0000FE
0007FE
07FFFE
1FFFFE
3FFFFE
7FC0FE
7F00FE
FE00FE
FE00FE
FE00FE
FE01FE
FE03FE
FF87FE
7FFFFE
7FFEFE
3FFCFE
0FF87E
ENDCHAR
STARTCHAR adieresis
ENCODING 228
SWIDTH 566 0
DWIDTH 27 0
BBX 23 35 2 0
BITMAP
1FC3F8
1FC3F8
1FC3F8
1FC3F8
1FC3F8
1FC3F8
000000
000000
000000
000000
01FFC0
0FFFF0
1FFFF8
3FFFFC
3FE7FC
7F01FC
7E00FC
7E00FC
0000FE
0007FE
07FFFE
1FFFFE
3FFFFE
7FC0FE
7F00FE
FE00FE
FE00FE
FE00FE
FE01FE
FE03FE
FF87FE
7FFFFE
7FFEFE
3FFCFE
0FF87E
ENDCHAR
STARTCHAR aring
ENCODING 229
SWIDTH 566 0
DWIDTH 27 0
BBX 23 37 2 0
BITMAP
007E00
00FF00
01FF80
01C380
01C380
01C380
01C380
00FF80
00FF00
003E00
000000
000000
01FFC0
0FFFF0
1FFFF8
3FFFFC
3FE7FC
7F01FC
7E00FC
7E00FC
0000FE
0007FE
07FFFE
1FFFFE
3FFFFE
7FC0FE
7F00FE
FE00FE
FE00FE
FE00FE
FE01FE
FE03FE
FF87FE
7FFFFE
7FFEFE
3FFCFE
0FF87E
ENDCHAR
STARTCHAR ae
ENCODING 230
SWIDTH 913 0
DWIDTH 44 0
BBX 40 25 2 0
BITMAP
01FF80FF80
07FFE3FFE0
1FFFF7FFF0
3FFFFFFFF8
3FE7FFFFFC
7F01FF81FC
7E00FF00FE
7E00FF007E
0000FE007E
0007FE007F
03FFFFFFFF
1FFFFFFFFF
3FFFFFFFFF
7FC0FFFFFF
7F00FE0000
FE00FE0000
FE00FE0000
FE00FF007F
FE01FF007E
FE03FF80FE
FF87FFFFFE
7FFFDFFFFC
7FFF8FFFF8
3FFF07FFF0
0FFC01FFC0
ENDCHAR
STARTCHAR ccedilla
ENCODING 231
SWIDTH 547 0
DWIDTH 26 0
BBX 22 35 2 -10
BITMAP
01FF00
07FFC0
0FFFE0
1FFFF0
3FFFF8
3FC3F8
7F01FC
7E00FC
FE00FC
FE0000
FE0000
FC0000
FC0000
FC0000
FC0000
FE0000
FE00FC
FE00FC
7F00FC
7F81F8
3FFFF8
1FFFF0
0FFFE0
07FFC0
01FF80
003800
003800
007000
007F00
001F80
000780
000780
018F80
03FF00
01FE00
ENDCHAR
STARTCHAR egrave
ENCODING 232
SWIDTH 576 0
DWIDTH 28 0
BBX 24 35 2 0
BITMAP
3FC000
0FC000
07E000
03F000
01F800
00F800
007C00
000200
000000
000000
01FF80
07FFE0
0FFFF0
1FFFF8
3FFFFC
3F81FC
7F00FE
7E007E
7E007E
FE007E
FFFFFF
FFFFFF
FFFFFF
FFFFFF
FE0000
FE0000
FE0000
7F007F
7F007E
3F80FE
3FFFFC
1FFFFC
0FFFF8
07FFE0
01FF80
ENDCHAR
STARTCHAR eacute
ENCODING 233
SWIDTH 576 0
DWIDTH 28 0
BBX 24 35 2 0
BITMAP
0003FC
0003F0
0007E0
000FC0
001F80
001F00
003E00
004000
000000
000000
01FF80
07FFE0
0FFFF0
1FFFF8
3FFFFC
3F81FC
7F00FE
7E007E
7E007E
FE007E
FFFFFF
FFFFFF
FFFFFF
FFFFFF
FE0000
FE0000
FE0000
7F007F
7F007E
3F80FE
3FFFFC
1FFFFC
0FFFF8
07FFE0
01FF80
ENDCHAR
STARTCHAR ecircumflex
ENCODING 234
SWIDTH 576 0
DWIDTH 28 0
BBX 24 34 2 0
BITMAP
007E00
00FF00
01FF80
03E7C0
07C3E0
0F83F0
100008
000000
000000
01FF80
07FFE0
0FFFF0
1FFFF8
3FFFFC
3F81FC
7F00FE
7E007E
7E007E
FE007E
FFFFFF
FFFFFF
FFFFFF
FFFFFF
FE0000
FE0000
FE0000
7F007F
7F007E
3F80FE
3FFFFC
1FFFFC
0FFFF8
07FFE0
01FF80
ENDCHAR
STARTCHAR edieresis
ENCODING 235
SWIDTH 576 0
DWIDTH 28 0
BBX 24 35 2 0
BITMAP
1FC3F8
1FC3F8
1FC3F8
1FC3F8
1FC3F8
1FC3F8
000000
000000
000000
000000
01FF80
07FFE0
0FFFF0
1FFFF8
3FFFFC
3F81FC
7F00FE
7E007E
7E007E
FE007E
FFFFFF
FFFFFF
FFFFFF
FFFFFF
FE0000
FE0000
FE0000
7F007F
7F007E
3F80FE
3FFFFC
1FFFFC
0FFFF8
07FFE0
01FF80
ENDCHAR
STARTCHAR igrave
ENCODING 236
SWIDTH 264 0
DWIDTH 13 0
BBX 11 35 -1 0
BITMAP
FE00
7E00
3F00
3F00
1F80
0F80
07C0
0000
0000
0000
0FE0
0FE0
0FE0
0FE0
0FE0
0FE0
0FE0
0FE0
0FE0
0FE0
0FE0
0FE0
0FE0
0FE0
0FE0
0FE0
0FE0
0FE0
0FE0
0FE0
0FE0
0FE0
0FE0
0FE0
0FE0
ENDCHAR
STARTCHAR iacute
ENCODING 237
SWIDTH 264 0
DWIDTH 13 0
BBX 11 35 3 0
BITMAP
0FE0
1FC0
1F80
1F00
3F00
3E00
7C00
0000
0000
0000
FE00
FE00
FE00
FE00
FE00
FE00
FE00
FE00
FE00
FE00
FE00
FE00
FE00
FE00
FE00
FE00
FE00
FE00
FE00
FE00
FE00
FE00
FE00
FE00
FE00
ENDCHAR
STARTCHAR icircumflex
ENCODING 238
SWIDTH 264 0
DWIDTH 13 0
BBX 17 34 -2 0
BITMAP
03E000
07F000
0FF800
1F7C00
3E3E00
FC1F80
000000
000000
000000
07F000
07F000
07F000
07F000
07F000
07F000
07F000
07F000
07F000
07F000
07F000
07F000
07F000
07F000
07F000
07F000
07F000
07F000
07F000
07F000
07F000
07F000
07F000
07F000
07F000
ENDCHAR
STARTCHAR idieresis
ENCODING 239
SWIDTH 384 0
DWIDTH 13 0
BBX 18 35 0 0
BITMAP
FE0FC0
FE0FC0
FE0FC0
FE0FC0
FE1FC0
FE1FC0
000000
000000
000000
000000
03F000
03F000
03F000
03F000
03F000
03F000
03F000
03F000
03F000
03F000
03F000
03F000
03F000
03F000
03F000
03F000
03F000
03F000
03F000
03F000
03F000
03F000
03F000
03F000
03F000
ENDCHAR
STARTCHAR eth
ENCODING 240
SWIDTH 575 0
DWIDTH 28 0
BBX 24 36 2 0
BITMAP
03F000
01F800
00FC3C
007FFC
003FFC
00FFE0
07FFC0
07FFE0
0787E0
0403F0
0003F8
0071F8
03FFFC
0FFFFC
1FFFFC
3FFFFE
3FE7FE
7F81FE
7F00FE
FE00FF
FE007F
FE007F
FE007F
FE007F
FE007F
FE007F
FE007E
FE00FE
FF00FE
7F01FE
7F83FC
3FFFFC
1FFFF8
0FFFF0
07FFE0
01FF80
ENDCHAR
STARTCHAR ntilde
ENCODING 241
SWIDTH 593 0
DWIDTH 28 0
BBX 23 35 3 0
BITMAP
000020
07F060
1FFFF0
0FFFF0
0FFFF0
0C1FC0
000000
000000
000000
000000
FE1F80
FE7FE0
FEFFF8
FFFFF8
FFFFFC
FFEFFC
FF01FE
FE01FE
FE00FE
FE00FE
FE00FE
FE00FE
FE00FE
FE00FE
FE00FE
FE00FE
FE00FE
FE00FE
FE00FE
FE00FE
FE00FE
FE00FE
FE00FE
FE00FE
FE00FE
ENDCHAR
STARTCHAR ograve
ENCODING 242
SWIDTH 575 0
DWIDTH 28 0
BBX 24 35 2 0
BITMAP
3F8000
1FC000
0FE000
07F000
03F000
01F800
00FC00
000000
000000
000000
01FF80
07FFE0
0FFFF0
1FFFF8
3FFFFC
7F83FC
7F01FE
7F00FE
FE00FE
FE007F
FE007F
FE007F
FE007F
FE007F
FE007F
FE007F
FE00FE
FF00FE
7F01FE
7F83FC
3FFFFC
1FFFF8
0FFFF0
07FFE0
01FF80
ENDCHAR
STARTCHAR oacute
ENCODING 243
SWIDTH 575 0
DWIDTH 28 0
BBX 24 35 2 0
BITMAP
0003F8
0007F0
0007E0
000FC0
001F80
003F00
003E00
004000
000000
000000
01FF80
07FFE0
0FFFF0
1FFFF8
3FFFFC
7F83FC
7F01FE
7F00FE
FE00FE
FE007F
FE007F
FE007F
FE007F
FE007F
FE007F
FE007F
FE00FE
FF00FE
7F01FE
7F83FC
3FFFFC
1FFFF8
0FFFF0
07FFE0
01FF80
ENDCHAR
STARTCHAR ocircumflex
ENCODING 244
SWIDTH 575 0
DWIDTH 28 0
BBX 24 34 2 0
BITMAP
007E00
00FF00
01FF80
03EFC0
07C7E0
0F83F0
100000
000000
000000
01FF80
07FFE0
0FFFF0
1FFFF8
3FFFFC
7F83FC
7F01FE
7F00FE
FE00FE
FE007F
FE007F
FE007F
FE007F
FE007F
FE007F
FE007F
FE00FE
FF00FE
7F01FE
7F83FC
3FFFFC
1FFFF8
0FFFF0
07FFE0
01FF80
ENDCHAR
STARTCHAR otilde
ENCODING 245
SWIDTH 575 0
DWIDTH 28 0
BBX 24 35 2 0
BITMAP
000010
07F830
0FFFF0
0FFFF0
0FFFF0
0C0FE0
000000
000000
000000
000000
01FF80
07FFE0
0FFFF0
1FFFF8
3FFFFC
7F83FC
7F01FE
7F00FE
FE00FE
FE007F
FE007F
FE007F
FE007F
FE007F
FE007F
FE007F
FE00FE
FF00FE
7F01FE
7F83FC
3FFFFC
1FFFF8
0FFFF0
07FFE0
01FF80
ENDCHAR
STARTCHAR odieresis
ENCODING 246
SWIDTH 575 0
DWIDTH 28 0
BBX 24 35 2 0
BITMAP
1FC3F8
1FC3F8
1FC3F8
1FC3F8
1FC3F8
1FC3F8
000000
000000
000000
000000
01FF80
07FFE0
0FFFF0
1FFFF8
3FFFFC
7F83FC
7F01FE
7F00FE
FE00FE
FE007F
FE007F
FE007F
FE007F
FE007F
FE007F
FE007F
FE00FE
FF00FE
7F01FE
7F83FC
3FFFFC
1FFFF8
0FFFF0
07FFE0
01FF80
ENDCHAR
STARTCHAR divide
ENCODING 247
SWIDTH 588 0
DWIDTH 28 0
BBX 22 26 3 4
BITMAP
00FE00
00FE00
00FE00
00FE00
00FE00
00FE00
00FE00
000000
000000
000000
FFFFFC
FFFFFC
FFFFFC
FFFFFC
FFFFFC
000000
000000
000000
00FE00
00FE00
00FE00
00FE00
00FE00
00FE00
00FE00
00FE00
ENDCHAR
STARTCHAR oslash
ENCODING 248
SWIDTH 611 0
DWIDTH 29 0
BBX 27 25 1 0
BITMAP
007FE080
01FFF9C0
03FFFFE0
07FFFFC0
0FFFFF80
0FF0FF00
1FC03F80
1FC0FF80
3F81FF80
3F83FFC0
3F87DFC0
3F8F9FC0
3F9F1FC0
3FBE1FC0
3FFC1FC0
3FF81FC0
3FF01FC0
1FE03F80
1FC03F80
1FE07F00
1FFFFF00
3FFFFE00
FFFFFC00
79FFF800
207FE000
ENDCHAR
STARTCHAR ugrave
ENCODING 249
SWIDTH 595 0
DWIDTH 29 0
BBX 23 35 3 0
BITMAP
7F8000
1FC000
0FC000
07E000
03F000
01F000
00F800
000400
000000
000000
FE00FE
FE00FE
FE00FE
FE00FE
FE00FE
FE00FE
FE00FE
FE00FE
FE00FE
FE00FE
FE00FE
FE00FE
FE00FE
FE00FE
FE00FE
FE00FE
FE00FE
FE01FE
FE01FE
FF03FE
FFFF7E
7FFF7E
3FFF7E
1FFE7E
07F87E
ENDCHAR
STARTCHAR uacute
ENCODING 250
SWIDTH 595 0
DWIDTH 29 0
BBX 23 35 3 0
BITMAP
0007F8
0007F0
000FE0
001F80
001F00
003E00
007C00
000000
000000
000000
FE00FE
FE00FE
FE00FE
FE00FE
FE00FE
FE00FE
FE00FE
FE00FE
FE00FE
FE00FE
FE00FE
FE00FE
FE00FE
FE00FE
FE00FE
FE00FE
FE00FE
FE01FE
FE01FE
FF03FE
FFFF7E
7FFF7E
3FFF7E
1FFE7E
07F87E
ENDCHAR
STARTCHAR ucircumflex
ENCODING 251
SWIDTH 595 0
DWIDTH 29 0
BBX 23 34 3 0
BITMAP
00FC00
01FE00
03FF00
07EF80
0FC7C0
1F03E0
200010
000000
000000
FE00FE
FE00FE
FE00FE
FE00FE
FE00FE
FE00FE
FE00FE
FE00FE
FE00FE
FE00FE
FE00FE
FE00FE
FE00FE
FE00FE
FE00FE
FE00FE
FE00FE
FE01FE
FE01FE
FF03FE
FFFF7E
7FFF7E
3FFF7E
1FFE7E
07F87E
ENDCHAR
STARTCHAR udieresis
ENCODING 252
SWIDTH 595 0
DWIDTH 29 0
BBX 23 35 3 0
BITMAP
3F83F0
3F83F0
3F87F0
3F87F0
3F87F0
3F87F0
000000
000000
000000
000000
FE00FE
FE00FE
FE00FE
FE00FE
FE00FE
FE00FE
FE00FE
FE00FE
FE00FE
FE00FE
FE00FE
FE00FE
FE00FE
FE00FE
FE00FE
FE00FE
FE00FE
FE01FE
FE01FE
FF03FE
FFFF7E
7FFF7E
3FFF7E
1FFE7E
07F87E
ENDCHAR
STARTCHAR yacute
ENCODING 253
SWIDTH 563 0
DWIDTH 27 0
BBX 25 43 1 -8
BITMAP
0001FC00
0003F800
0007F000
0007E000
000FC000
001F8000
003F0000
00000000
00000000
00000000
FE003F80
FE003F80
7E003F00
7F007F00
7F007F00
3F807E00
3F80FE00
1F80FC00
1FC1FC00
1FC1FC00
0FC1F800
0FE3F800
07E3F000
07E3F000
07F7F000
03F7E000
03FFE000
01FFC000
01FFC000
01FFC000
00FF8000
00FF8000
007F0000
007F0000
007F0000
007E0000
00FE0000
03FC0000
7FFC0000
7FF80000
7FF00000
7FE00000
3F800000
ENDCHAR
STARTCHAR thorn
ENCODING 254
SWIDTH 604 0
DWIDTH 29 0
BBX 24 43 3 -8
BITMAP
FE0000
FE0000
FE0000
FE0000
FE0000
FE0000
FE0000
FE0000
FE0000
FE0000
FE1FC0
FE7FF0
FEFFF8
FFFFFC
FFC3FE
FF01FE
FE00FE
FE00FF
FE007F
FE007F
FE007F
FE007F
FE007F
FE007F
FE007F
FE007F
FE007F
FE00FF
FE00FE
FF01FE
FF83FE
FFFFFC
FFFFF8
FEFFF0
FE3FC0
FE0000
FE0000
FE0000
FE0000
FE0000
FE0000
FE0000
FE0000
ENDCHAR
STARTCHAR ydieresis
ENCODING 255
SWIDTH 563 0
DWIDTH 27 0
BBX 25 43 1 -8
BITMAP
0FC1F800
0FC1F800
0FC1F800
0FC1F800
0FC1F800
0FC1F800
00000000
00000000
00000000
00000000
FE003F80
FE003F80
7E003F00
7F007F00
7F007F00
3F807E00
3F80FE00
1F80FC00
1FC1FC00
1FC1FC00
0FC1F800
0FE3F800
07E3F000
07E3F000
07F7F000
03F7E000
03FFE000
01FFC000
01FFC000
01FFC000
00FF8000
00FF8000
007F0000
007F0000
007F0000
007E0000
00FE0000
03FC0000
7FFC0000
7FF80000
7FF00000
7FE00000
3F800000
ENDCHAR
STARTCHAR Amacron
ENCODING 256
SWIDTH 726 0
DWIDTH 35 0
BBX 33 43 1 0
BITMAP
00FFFF8000
00FFFF8000
00FFFF8000
00FFFF8000
0000000000
0000000000
0000000000
0000000000
0007F00000
000FF80000
000FF80000
000FF80000
001FFC0000
001FFC0000
003FFC0000
003F7E0000
003F7E0000
007F7E0000
007E3F0000
007E3F0000
00FE3F8000
00FC1F8000
00FC1F8000
01FC1FC000
01F80FC000
01F80FC000
03F80FE000
03F007E000
07F007E000
07FFFFF000
07FFFFF000
0FFFFFF000
0FFFFFF800
0FFFFFF800
1FFFFFFC00
1FC001FC00
1FC001FC00
3F8000FE00
3F8000FE00
3F8000FE00
7F00007F00
7F00007F00
FF00007F80
ENDCHAR
STARTCHAR amacron
ENCODING 257
SWIDTH 566 0
DWIDTH 27 0
BBX 23 33 2 0
BITMAP
0FFFF8
0FFFF8
0FFFF8
0FFFF8
000000
000000
000000
000000
01FFC0
0FFFF0
1FFFF8
3FFFFC
3FE7FC
7F01FC
7E00FC
7E00FC
0000FE
0007FE
07FFFE
1FFFFE
3FFFFE
7FC0FE
7F00FE
FE00FE
FE00FE
FE00FE
FE01FE
FE03FE
FF87FE
7FFFFE
7FFEFE
3FFCFE
0FF87E
ENDCHAR
STARTCHAR Abreve
ENCODING 258
SWIDTH 726 0
DWIDTH 35 0
BBX 33 44 1 0
BITMAP
00F80F8000
00F80F0000
007E3F0000
003FFE0000
001FFC0000
000FF00000
0000000000
0000000000
0000000000
0007F00000
000FF80000
000FF80000
000FF80000
001FFC0000
001FFC0000
003FFC0000
003F7E0000
003F7E0000
007F7E0000
007E3F0000
007E3F0000
00FE3F8000
00FC1F8000
00FC1F8000
01FC1FC000
01F80FC000
01F80FC000
03F80FE000
03F007E000
07F007E000
07FFFFF000
07FFFFF000
0FFFFFF000
0FFFFFF800
0FFFFFF800
1FFFFFFC00
1FC001FC00
1FC001FC00
3F8000FE00
3F8000FE00
3F8000FE00
7F00007F00
7F00007F00
FF00007F80
ENDCHAR
STARTCHAR abreve
ENCODING 259
SWIDTH 566 0
DWIDTH 27 0
BBX 23 34 2 0
BITMAP
0F00F0
0F81F0
07C3F0
07FFE0
03FFC0
00FF00
000000
000000
000000
01FFC0
0FFFF0
1FFFF8
3FFFFC
3FE7FC
7F01FC
7E00FC
7E00FC
0000FE
0007FE
07FFFE
1FFFFE
3FFFFE
7FC0FE
7F00FE
FE00FE
FE00FE
FE00FE
FE01FE
FE03FE
FF87FE
7FFFFE
7FFEFE
3FFCFE
0FF87E
ENDCHAR
STARTCHAR Aogonek
ENCODING 260
SWIDTH 726 0
DWIDTH 35 0
BBX 33 43 1 -8
BITMAP
0007F00000
000FF80000
000FF80000
000FF80000
001FFC0000
001FFC0000
003FFC0000
003F7E0000
003F7E0000
007F7E0000
007E3F0000
007E3F0000
00FE3F8000
00FC1F8000
00FC1F8000
01FC1FC000
01F80FC000
01F80FC000
03F80FE000
03F007E000
07F007E000
07FFFFF000
07FFFFF000
0FFFFFF000
0FFFFFF800
0FFFFFF800
1FFFFFFC00
1FC001FC00
1FC001FC00
3F8000FE00
3F8000FE00
3F8000FE00
7F00007F00
7F00007F00
FF00007F80
0000003E00
000000F800
000001F000
000001F000
000001F880
000001FF80
000000FF80
0000007F00
ENDCHAR
STARTCHAR aogonek
ENCODING 261
SWIDTH 566 0
DWIDTH 27 0
BBX 23 33 2 -8
BITMAP
01FFC0
0FFFF0
1FFFF8
3FFFFC
3FE7FC
7F01FC
7E00FC
7E00FC
0000FE
0007FE
07FFFE
1FFFFE
3FFFFE
7FC0FE
7F00FE
FE00FE
FE00FE
FE00FE
FE01FE
FE03FE
FF87FE
7FFFFE
7FFEFE
3FFCFE
0FF87E
0001F8
0003E0
0007C0
0007C0
0007E6
0007FE
0003FE
0001FC
ENDCHAR
STARTCHAR Cacute
ENCODING 262
SWIDTH 718 0
DWIDTH 34 0
BBX 30 45 2 0
BITMAP
00003FC0
00007F00
00007E00
0000FC00
0001F800
0001F000
0003E000
00040000
00000000
00000000
001FF800
00FFFE00
01FFFF80
07FFFFC0
0FFFFFE0
0FFFFFF0
1FF01FF0
3FE007F8
3FC003F8
3F8003FC
7F8003FC
7F8001FC
7F000000
7F000000
FF000000
FF000000
FF000000
FF000000
FF000000
FF000000
FF000000
7F000000
7F000000
7F8001FC
7F8003FC
3F8003FC
3FC007F8
3FE007F8
1FF00FF8
0FFC3FF0
07FFFFE0
07FFFFE0
01FFFFC0
00FFFF00
003FFC00
ENDCHAR
STARTCHAR cacute
ENCODING 263
SWIDTH 547 0
DWIDTH 26 0
BBX 22 35 2 0
BITMAP
0003F8
0007F0
0007E0
000FC0
001F80
003F00
003E00
004000
000000
000000
01FF00
07FFC0
0FFFE0
1FFFF0
3FFFF8
3FC3F8
7F01FC
7E00FC
FE00FC
FE0000
FE0000
FC0000
FC0000
FC0000
FC0000
FE0000
FE00FC
FE00FC
7F00FC
7F81F8
3FFFF8
1FFFF0
0FFFE0
07FFC0
01FF80
ENDCHAR
STARTCHAR Ccircumflex
ENCODING 264
SWIDTH 718 0
DWIDTH 34 0
BBX 30 44 2 0
BITMAP
0007E000
000FF000
001FF800
003EFC00
007C7E00
00F83F00
01000080
00000000
00000000
001FF800
00FFFE00
01FFFF80
07FFFFC0
0FFFFFE0
0FFFFFF0
1FF01FF0
3FE007F8
3FC003F8
3F8003FC
7F8003FC
7F8001FC
7F000000
7F000000
FF000000
FF000000
FF000000
FF000000
FF000000
FF000000
FF000000
7F000000
7F000000
7F8001FC
7F8003FC
3F8003FC
3FC007F8
3FE007F8
1FF00FF8
0FFC3FF0
07FFFFE0
07FFFFE0
01FFFFC0
00FFFF00
003FFC00
ENDCHAR
STARTCHAR ccircumflex
ENCODING 265
SWIDTH 547 0
DWIDTH 26 0
BBX 22 34 2 0
BITMAP
007E00
00FF00
01FF80
03EFC0
07C7E0
0F83F0
100000
000000
000000
01FF00
07FFC0
0FFFE0
1FFFF0
3FFFF8
3FC3F8
7F01FC
7E00FC
FE00FC
FE0000
FE0000
FC0000
FC0000
FC0000
FC0000
FE0000
FE00FC
FE00FC
7F00FC
7F81F8
3FFFF8
1FFFF0
0FFFE0
07FFC0
01FF80
ENDCHAR
STARTCHAR Cdotaccent
ENCODING 266
SWIDTH 718 0
DWIDTH 34 0
BBX 30 45 2 0
BITMAP
0007E000
0007E000
0007E000
0007E000
0007E000
0007E000
00000000
00000000
00000000
00000000
001FF800
00FFFE00
01FFFF80
07FFFFC0
0FFFFFE0
0FFFFFF0
1FF01FF0
3FE007F8
3FC003F8
3F8003FC
7F8003FC
7F8001FC
7F000000
7F000000
FF000000
FF000000
FF000000
FF000000
FF000000
FF000000
FF000000
7F000000
7F000000
7F8001FC
7F8003FC
3F8003FC
3FC007F8
3FE007F8
1FF00FF8
0FFC3FF0
07FFFFE0
07FFFFE0
01FFFFC0
00FFFF00
003FFC00
ENDCHAR
STARTCHAR cdotaccent
ENCODING 267
SWIDTH 547 0
DWIDTH 26 0
BBX 22 35 2 0
BITMAP
00FE00
00FE00
00FE00
00FE00
00FE00
00FE00
000000
000000
000000
000000
01FF00
07FFC0
0FFFE0
1FFFF0
3FFFF8
3FC3F8
7F01FC
7E00FC
FE00FC
FE0000
FE0000
FC0000
FC0000
FC0000
FC0000
FE0000
FE00FC
FE00FC
7F00FC
7F81F8
3FFFF8
1FFFF0
0FFFE0
07FFC0
01FF80
ENDCHAR
STARTCHAR Ccaron
ENCODING 268
SWIDTH 718 0
DWIDTH 34 0
BBX 30 44 2 0
BITMAP
01F81F80
007C3E00
003E7C00
001FF800
000FF000
0007E000
00000000
00000000
00000000
001FF800
00FFFE00
01FFFF80
07FFFFC0
0FFFFFE0
0FFFFFF0
1FF01FF0
3FE007F8
3FC003F8
3F8003FC
7F8003FC
7F8001FC
7F000000
7F000000
FF000000
FF000000
FF000000
FF000000
FF000000
FF000000
FF000000
7F000000
7F000000
7F8001FC
7F8003FC
3F8003FC
3FC007F8
3FE007F8
1FF00FF8
0FFC3FF0
07FFFFE0
07FFFFE0
01FFFFC0
00FFFF00
003FFC00
ENDCHAR
STARTCHAR ccaron
ENCODING 269
SWIDTH 547 0
DWIDTH 26 0
BBX 22 34 2 0
BITMAP
1F83F0
07C3E0
03E7C0
01FF80
00FF00
007E00
000000
000000
000000
01FF00
07FFC0
0FFFE0
1FFFF0
3FFFF8
3FC3F8
7F01FC
7E00FC
FE00FC
FE0000
FE0000
FC0000
FC0000
FC0000
FC0000
FE0000
FE00FC
FE00FC
7F00FC
7F81F8
3FFFF8
1FFFF0
0FFFE0
07FFC0
01FF80
ENDCHAR
STARTCHAR Dcaron
ENCODING 270
SWIDTH 720 0
DWIDTH 35 0
BBX 28 44 4 0
BITMAP
0FC0FC00
03E1F000
01F3E000
00FFC000
007F8000
003F0000
00000000
00000000
00000000
FFF80000
FFFFC000
FFFFF000
FFFFFC00
FFFFFE00
FFFFFF00
FE03FF80
FE007FC0
FE003FC0
FE001FE0
FE001FE0
FE000FF0
FE000FF0
FE0007F0
FE0007F0
FE0007F0
FE0007F0
FE0007F0
FE0007F0
FE0007F0
FE0007F0
FE0007F0
FE000FF0
FE000FF0
FE001FE0
FE001FE0
FE003FC0
FE007FC0
FE01FF80
FFFFFF80
FFFFFF00
FFFFFC00
FFFFF800
FFFFE000
FFFE0000
ENDCHAR
STARTCHAR dcaron
ENCODING 271
SWIDTH 605 0
DWIDTH 29 0
BBX 32 36 2 0
BITMAP
00007F1F
00007F1F
00007F1F
00007F1F
00007F1F
00007F1F
00007F0E
00007F0E
00007F0E
00007F1C
00007F1C
03FC7F00
0FFE7F00
1FFF7F00
3FFFFF00
7FFFFF00
7F81FF00
7F00FF00
FF00FF00
FE007F00
FE007F00
FE007F00
FE007F00
FE007F00
FE007F00
FE007F00
FE007F00
FE007F00
FF00FF00
7F00FF00
7F81FF00
3FFFFF00
3FFFDF00
1FFF9F00
0FFF1F00
03FE1F00
ENDCHAR
STARTCHAR Dcroat
ENCODING 272
SWIDTH 749 0
DWIDTH 36 0
BBX 32 35 2 0
BITMAP
1FFF0000
1FFFF800
1FFFFF00
1FFFFF80
1FFFFFE0
1FFFFFF0
1FC03FF8
1FC00FF8
1FC007FC
1FC003FC
1FC001FE
1FC001FE
1FC000FE
1FC000FE
1FC000FE
FFFF80FF
FFFF80FF
FFFF80FF
FFFF80FF
FFFF80FF
1FC000FE
1FC000FE
1FC000FE
1FC001FE
1FC001FE
1FC003FC
1FC007FC
1FC00FF8
1FC03FF8
1FFFFFF0
1FFFFFE0
1FFFFFC0
1FFFFF00
1FFFFC00
1FFFE000
ENDCHAR
STARTCHAR dcroat
ENCODING 273
SWIDTH 639 0
DWIDTH 31 0
BBX 27 36 2 0
BITMAP
00007F00
00007F00
00007F00
00007F00
001FFFE0
001FFFE0
001FFFE0
001FFFE0
00007F00
00007F00
00007F00
03FC7F00
0FFE7F00
1FFF7F00
3FFFFF00
7FFFFF00
7F81FF00
7F00FF00
FF00FF00
FE007F00
FE007F00
FE007F00
FE007F00
FE007F00
FE007F00
FE007F00
FE007F00
FE007F00
FF00FF00
7F00FF00
7F81FF00
3FFFFF00
3FFFDF00
1FFF9F00
0FFF1F00
03FE1F00
ENDCHAR
STARTCHAR Emacron
ENCODING 274
SWIDTH 634 0
DWIDTH 30 0
BBX 24 43 4 0
BITMAP
1FFFF0
1FFFF0
1FFFF0
1FFFF0
000000
000000
000000
000000
FFFFFF
FFFFFF
FFFFFF
FFFFFF
FFFFFF
FFFFFF
FE0000
FE0000
FE0000
FE0000
FE0000
FE0000
FE0000
FE0000
FE0000
FFFFF8
FFFFF8
FFFFF8
FFFFF8
FFFFF8
FE0000
FE0000
FE0000
FE0000
FE0000
FE0000
FE0000
FE0000
FE0000
FFFFFF
FFFFFF
FFFFFF
FFFFFF
FFFFFF
FFFFFF
ENDCHAR
STARTCHAR emacron
ENCODING 275
SWIDTH 576 0
DWIDTH 28 0
BBX 24 33 2 0
BITMAP
0FFFF8
0FFFF8
0FFFF8
0FFFF8
000000
000000
000000
000000
01FF80
07FFE0
0FFFF0
1FFFF8
3FFFFC
3F81FC
7F00FE
7E007E
7E007E
FE007E
FFFFFF
FFFFFF
FFFFFF
FFFFFF
FE0000
FE0000
FE0000
7F007F
7F007E
3F80FE
3FFFFC
1FFFFC
0FFFF8
07FFE0
01FF80
ENDCHAR
STARTCHAR Ebreve
ENCODING 276
SWIDTH 634 0
DWIDTH 30 0
BBX 24 44 4 0
BITMAP
1F00F0
0F81F0
0FC3E0
07FFE0
03FFC0
00FF00
000000
000000
000000
FFFFFF
FFFFFF
FFFFFF
FFFFFF
FFFFFF
FFFFFF
FE0000
FE0000
FE0000
FE0000
FE0000
FE0000
FE0000
FE0000
FE0000
FFFFF8
FFFFF8
FFFFF8
FFFFF8
FFFFF8
FE0000
FE0000
FE0000
FE0000
FE0000
FE0000
FE0000
FE0000
FE0000
FFFFFF
FFFFFF
FFFFFF
FFFFFF
FFFFFF
FFFFFF
ENDCHAR
STARTCHAR ebreve
ENCODING 277
SWIDTH 576 0
DWIDTH 28 0
BBX 24 34 2 0
BITMAP
0F00F0
0F81F0
07C3F0
07FFE0
03FFC0
00FF00
000000
000000
000000
01FF80
07FFE0
0FFFF0
1FFFF8
3FFFFC
3F81FC
7F00FE
7E007E
7E007E
FE007E
FFFFFF
FFFFFF
FFFFFF
FFFFFF
FE0000
FE0000
FE0000
7F007F
7F007E
3F80FE
3FFFFC
1FFFFC
0FFFF8
07FFE0
01FF80
ENDCHAR
STARTCHAR Edotaccent
ENCODING 278
SWIDTH 634 0
DWIDTH 30 0
BBX 24 45 4 0
BITMAP
00FE00
00FE00
00FE00
00FE00
00FE00
00FE00
000000
000000
000000
000000
FFFFFF
FFFFFF
FFFFFF
FFFFFF
FFFFFF
FFFFFF
FE0000
FE0000
FE0000
FE0000
FE0000
FE0000
FE0000
FE0000
FE0000
FFFFF8
FFFFF8
FFFFF8
FFFFF8
FFFFF8
FE0000
FE0000
FE0000
FE0000
FE0000
FE0000
FE0000
FE0000
FE0000
FFFFFF
FFFFFF
FFFFFF
FFFFFF
FFFFFF
FFFFFF
ENDCHAR
STARTCHAR edotaccent
ENCODING 279
SWIDTH 576 0
DWIDTH 28 0
BBX 24 35 2 0
BITMAP
007E00
007E00
007E00
007E00
007E00
007E00
000000
000000
000000
000000
01FF80
07FFE0
0FFFF0
1FFFF8
3FFFFC
3F81FC
7F00FE
7E007E
7E007E
FE007E
FFFFFF
FFFFFF
FFFFFF
FFFFFF
FE0000
FE0000
FE0000
7F007F
7F007E
3F80FE
3FFFFC
1FFFFC
0FFFF8
07FFE0
01FF80
ENDCHAR
STARTCHAR Eogonek
ENCODING 280
SWIDTH 634 0
DWIDTH 30 0
BBX 25 43 4 -8
BITMAP
FFFFFF00
FFFFFF00
FFFFFF00
FFFFFF00
FFFFFF00
FFFFFF00
FE000000
FE000000
FE000000
FE000000
FE000000
FE000000
FE000000
FE000000
FE000000
FFFFF800
FFFFF800
FFFFF800
FFFFF800
FFFFF800
FE000000
FE000000
FE000000
FE000000
FE000000
FE000000
FE000000
FE000000
FE000000
FFFFFF00
FFFFFF00
FFFFFF00
FFFFFF00
FFFFFF00
FFFFFF80
00003E00
0000F800
0000F000
0001F000
0001F880
0001FF80
0000FF80
00007F00
ENDCHAR
STARTCHAR eogonek
ENCODING 281
SWIDTH 576 0
DWIDTH 28 0
BBX 24 32 2 -7
BITMAP
01FF80
07FFE0
0FFFF0
1FFFF8
3FFFFC
3F81FC
7F00FE
7E007E
7E007E
FE007E
FFFFFF
FFFFFF
FFFFFF
FFFFFF
FE0000
FE0000
FE0000
7F007F
7F007E
7F80FE
3FFFFC
1FFFFC
0FFFF0
07FFE0
01FF80
001F00
003E00
007C00
007C20
007FE0
007FE0
003FE0
ENDCHAR
STARTCHAR Ecaron
ENCODING 282
SWIDTH 634 0
DWIDTH 30 0
BBX 24 44 4 0
BITMAP
1F81F0
07C3E0
03E7C0
01FF80
00FF00
007E00
000000
000000
000000
FFFFFF
FFFFFF
FFFFFF
FFFFFF
FFFFFF
FFFFFF
FE0000
FE0000
FE0000
FE0000
FE0000
FE0000
FE0000
FE0000
FE0000
FFFFF8
FFFFF8
FFFFF8
FFFFF8
FFFFF8
FE0000
FE0000
FE0000
FE0000
FE0000
FE0000
FE0000
FE0000
FE0000
FFFFFF
FFFFFF
FFFFFF
FFFFFF
FFFFFF
FFFFFF
ENDCHAR
STARTCHAR ecaron
ENCODING 283
SWIDTH 568 0
DWIDTH 28 0
BBX 24 34 2 0
BITMAP
1F83F0
07C3E0
03E7C0
01FF80
00FF00
007E00
000000
000000
000000
01FF80
07FFE0
0FFFF0
1FFFF8
3FFFFC
3F81FC
7F00FE
7E007E
7E007E
FE007E
FFFFFF
FFFFFF
FFFFFF
FFFFFF
FE0000
FE0000
FE0000
7F007F
7F007E
3F80FE
3FFFFC
1FFFFC
0FFFF8
07FFE0
01FF80
ENDCHAR
STARTCHAR Gcircumflex
ENCODING 284
SWIDTH 759 0
DWIDTH 36 0
BBX 31 44 2 0
BITMAP
0007E000
000FF000
001FF800
003E7C00
007C3E00
00F81F00
01000080
00000000
00000000
001FF800
007FFF00
01FFFF80
03FFFFC0
07FFFFE0
0FFFFFF0
1FF81FF8
1FE007F8
3FC003FC
3FC003FC
7F8001FC
7F8001FE
7F000000
7F000000
FF000000
FF000000
FF000000
FF00FFFE
FF00FFFE
FF00FFFE
FF00FFFE
7F00FFFE
7F0001FE
7F8001FE
7F8001FE
7FC001FE
3FC003FE
3FE007FE
1FF80FFE
0FFFFFFE
0FFFFFFE
07FFFFBE
03FFFF3E
00FFFE3E
003FF83E
ENDCHAR
STARTCHAR gcircumflex
ENCODING 285
SWIDTH 628 0
DWIDTH 30 0
BBX 28 42 1 -8
BITMAP
001F0000
003F8000
007FC000
00FBE000
01F1F000
07E0FC00
00000000
00000000
00000010
00FFC0F0
03FFF7F0
0FFFFFF0
1FFFFFF0
1FC0FFC0
3F807F00
3F803F00
3F803F00
3F803F00
3F807F00
1FC07F00
1FE1FE00
0FFFFC00
07FFF800
03FFF000
0FFF0000
1F000000
3FC00000
3FFFF800
3FFFFE00
3FFFFF80
1FFFFFC0
07FFFFC0
3FDFFFE0
7F001FE0
FE000FE0
FE000FE0
FE000FC0
FF801FC0
7FFFFF80
3FFFFF00
1FFFFC00
03FFF000
ENDCHAR
STARTCHAR Gbreve
ENCODING 286
SWIDTH 759 0
DWIDTH 36 0
BBX 31 44 2 0
BITMAP
00F00F80
00F81F00
007C3F00
007FFE00
003FFC00
000FF000
00000000
00000000
00000000
001FF800
007FFF00
01FFFF80
03FFFFC0
07FFFFE0
0FFFFFF0
1FF81FF8
1FE007F8
3FC003FC
3FC003FC
7F8001FC
7F8001FE
7F000000
7F000000
FF000000
FF000000
FF000000
FF00FFFE
FF00FFFE
FF00FFFE
FF00FFFE
7F00FFFE
7F0001FE
7F8001FE
7F8001FE
7FC001FE
3FC003FE
3FE007FE
1FF80FFE
0FFFFFFE
0FFFFFFE
07FFFFBE
03FFFF3E
00FFFE3E
003FF83E
ENDCHAR
STARTCHAR gbreve
ENCODING 287
SWIDTH 628 0
DWIDTH 30 0
BBX 28 42 1 -8
BITMAP
07C07C00
03C07C00
03F1F800
01FFF000
00FFE000
003FC000
00000000
00000000
00000010
00FFC0F0
03FFF7F0
0FFFFFF0
1FFFFFF0
1FC0FFC0
3F807F00
3F803F00
3F803F00
3F803F00
3F807F00
1FC07F00
1FE1FE00
0FFFFC00
07FFF800
03FFF000
0FFF0000
1F000000
3FC00000
3FFFF800
3FFFFE00
3FFFFF80
1FFFFFC0
07FFFFC0
3FDFFFE0
7F001FE0
FE000FE0
FE000FE0
FE000FC0
FF801FC0
7FFFFF80
3FFFFF00
1FFFFC00
03FFF000
ENDCHAR
STARTCHAR Gdotaccent
ENCODING 288
SWIDTH 759 0
DWIDTH 36 0
BBX 31 45 2 0
BITMAP
0007E000
0007E000
0007E000
0007E000
0007E000
0007E000
00000000
00000000
00000000
00000000
001FF800
007FFF00
01FFFF80
03FFFFC0
07FFFFE0
0FFFFFF0
1FF81FF8
1FE007F8
3FC003FC
3FC003FC
7F8001FC
7F8001FE
7F000000
7F000000
FF000000
FF000000
FF000000
FF00FFFE
FF00FFFE
FF00FFFE
FF00FFFE
7F00FFFE
7F0001FE
7F8001FE
7F8001FE
7FC001FE
3FC003FE
3FE007FE
1FF80FFE
0FFFFFFE
0FFFFFFE
07FFFFBE
03FFFF3E
00FFFE3E
003FF83E
ENDCHAR
STARTCHAR gdotaccent
ENCODING 289
SWIDTH 628 0
DWIDTH 30 0
BBX 28 43 1 -8
BITMAP
003F8000
003F8000
003F8000
003F8000
003F8000
003F8000
00000000
00000000
00000000
00000010
00FFC0F0
03FFF7F0
0FFFFFF0
1FFFFFF0
1FC0FFC0
3F807F00
3F803F00
3F803F00
3F803F00
3F807F00
1FC07F00
1FE1FE00
0FFFFC00
07FFF800
03FFF000
0FFF0000
1F000000
3FC00000
3FFFF800
3FFFFE00
3FFFFF80
1FFFFFC0
07FFFFC0
3FDFFFE0
7F001FE0
FE000FE0
FE000FE0
FE000FC0
FF801FC0
7FFFFF80
3FFFFF00
1FFFFC00
03FFF000
ENDCHAR
STARTCHAR uni0122
ENCODING 290
SWIDTH 759 0
DWIDTH 36 0
BBX 31 46 2 -11
BITMAP
001FF800
007FFF00
01FFFF80
03FFFFC0
07FFFFE0
0FFFFFF0
1FF81FF8
1FE007F8
3FC003FC
3FC003FC
7F8001FC
7F8001FE
7F000000
7F000000
FF000000
FF000000
FF000000
FF00FFFE
FF00FFFE
FF00FFFE
FF00FFFE
7F00FFFE
7F0001FE
7F8001FE
7F8001FE
7FC001FE
3FC003FE
3FE007FE
1FF80FFE
0FFFFFFE
0FFFFFFE
07FFFFBE
03FFFF3E
00FFFE3E
003FF83E
00000000
00000000
0007E000
0007E000
0007E000
0007E000
0007E000
0001C000
00038000
00070000
00060000
ENDCHAR
STARTCHAR uni0123
ENCODING 291
SWIDTH 628 0
DWIDTH 30 0
BBX 28 45 1 -8
BITMAP
00038000
00070000
00070000
000E0000
001F8000
001F8000
001F8000
001F8000
001F8000
00000000
00000000
00000010
00FFC0F0
03FFF7F0
0FFFFFF0
1FFFFFF0
1FC0FFC0
3F807F00
3F803F00
3F803F00
3F803F00
3F807F00
1FC07F00
1FE1FE00
0FFFFC00
07FFF800
03FFF000
0FFF0000
1F000000
3FC00000
3FFFF800
3FFFFE00
3FFFFF80
1FFFFFC0
07FFFFC0
3FDFFFE0
7F001FE0
FE000FE0
FE000FE0
FE000FC0
FF801FC0
7FFFFF80
3FFFFF00
1FFFFC00
03FFF000
ENDCHAR
STARTCHAR Hcircumflex
ENCODING 292
SWIDTH 770 0
DWIDTH 37 0
BBX 29 44 4 0
BITMAP
000F8000
001FC000
003FE000
007DF000
00F8F800
03F07E00
00000000
00000000
00000000
FE0003F8
FE0003F8
FE0003F8
FE0003F8
FE0003F8
FE0003F8
FE0003F8
FE0003F8
FE0003F8
FE0003F8
FE0003F8
FE0003F8
FE0003F8
FE0003F8
FFFFFFF8
FFFFFFF8
FFFFFFF8
FFFFFFF8
FFFFFFF8
FFFFFFF8
FE0003F8
FE0003F8
FE0003F8
FE0003F8
FE0003F8
FE0003F8
FE0003F8
FE0003F8
FE0003F8
FE0003F8
FE0003F8
FE0003F8
FE0003F8
FE0003F8
FE0003F8
ENDCHAR
STARTCHAR hcircumflex
ENCODING 293
SWIDTH 592 0
DWIDTH 28 0
BBX 28 44 -2 0
BITMAP
03E00000
07F00000
0FF80000
3F7C0000
7E3E0000
FC1F0000
00008000
00000000
07F00000
07F00000
07F00000
07F00000
07F00000
07F00000
07F00000
07F00000
07F00000
07F00000
07F00000
07F0FC00
07F3FF00
07F7FFC0
07FFFFC0
07FFFFE0
07FF7FE0
07F80FF0
07F00FF0
07F007F0
07F007F0
07F007F0
07F007F0
07F007F0
07F007F0
07F007F0
07F007F0
07F007F0
07F007F0
07F007F0
07F007F0
07F007F0
07F007F0
07F007F0
07F007F0
07F007F0
ENDCHAR
STARTCHAR Hbar
ENCODING 294
SWIDTH 824 0
DWIDTH 40 0
BBX 38 35 1 0
BITMAP
0FE0001FC0
0FE0001FC0
0FE0001FC0
0FE0001FC0
0FE0001FC0
FFFFFFFFFC
FFFFFFFFFC
FFFFFFFFFC
FFFFFFFFFC
0FE0001FC0
0FE0001FC0
0FE0001FC0
0FE0001FC0
0FE0001FC0
0FFFFFFFC0
0FFFFFFFC0
0FFFFFFFC0
0FFFFFFFC0
0FFFFFFFC0
0FFFFFFFC0
0FE0001FC0
0FE0001FC0
0FE0001FC0
0FE0001FC0
0FE0001FC0
0FE0001FC0
0FE0001FC0
0FE0001FC0
0FE0001FC0
0FE0001FC0
0FE0001FC0
0FE0001FC0
0FE0001FC0
0FE0001FC0
0FE0001FC0
ENDCHAR
STARTCHAR hbar
ENCODING 295
SWIDTH 618 0
DWIDTH 30 0
BBX 26 36 1 0
BITMAP
1FC00000
1FC00000
1FC00000
1FC00000
FFFF0000
FFFF0000
FFFF0000
FFFF0000
1FC00000
1FC00000
1FC00000
1FC3F000
1FCFFE00
1FDFFF00
1FFFFF80
1FFFFF80
1FFFFFC0
1FF03FC0
1FE01FC0
1FC01FC0
1FC01FC0
1FC01FC0
1FC01FC0
1FC01FC0
1FC01FC0
1FC01FC0
1FC01FC0
1FC01FC0
1FC01FC0
1FC01FC0
1FC01FC0
1FC01FC0
1FC01FC0
1FC01FC0
1FC01FC0
1FC01FC0
ENDCHAR
STARTCHAR Itilde
ENCODING 296
SWIDTH 307 0
DWIDTH 15 0
BBX 17 45 -1 0
BITMAP
000100
3F8300
FFFF00
FFFF80
7FFF80
60FE00
000000
000000
000000
000000
07F000
07F000
07F000
07F000
07F000
07F000
07F000
07F000
07F000
07F000
07F000
07F000
07F000
07F000
07F000
07F000
07F000
07F000
07F000
07F000
07F000
07F000
07F000
07F000
07F000
07F000
07F000
07F000
07F000
07F000
07F000
07F000
07F000
07F000
07F000
ENDCHAR
STARTCHAR itilde
ENCODING 297
SWIDTH 340 0
DWIDTH 13 0
BBX 16 35 0 0
BITMAP
0001
7F83
FFFF
FFFF
FFFF
40FE
0000
0000
0000
0000
07E0
07E0
07E0
07E0
07E0
07E0
07E0
07E0
07E0
07E0
07E0
07E0
07E0
07E0
07E0
07E0
07E0
07E0
07E0
07E0
07E0
07E0
07E0
07E0
07E0
ENDCHAR
STARTCHAR Imacron
ENCODING 298
SWIDTH 307 0
DWIDTH 15 0
BBX 17 43 -1 0
BITMAP
FFFF80
FFFF80
FFFF80
FFFF80
000000
000000
000000
000000
07F000
07F000
07F000
07F000
07F000
07F000
07F000
07F000
07F000
07F000
07F000
07F000
07F000
07F000
07F000
07F000
07F000
07F000
07F000
07F000
07F000
07F000
07F000
07F000
07F000
07F000
07F000
07F000
07F000
07F000
07F000
07F000
07F000
07F000
07F000
ENDCHAR
STARTCHAR imacron
ENCODING 299
SWIDTH 350 0
DWIDTH 13 0
BBX 17 33 0 0
BITMAP
FFFF80
FFFF80
FFFF80
FFFF80
000000
000000
000000
000000
07F000
07F000
07F000
07F000
07F000
07F000
07F000
07F000
07F000
07F000
07F000
07F000
07F000
07F000
07F000
07F000
07F000
07F000
07F000
07F000
07F000
07F000
07F000
07F000
07F000
ENDCHAR
STARTCHAR Ibreve
ENCODING 300
SWIDTH 307 0
DWIDTH 15 0
BBX 17 44 -1 0
BITMAP
F80F80
F80F00
7E3F00
3FFE00
1FFC00
0FF000
000000
000000
000000
07F000
07F000
07F000
07F000
07F000
07F000
07F000
07F000
07F000
07F000
07F000
07F000
07F000
07F000
07F000
07F000
07F000
07F000
07F000
07F000
07F000
07F000
07F000
07F000
07F000
07F000
07F000
07F000
07F000
07F000
07F000
07F000
07F000
07F000
07F000
ENDCHAR
STARTCHAR ibreve
ENCODING 301
SWIDTH 264 0
DWIDTH 13 0
BBX 17 34 -2 0
BITMAP
F80F80
F80F00
7E3F00
3FFE00
1FFC00
0FF000
000000
000000
000000
07F000
07F000
07F000
07F000
07F000
07F000
07F000
07F000
07F000
07F000
07F000
07F000
07F000
07F000
07F000
07F000
07F000
07F000
07F000
07F000
07F000
07F000
07F000
07F000
07F000
ENDCHAR
STARTCHAR Iogonek
ENCODING 302
SWIDTH 307 0
DWIDTH 15 0
BBX 11 43 1 -8
BITMAP
1FC0
1FC0
1FC0
1FC0
1FC0
1FC0
1FC0
1FC0
1FC0
1FC0
1FC0
1FC0
1FC0
1FC0
1FC0
1FC0
1FC0
1FC0
1FC0
1FC0
1FC0
1FC0
1FC0
1FC0
1FC0
1FC0
1FC0
1FC0
1FC0
1FC0
1FC0
1FC0
1FC0
1FC0
1FC0
1F00
7C00
7C00
F800
FC60
7FE0
7FE0
3F80
ENDCHAR
STARTCHAR iogonek
ENCODING 303
SWIDTH 264 0
DWIDTH 13 0
BBX 11 43 0 -8
BITMAP
1FC0
1FC0
1FC0
1FC0
1FC0
1FC0
0000
0000
0000
0000
1FC0
1FC0
1FC0
1FC0
1FC0
1FC0
1FC0
1FC0
1FC0
1FC0
1FC0
1FC0
1FC0
1FC0
1FC0
1FC0
1FC0
1FC0
1FC0
1FC0
1FC0
1FC0
1FC0
1FC0
1FC0
1F00
7C00
7C00
F800
FC60
7FE0
7FE0
3F80
ENDCHAR
STARTCHAR Idotaccent
ENCODING 304
SWIDTH 307 0
DWIDTH 15 0
BBX 7 45 4 0
BITMAP
FE
FE
FE
FE
FE
FE
00
00
00
00
FE
FE
FE
FE
FE
FE
FE
FE
FE
FE
FE
FE
FE
FE
FE
FE
FE
FE
FE
FE
FE
FE
FE
FE
FE
FE
FE
FE
FE
FE
FE
FE
FE
FE
FE
ENDCHAR
STARTCHAR dotlessi
ENCODING 305
SWIDTH 264 0
DWIDTH 13 0
BBX 7 25 3 0
BITMAP
FE
FE
FE
FE
FE
FE
FE
FE
FE
FE
FE
FE
FE
FE
FE
FE
FE
FE
FE
FE
FE
FE
FE
FE
FE
ENDCHAR
STARTCHAR Jcircumflex
ENCODING 308
SWIDTH 402 0
DWIDTH 19 0
BBX 20 44 1 0
BITMAP
007C00
00FE00
01FF00
03EF80
07C7C0
1F83F0
000000
000000
000000
00FE00
00FE00
00FE00
00FE00
00FE00
00FE00
00FE00
00FE00
00FE00
00FE00
00FE00
00FE00
00FE00
00FE00
00FE00
00FE00
00FE00
00FE00
00FE00
00FE00
00FE00
00FE00
00FE00
00FE00
00FE00
00FE00
00FE00
01FE00
83FE00
FFFE00
FFFE00
FFFC00
FFFC00
FFF800
FFF000
ENDCHAR
STARTCHAR jcircumflex
ENCODING 309
SWIDTH 287 0
DWIDTH 14 0
BBX 17 42 -1 -8
BITMAP
07E000
0FF000
1FF800
3F7C00
7E3E00
FC1F00
000080
000000
000000
07F000
07F000
07F000
07F000
07F000
07F000
07F000
07F000
07F000
07F000
07F000
07F000
07F000
07F000
07F000
07F000
07F000
07F000
07F000
07F000
07F000
07F000
07F000
07F000
07F000
07F000
0FF000
7FF000
FFE000
FFE000
FFC000
FF8000
7E0000
ENDCHAR
STARTCHAR uni0136
ENCODING 310
SWIDTH 717 0
DWIDTH 34 0
BBX 29 46 4 -11
BITMAP
FE000FF0
FE001FE0
FE003FC0
FE007F80
FE00FF80
FE00FF00
FE01FE00
FE03FC00
FE07F800
FE0FF800
FE0FF000
FE1FE000
FE3FC000
FE7FC000
FEFFC000
FEFFC000
FFFFE000
FFFFE000
FFFFF000
FFF7F800
FFE7F800
FFC3FC00
FF83FC00
FF01FE00
FF00FE00
FE00FF00
FE007F00
FE007F80
FE003FC0
FE003FC0
FE001FE0
FE001FE0
FE000FF0
FE0007F0
FE0007F8
00000000
00000000
003F0000
003F0000
003F0000
003F0000
003E0000
001E0000
001C0000
00380000
00300000
ENDCHAR
STARTCHAR uni0137
ENCODING 311
SWIDTH 579 0
DWIDTH 28 0
BBX 24 47 3 -11
BITMAP
FE0000
FE0000
FE0000
FE0000
FE0000
FE0000
FE0000
FE0000
FE0000
FE0000
FE0000
FE00FF
FE01FC
FE03FC
FE07F8
FE0FF0
FE1FE0
FE1FC0
FE3F80
FE7F00
FEFE00
FFFE00
FFFF00
FFFF00
FFFF80
FFFF80
FF9FC0
FF0FE0
FE0FE0
FE07F0
FE03F8
FE03F8
FE01FC
FE01FC
FE00FE
FE007F
000000
000000
00FC00
00FC00
00FC00
00FC00
00FC00
003800
007000
00E000
00C000
ENDCHAR
STARTCHAR kgreenlandic
ENCODING 312
SWIDTH 601 0
DWIDTH 29 0
BBX 25 25 3 0
BITMAP
FE007F00
FE00FE00
FE01FC00
FE03F800
FE07F000
FE0FE000
FE1FC000
FE3F8000
FE7F0000
FE7F8000
FEFF8000
FFFFC000
FFFFC000
FFFFE000
FFCFE000
FF8FF000
FF07F000
FE07F800
FE03F800
FE03FC00
FE01FE00
FE01FE00
FE00FF00
FE00FF00
FE007F80
ENDCHAR
STARTCHAR Lacute
ENCODING 313
SWIDTH 577 0
DWIDTH 28 0
BBX 22 45 4 0
BITMAP
07F800
07F000
0FE000
1FC000
1F8000
3F0000
7E0000
000000
000000
000000
FE0000
FE0000
FE0000
FE0000
FE0000
FE0000
FE0000
FE0000
FE0000
FE0000
FE0000
FE0000
FE0000
FE0000
FE0000
FE0000
FE0000
FE0000
FE0000
FE0000
FE0000
FE0000
FE0000
FE0000
FE0000
FE0000
FE0000
FE0000
FE0000
FFFFFC
FFFFFC
FFFFFC
FFFFFC
FFFFFC
FFFFFC
ENDCHAR
STARTCHAR lacute
ENCODING 314
SWIDTH 329 0
DWIDTH 16 0
BBX 13 47 3 0
BITMAP
03F8
07F0
0FE0
1FC0
1F80
3F00
7E00
0000
0000
0000
0000
FE00
FE00
FE00
FE00
FE00
FE00
FE00
FE00
FE00
FE00
FE00
FE00
FE00
FE00
FE00
FE00
FE00
FE00
FE00
FE00
FE00
FE00
FE00
FE00
FE00
FE00
FE00
FE00
FE00
FE00
FF00
FFE0
FFE0
7FE0
3FE0
1FE0
ENDCHAR
STARTCHAR uni013B
ENCODING 315
SWIDTH 577 0
DWIDTH 28 0
BBX 22 46 4 -11
BITMAP
FE0000
FE0000
FE0000
FE0000
FE0000
FE0000
FE0000
FE0000
FE0000
FE0000
FE0000
FE0000
FE0000
FE0000
FE0000
FE0000
FE0000
FE0000
FE0000
FE0000
FE0000
FE0000
FE0000
FE0000
FE0000
FE0000
FE0000
FE0000
FE0000
FFFFFC
FFFFFC
FFFFFC
FFFFFC
FFFFFC
FFFFFC
000000
000000
00FC00
00FC00
00FC00
00FC00
00F800
007800
007000
00E000
01C000
ENDCHAR
STARTCHAR uni013C
ENCODING 316
SWIDTH 329 0
DWIDTH 16 0
BBX 11 47 3 -11
BITMAP
FE00
FE00
FE00
FE00
FE00
FE00
FE00
FE00
FE00
FE00
FE00
FE00
FE00
FE00
FE00
FE00
FE00
FE00
FE00
FE00
FE00
FE00
FE00
FE00
FE00
FE00
FE00
FE00
FE00
FE00
FF00
FFE0
FFE0
7FE0
3FE0
1FE0
0000
0000
FC00
FC00
FC00
FC00
FC00
3800
7000
6000
E000
ENDCHAR
STARTCHAR Lcaron
ENCODING 317
SWIDTH 577 0
DWIDTH 28 0
BBX 22 35 4 0
BITMAP
FE01F0
FE01F0
FE01F0
FE01F0
FE01F0
FE01F0
FE0070
FE00E0
FE00E0
FE01C0
FE01C0
FE0000
FE0000
FE0000
FE0000
FE0000
FE0000
FE0000
FE0000
FE0000
FE0000
FE0000
FE0000
FE0000
FE0000
FE0000
FE0000
FE0000
FE0000
FFFFFC
FFFFFC
FFFFFC
FFFFFC
FFFFFC
FFFFFC
ENDCHAR
STARTCHAR lcaron
ENCODING 318
SWIDTH 329 0
DWIDTH 16 0
BBX 14 36 3 0
BITMAP
FE3C
FE3C
FE3C
FE3C
FE3C
FE3C
FE1C
FE1C
FE38
FE38
FE70
FE00
FE00
FE00
FE00
FE00
FE00
FE00
FE00
FE00
FE00
FE00
FE00
FE00
FE00
FE00
FE00
FE00
FE00
FE00
FF00
FFE0
FFE0
7FE0
3FE0
1FE0
ENDCHAR
STARTCHAR Ldot
ENCODING 319
SWIDTH 577 0
DWIDTH 28 0
BBX 22 35 4 0
BITMAP
FE0000
FE0000
FE0000
FE0000
FE0000
FE0000
FE0000
FE0000
FE0000
FE0000
FE0000
FE0000
FE03F8
FE03F8
FE03F8
FE03F8
FE03F8
FE03F8
FE03F8
FE0000
FE0000
FE0000
FE0000
FE0000
FE0000
FE0000
FE0000
FE0000
FE0000
FFFFFC
FFFFFC
FFFFFC
FFFFFC
FFFFFC
FFFFFC
ENDCHAR
STARTCHAR ldot
ENCODING 320
SWIDTH 424 0
DWIDTH 16 0
BBX 17 36 3 0
BITMAP
FE0000
FE0000
FE0000
FE0000
FE0000
FE0000
FE0000
FE0000
FE0000
FE0000
FE0000
FE0000
FE0000
FE0000
FE3F80
FE3F80
FE3F80
FE3F80
FE3F80
FE3F80
FE3F80
FE0000
FE0000
FE0000
FE0000
FE0000
FE0000
FE0000
FE0000
FE0000
FF0000
FFE000
FFE000
7FE000
3FE000
1FE000
ENDCHAR
STARTCHAR Lslash
ENCODING 321
SWIDTH 590 0
DWIDTH 28 0
BBX 27 35 0 0
BITMAP
0FF00000
0FF00000
0FF00000
0FF00000
0FF00000
0FF00000
0FF00000
0FF00000
0FF00000
0FF00000
0FF00000
0FF0E000
0FFFE000
0FFFE000
0FFFE000
FFFFE000
FFFFC000
FFFC0000
FFF00000
FFF00000
EFF00000
0FF00000
0FF00000
0FF00000
0FF00000
0FF00000
0FF00000
0FF00000
0FF00000
0FFFFFE0
0FFFFFE0
0FFFFFE0
0FFFFFE0
0FFFFFE0
0FFFFFE0
ENDCHAR
STARTCHAR lslash
ENCODING 322
SWIDTH 371 0
DWIDTH 18 0
BBX 14 36 2 0
BITMAP
1FC0
1FC0
1FC0
1FC0
1FC0
1FC0
1FC0
1FC0
1FC0
1FC0
1FC0
1FC0
1FC0
1FC4
1FDC
1FFC
1FFC
1FFC
1FFC
1FF0
1FE0
7FC0
FFC0
FFC0
FFC0
FFC0
FFC0
9FC0
9FC0
1FC0
1FC0
1FFC
1FFC
0FFC
0FFC
03FC
ENDCHAR
STARTCHAR Nacute
ENCODING 323
SWIDTH 782 0
DWIDTH 38 0
BBX 30 45 4 0
BITMAP
00007F00
0000FE00
0001FC00
0001F800
0003F000
0007E000
0007C000
00080000
00000000
00000000
FE0001FC
FF0001FC
FF0001FC
FF8001FC
FFC001FC
FFC001FC
FFE001FC
FFF001FC
FFF001FC
FFF801FC
FFFC01FC
FFFE01FC
FEFE01FC
FE7F01FC
FE7F81FC
FE3F81FC
FE1FC1FC
FE1FE1FC
FE0FE1FC
FE07F1FC
FE07F9FC
FE03F9FC
FE01FDFC
FE01FFFC
FE00FFFC
FE007FFC
FE007FFC
FE003FFC
FE001FFC
FE000FFC
FE000FFC
FE0007FC
FE0003FC
FE0003FC
FE0001FC
ENDCHAR
STARTCHAR nacute
ENCODING 324
SWIDTH 593 0
DWIDTH 28 0
BBX 23 35 3 0
BITMAP
0003F8
0007F0
000FE0
000FC0
001F80
003F00
007E00
000000
000000
000000
FE1F80
FE7FE0
FEFFF8
FFFFF8
FFFFFC
FFEFFC
FF01FE
FE01FE
FE00FE
FE00FE
FE00FE
FE00FE
FE00FE
FE00FE
FE00FE
FE00FE
FE00FE
FE00FE
FE00FE
FE00FE
FE00FE
FE00FE
FE00FE
FE00FE
FE00FE
ENDCHAR
STARTCHAR uni0145
ENCODING 325
SWIDTH 782 0
DWIDTH 38 0
BBX 30 46 4 -11
BITMAP
FE0001FC
FF0001FC
FF0001FC
FF8001FC
FFC001FC
FFC001FC
FFE001FC
FFF001FC
FFF001FC
FFF801FC
FFFC01FC
FFFE01FC
FEFE01FC
FE7F01FC
FE7F81FC
FE3F81FC
FE1FC1FC
FE1FE1FC
FE0FE1FC
FE07F1FC
FE07F9FC
FE03F9FC
FE01FDFC
FE01FFFC
FE00FFFC
FE007FFC
FE007FFC
FE003FFC
FE001FFC
FE000FFC
FE000FFC
FE0007FC
FE0003FC
FE0003FC
FE0001FC
00000000
00000000
001F8000
001F8000
001F8000
001F8000
001F8000
00070000
000E0000
000E0000
001C0000
ENDCHAR
STARTCHAR uni0146
ENCODING 326
SWIDTH 593 0
DWIDTH 28 0
BBX 23 36 3 -11
BITMAP
FE1F80
FE7FE0
FEFFF8
FFFFF8
FFFFFC
FFEFFC
FF01FE
FE01FE
FE00FE
FE00FE
FE00FE
FE00FE
FE00FE
FE00FE
FE00FE
FE00FE
FE00FE
FE00FE
FE00FE
FE00FE
FE00FE
FE00FE
FE00FE
FE00FE
FE00FE
000000
000000
00FC00
00FC00
00FC00
00FC00
00FC00
003800
007000
006000
00E000
ENDCHAR
STARTCHAR Ncaron
ENCODING 327
SWIDTH 782 0
DWIDTH 38 0
BBX 30 44 4 0
BITMAP
03F07E00
01F87C00
00FCF800
003FF000
001FE000
000FC000
00000000
00000000
00000000
FE0001FC
FF0001FC
FF0001FC
FF8001FC
FFC001FC
FFC001FC
FFE001FC
FFF001FC
FFF001FC
FFF801FC
FFFC01FC
FFFE01FC
FEFE01FC
FE7F01FC
FE7F81FC
FE3F81FC
FE1FC1FC
FE1FE1FC
FE0FE1FC
FE07F1FC
FE07F9FC
FE03F9FC
FE01FDFC
FE01FFFC
FE00FFFC
FE007FFC
FE007FFC
FE003FFC
FE001FFC
FE000FFC
FE000FFC
FE0007FC
FE0003FC
FE0003FC
FE0001FC
ENDCHAR
STARTCHAR ncaron
ENCODING 328
SWIDTH 593 0
DWIDTH 28 0
BBX 23 34 3 0
BITMAP
1F03F0
0F87E0
07CFC0
03EF80
01FF00
00FE00
000000
000000
000000
FE1F80
FE7FE0
FEFFF8
FFFFF8
FFFFFC
FFEFFC
FF01FE
FE01FE
FE00FE
FE00FE
FE00FE
FE00FE
FE00FE
FE00FE
FE00FE
FE00FE
FE00FE
FE00FE
FE00FE
FE00FE
FE00FE
FE00FE
FE00FE
FE00FE
FE00FE
ENDCHAR
STARTCHAR Eng
ENCODING 330
SWIDTH 782 0
DWIDTH 38 0
BBX 30 47 4 -12
BITMAP
FE0001FC
FF0001FC
FF0001FC
FF8001FC
FFC001FC
FFC001FC
FFE001FC
FFF001FC
FFF001FC
FFF801FC
FFFC01FC
FFFE01FC
FEFE01FC
FE7F01FC
FE7F81FC
FE3F81FC
FE1FC1FC
FE1FE1FC
FE0FE1FC
FE07F1FC
FE07F9FC
FE03F9FC
FE01FDFC
FE01FFFC
FE00FFFC
FE007FFC
FE007FFC
FE003FFC
FE001FFC
FE000FFC
FE000FFC
FE0007FC
FE0003FC
FE0003FC
FE0001FC
000001FC
000001FC
000003FC
000003FC
000107F8
0001FFF8
0001FFF8
0001FFF8
0001FFF0
0001FFE0
0001FFC0
00000C00
ENDCHAR
STARTCHAR eng
ENCODING 331
SWIDTH 600 0
DWIDTH 29 0
BBX 23 33 3 -8
BITMAP
FE0FE0
FE3FF8
FE7FF8
FFFFFC
FFFFFC
FFC1FE
FF01FE
FE00FE
FE00FE
FE00FE
FE00FE
FE00FE
FE00FE
FE00FE
FE00FE
FE00FE
FE00FE
FE00FE
FE00FE
FE00FE
FE00FE
FE00FE
FE00FE
FE00FE
FE00FE
0000FE
0001FE
0007FC
000FFC
000FFC
000FF8
000FF0
000FC0
ENDCHAR
STARTCHAR Omacron
ENCODING 332
SWIDTH 760 0
DWIDTH 37 0
BBX 32 43 2 0
BITMAP
00FFFF80
00FFFF80
00FFFF80
00FFFF80
00000000
00000000
00000000
00000000
001FF800
007FFF00
01FFFF80
03FFFFE0
07FFFFF0
0FFFFFF8
1FF00FF8
1FE007FC
3FC003FC
3FC001FE
7F8001FE
7F8000FE
7F8000FF
7F0000FF
FF0000FF
FF0000FF
FF00007F
FF00007F
FF00007F
FF00007F
FF0000FF
7F0000FF
7F0000FF
7F8000FF
7F8000FE
7F8001FE
3FC001FE
3FE003FC
1FF007FC
0FFE3FF8
0FFFFFF0
07FFFFE0
01FFFFC0
00FFFF80
003FFC00
ENDCHAR
STARTCHAR omacron
ENCODING 333
SWIDTH 575 0
DWIDTH 28 0
BBX 24 33 2 0
BITMAP
1FFFF0
1FFFF0
1FFFF0
1FFFF0
000000
000000
000000
000000
01FF80
07FFE0
0FFFF0
1FFFF8
3FFFFC
7F83FC
7F01FE
7F00FE
FE00FE
FE007F
FE007F
FE007F
FE007F
FE007F
FE007F
FE007F
FE00FE
FF00FE
7F01FE
7F83FC
3FFFFC
1FFFF8
0FFFF0
07FFE0
01FF80
ENDCHAR
STARTCHAR Obreve
ENCODING 334
SWIDTH 760 0
DWIDTH 37 0
BBX 32 44 2 0
BITMAP
00F00F80
00F81F00
007C3F00
007FFE00
001FFC00
000FF000
00000000
00000000
00000000
001FF800
007FFF00
01FFFF80
03FFFFE0
07FFFFF0
0FFFFFF8
1FF00FF8
1FE007FC
3FC003FC
3FC001FE
7F8001FE
7F8000FE
7F8000FF
7F0000FF
FF0000FF
FF0000FF
FF00007F
FF00007F
FF00007F
FF00007F
FF0000FF
7F0000FF
7F0000FF
7F8000FF
7F8000FE
7F8001FE
3FC001FE
3FE003FC
1FF007FC
0FFE3FF8
0FFFFFF0
07FFFFE0
01FFFFC0
00FFFF80
003FFC00
ENDCHAR
STARTCHAR obreve
ENCODING 335
SWIDTH 575 0
DWIDTH 28 0
BBX 24 34 2 0
BITMAP
1F00F0
0F81F0
0FC3E0
07FFE0
03FFC0
00FF00
000000
000000
000000
01FF80
07FFE0
0FFFF0
1FFFF8
3FFFFC
7F83FC
7F01FE
7F00FE
FE00FE
FE007F
FE007F
FE007F
FE007F
FE007F
FE007F
FE007F
FE00FE
FF00FE
7F01FE
7F83FC
3FFFFC
1FFFF8
0FFFF0
07FFE0
01FF80
ENDCHAR
STARTCHAR Ohungarumlaut
ENCODING 336
SWIDTH 760 0
DWIDTH 37 0
BBX 32 45 2 0
BITMAP
0003F8FE
0003F1F8
0007E3F0
000FC7E0
001F8FC0
001F0F80
003E3F00
00000000
00000000
00000000
001FF800
007FFF00
01FFFF80
03FFFFE0
07FFFFF0
0FFFFFF8
1FF00FF8
1FE007FC
3FC003FC
3FC001FE
7F8001FE
7F8000FE
7F8000FF
7F0000FF
FF0000FF
FF0000FF
FF00007F
FF00007F
FF00007F
FF00007F
FF0000FF
7F0000FF
7F0000FF
7F8000FF
7F8000FE
7F8001FE
3FC001FE
3FE003FC
1FF007FC
0FFE3FF8
0FFFFFF0
07FFFFE0
01FFFFC0
00FFFF80
003FFC00
ENDCHAR
STARTCHAR ohungarumlaut
ENCODING 337
SWIDTH 575 0
DWIDTH 28 0
BBX 26 35 2 0
BITMAP
003F1FC0
007E3F80
00FC3F00
00FC7E00
01F8FC00
03F1F800
07E3E000
00000000
00000000
00000000
01FF8000
07FFE000
0FFFF000
1FFFF800
3FFFFC00
7F83FC00
7F01FE00
7F00FE00
FE00FE00
FE007F00
FE007F00
FE007F00
FE007F00
FE007F00
FE007F00
FE007F00
FE00FE00
FF00FE00
7F01FE00
7F83FC00
3FFFFC00
1FFFF800
0FFFF000
07FFE000
01FF8000
ENDCHAR
STARTCHAR OE
ENCODING 338
SWIDTH 1127 0
DWIDTH 54 0
BBX 50 35 2 0
BITMAP
001FF87FFFFF80
007FFE7FFFFF80
01FFFF7FFFFF80
03FFFFFFFFFF80
07FFFFFFFFFF80
0FFFFFFFFFFF80
1FF00FFF800000
1FE007FF800000
3FC003FF800000
3FC001FF800000
7F8001FF800000
7F8000FF800000
7F8000FF800000
7F0000FF800000
FF0000FF800000
FF0000FFFFFE00
FF00007FFFFE00
FF00007FFFFE00
FF00007FFFFE00
FF00007FFFFE00
FF0000FF800000
7F0000FF800000
7F0000FF800000
7F8000FF800000
7F8000FF800000
7F8001FF800000
3FC001FF800000
3FE003FF800000
1FF007FF800000
0FFE3FFFFFFFC0
0FFFFFFFFFFFC0
07FFFFFFFFFFC0
01FFFFFFFFFFC0
00FFFE7FFFFFC0
003FFC7FFFFFC0
ENDCHAR
STARTCHAR oe
ENCODING 339
SWIDTH 934 0
DWIDTH 45 0
BBX 41 25 2 0
BITMAP
01FF007FC000
07FFC1FFF000
0FFFE3FFF800
1FFFF7FFFC00
3FFFFFFFFE00
7F83FFC0FE00
7F01FF807F00
7F00FF803F00
FE00FF003F00
FE007F003F80
FE007FFFFF80
FE007FFFFF80
FE007FFFFF80
FE007FFFFF80
FE007F000000
FE007F000000
FE00FF000000
FF00FF803F80
7F01FF803F00
7F83FFC07F00
3FFFFFFFFF00
1FFFF7FFFE00
0FFFF7FFFC00
07FFC1FFF800
01FF807FE000
ENDCHAR
STARTCHAR Racute
ENCODING 340
SWIDTH 696 0
DWIDTH 33 0
BBX 27 45 4 0
BITMAP
0003FC00
0003F800
0007F000
000FE000
000FC000
001F8000
003F0000
00000000
00000000
00000000
FFFFC000
FFFFF800
FFFFFE00
FFFFFF00
FFFFFF80
FFFFFF80
FE007FC0
FE003FC0
FE001FC0
FE001FC0
FE001FC0
FE001FC0
FE001FC0
FE001FC0
FE003FC0
FE007FC0
FFFFFF80
FFFFFF00
FFFFFE00
FFFFFC00
FFFFF000
FFFFF800
FE03F800
FE01FC00
FE01FC00
FE00FE00
FE00FE00
FE00FE00
FE007F00
FE007F00
FE003F80
FE003F80
FE001FC0
FE001FC0
FE001FE0
ENDCHAR
STARTCHAR racute
ENCODING 341
SWIDTH 412 0
DWIDTH 20 0
BBX 17 35 3 0
BITMAP
003F80
007F00
00FE00
00FC00
01F800
03F000
03E000
040000
000000
000000
FE1F00
FE3F00
FE7F00
FEFF00
FFFF00
FFFF00
FFE100
FF8000
FF0000
FE0000
FE0000
FE0000
FE0000
FE0000
FE0000
FE0000
FE0000
FE0000
FE0000
FE0000
FE0000
FE0000
FE0000
FE0000
FE0000
ENDCHAR
STARTCHAR uni0156
ENCODING 342
SWIDTH 696 0
DWIDTH 33 0
BBX 27 46 4 -11
BITMAP
FFFFC000
FFFFF800
FFFFFE00
FFFFFF00
FFFFFF80
FFFFFF80
FE007FC0
FE003FC0
FE001FC0
FE001FC0
FE001FC0
FE001FC0
FE001FC0
FE001FC0
FE003FC0
FE007FC0
FFFFFF80
FFFFFF00
FFFFFE00
FFFFFC00
FFFFF000
FFFFF800
FE03F800
FE01FC00
FE01FC00
FE00FE00
FE00FE00
FE00FE00
FE007F00
FE007F00
FE003F80
FE003F80
FE001FC0
FE001FC0
FE001FE0
00000000
00000000
003F0000
003F0000
003F0000
003F0000
003E0000
001E0000
001C0000
00380000
00700000
ENDCHAR
STARTCHAR uni0157
ENCODING 343
SWIDTH 412 0
DWIDTH 20 0
BBX 16 36 3 -11
BITMAP
FE1F
FE3F
FE7F
FEFF
FFFF
FFFF
FFE1
FF80
FF00
FE00
FE00
FE00
FE00
FE00
FE00
FE00
FE00
FE00
FE00
FE00
FE00
FE00
FE00
FE00
FE00
0000
0000
FC00
FC00
FC00
FC00
FC00
3800
7000
7000
E000
ENDCHAR
STARTCHAR Rcaron
ENCODING 344
SWIDTH 696 0
DWIDTH 33 0
BBX 27 44 4 0
BITMAP
0F81F800
07C3E000
03E7C000
01FFC000
00FF8000
007F0000
00000000
00000000
00000000
FFFFC000
FFFFF800
FFFFFE00
FFFFFF00
FFFFFF80
FFFFFF80
FE007FC0
FE003FC0
FE001FC0
FE001FC0
FE001FC0
FE001FC0
FE001FC0
FE001FC0
FE003FC0
FE007FC0
FFFFFF80
FFFFFF00
FFFFFE00
FFFFFC00
FFFFF000
FFFFF800
FE03F800
FE01FC00
FE01FC00
FE00FE00
FE00FE00
FE00FE00
FE007F00
FE007F00
FE003F80
FE003F80
FE001FC0
FE001FC0
FE001FE0
ENDCHAR
STARTCHAR rcaron
ENCODING 345
SWIDTH 412 0
DWIDTH 20 0
BBX 17 34 2 0
BITMAP
FC1F80
3E1F00
1F3E00
0FFC00
07F800
03F000
000000
000000
000000
7F0F80
7F1F80
7F3F80
7F7F80
7FFF80
7FFF80
7FF080
7FC000
7F8000
7F0000
7F0000
7F0000
7F0000
7F0000
7F0000
7F0000
7F0000
7F0000
7F0000
7F0000
7F0000
7F0000
7F0000
7F0000
7F0000
ENDCHAR
STARTCHAR Sacute
ENCODING 346
SWIDTH 692 0
DWIDTH 33 0
BBX 29 45 2 0
BITMAP
00007F00
0000FE00
0001FC00
0001F800
0003F000
0007E000
000FC000
00000000
00000000
00000000
003FF000
01FFFE00
03FFFF00
0FFFFFC0
1FFFFFC0
1FFCFFE0
3FC01FF0
3FC00FF0
3F8007F0
7F8007F0
7F800008
7F800000
3FC00000
3FF80000
3FFF8000
1FFFFC00
1FFFFF00
07FFFFC0
03FFFFE0
00FFFFE0
0007FFF0
00007FF0
00000FF8
000007F8
000003F8
FF0003F8
7F0003F8
7F8007F8
7FC00FF0
3FF03FF0
1FFFFFE0
0FFFFFC0
07FFFF80
03FFFE00
007FF800
ENDCHAR
STARTCHAR sacute
ENCODING 347
SWIDTH 527 0
DWIDTH 25 0
BBX 21 35 2 0
BITMAP
0007F8
0007E0
000FC0
001F80
003F00
003E00
007C00
008000
000000
000000
03FF00
0FFFC0
1FFFE0
3FFFF0
7FCFF8
7E03F8
7E01F8
7E0000
7F0000
7FE000
7FFE00
3FFFC0
1FFFE0
0FFFF0
01FFF8
000FF8
0001F8
FC01F8
FC01F8
FE01F8
7FC7F8
3FFFF0
3FFFF0
0FFFC0
03FF80
ENDCHAR
STARTCHAR Scircumflex
ENCODING 348
SWIDTH 692 0
DWIDTH 33 0
BBX 29 44 2 0
BITMAP
000FC000
001FE000
003FF000
007DF800
00F8FC00
01F07E00
02000000
00000000
00000000
003FF000
01FFFE00
03FFFF00
0FFFFFC0
1FFFFFC0
1FFCFFE0
3FC01FF0
3FC00FF0
3F8007F0
7F8007F0
7F800008
7F800000
3FC00000
3FF80000
3FFF8000
1FFFFC00
1FFFFF00
07FFFFC0
03FFFFE0
00FFFFE0
0007FFF0
00007FF0
00000FF8
000007F8
000003F8
FF0003F8
7F0003F8
7F8007F8
7FC00FF0
3FF03FF0
1FFFFFE0
0FFFFFC0
07FFFF80
03FFFE00
007FF800
ENDCHAR
STARTCHAR scircumflex
ENCODING 349
SWIDTH 527 0
DWIDTH 25 0
BBX 21 34 2 0
BITMAP
00FC00
01FE00
03FF00
07CF80
0F87C0
1F07E0
200010
000000
000000
03FF00
0FFFC0
1FFFE0
3FFFF0
7FCFF8
7E03F8
7E01F8
7E0000
7F0000
7FE000
7FFE00
3FFFC0
1FFFE0
0FFFF0
01FFF8
000FF8
0001F8
FC01F8
FC01F8
FE01F8
7FC7F8
3FFFF0
3FFFF0
0FFFC0
03FF80
ENDCHAR
STARTCHAR Scedilla
ENCODING 350
SWIDTH 692 0
DWIDTH 33 0
BBX 29 45 2 -10
BITMAP
003FF000
01FFFE00
03FFFF00
0FFFFFC0
1FFFFFC0
1FFCFFE0
3FC01FF0
3FC00FF0
3F8007F0
7F8007F0
7F800008
7F800000
3FC00000
3FF80000
3FFF8000
1FFFFC00
1FFFFF00
07FFFFC0
03FFFFE0
00FFFFE0
0007FFF0
00007FF0
00000FF8
000007F8
000003F8
FF0003F8
7F0003F8
7F8007F8
7FC00FF0
3FF03FF0
1FFFFFE0
0FFFFFC0
07FFFF80
03FFFE00
007FF800
00070000
000F0000
000E0000
001FE000
0003F000
0000F000
0000F000
0071F000
007FE000
003FC000
ENDCHAR
STARTCHAR scedilla
ENCODING 351
SWIDTH 527 0
DWIDTH 25 0
BBX 21 35 2 -10
BITMAP
03FF00
0FFFC0
1FFFE0
3FFFF0
7FCFF8
7E03F8
7E01F8
7E0000
7F0000
7FE000
7FFE00
3FFFC0
1FFFE0
0FFFF0
01FFF8
000FF8
0001F8
FC01F8
FC01F8
FE01F8
7FC7F8
3FFFF0
3FFFF0
0FFFC0
03FF80
007000
007000
00F000
00FE00
003F00
000F00
000F00
031F00
07FE00
03FC00
ENDCHAR
STARTCHAR Scaron
ENCODING 352
SWIDTH 692 0
DWIDTH 33 0
BBX 29 44 2 0
BITMAP
03F07E00
01F8FC00
00FCF800
007FF000
003FE000
001FC000
00000000
00000000
00000000
003FF000
01FFFE00
03FFFF00
0FFFFFC0
1FFFFFC0
1FFCFFE0
3FC01FF0
3FC00FF0
3F8007F0
7F8007F0
7F800008
7F800000
3FC00000
3FF80000
3FFF8000
1FFFFC00
1FFFFF00
07FFFFC0
03FFFFE0
00FFFFE0
0007FFF0
00007FF0
00000FF8
000007F8
000003F8
FF0003F8
7F0003F8
7F8007F8
7FC00FF0
3FF03FF0
1FFFFFE0
0FFFFFC0
07FFFF80
03FFFE00
007FF800
ENDCHAR
STARTCHAR scaron
ENCODING 353
SWIDTH 527 0
DWIDTH 25 0
BBX 21 34 2 0
BITMAP
3F03F0
0F87C0
07CF80
03FF00
01FE00
00FC00
000000
000000
000000
03FF00
0FFFC0
1FFFE0
3FFFF0
7FCFF8
7E03F8
7E01F8
7E0000
7F0000
7FE000
7FFE00
3FFFC0
1FFFE0
0FFFF0
01FFF8
000FF8
0001F8
FC01F8
FC01F8
FE01F8
7FC7F8
3FFFF0
3FFFF0
0FFFC0
03FF80
ENDCHAR
STARTCHAR uni0162
ENCODING 354
SWIDTH 616 0
DWIDTH 30 0
BBX 28 45 1 -10
BITMAP
FFFFFFF0
FFFFFFF0
FFFFFFF0
FFFFFFF0
FFFFFFF0
FFFFFFF0
FFFFFFF0
003F8000
003F8000
003F8000
003F8000
003F8000
003F8000
003F8000
003F8000
003F8000
003F8000
003F8000
003F8000
003F8000
003F8000
003F8000
003F8000
003F8000
003F8000
003F8000
003F8000
003F8000
003F8000
003F8000
003F8000
003F8000
003F8000
003F8000
003F8000
000F0000
000E0000
000E0000
001FC000
0003E000
0001F000
0040F000
0073F000
00FFE000
003F8000
ENDCHAR
STARTCHAR uni0163
ENCODING 355
SWIDTH 416 0
DWIDTH 20 0
BBX 17 42 1 -10
BITMAP
03E000
03E000
03E000
03E000
07E000
07E000
07E000
FFFF80
FFFF80
FFFF80
FFFF80
FFFF80
0FE000
0FE000
0FE000
0FE000
0FE000
0FE000
0FE000
0FE000
0FE000
0FE000
0FE000
0FE000
0FE000
0FF000
0FF000
07FF80
07FF80
07FF80
03FF80
00FF80
007000
00F000
00F800
01FE00
001F00
000F00
020F00
07FF00
07FE00
01F800
ENDCHAR
STARTCHAR Tcaron
ENCODING 356
SWIDTH 616 0
DWIDTH 30 0
BBX 28 44 1 0
BITMAP
07E07E00
01F0F800
00F9F000
007FE000
003FC000
001F8000
00000000
00000000
00000000
FFFFFFF0
FFFFFFF0
FFFFFFF0
FFFFFFF0
FFFFFFF0
FFFFFFF0
FFFFFFF0
003F8000
003F8000
003F8000
003F8000
003F8000
003F8000
003F8000
003F8000
003F8000
003F8000
003F8000
003F8000
003F8000
003F8000
003F8000
003F8000
003F8000
003F8000
003F8000
003F8000
003F8000
003F8000
003F8000
003F8000
003F8000
003F8000
003F8000
003F8000
ENDCHAR
STARTCHAR tcaron
ENCODING 357
SWIDTH 450 0
DWIDTH 22 0
BBX 18 38 1 0
BITMAP
0007C0
0007C0
0007C0
0007C0
0007C0
0007C0
03E1C0
03E3C0
03E380
03E380
07E700
07E000
07E000
FFFF80
FFFF80
FFFF80
FFFF80
FFFF80
0FE000
0FE000
0FE000
0FE000
0FE000
0FE000
0FE000
0FE000
0FE000
0FE000
0FE000
0FE000
0FE000
0FF000
0FF000
07FF80
07FF80
07FF80
03FF80
00FF80
ENDCHAR
STARTCHAR Tbar
ENCODING 358
SWIDTH 616 0
DWIDTH 30 0
BBX 28 35 1 0
BITMAP
FFFFFFF0
FFFFFFF0
FFFFFFF0
FFFFFFF0
FFFFFFF0
FFFFFFF0
FFFFFFF0
003F8000
003F8000
003F8000
003F8000
003F8000
003F8000
003F8000
003F8000
003F8000
0FFFFE00
0FFFFE00
0FFFFE00
0FFFFE00
0FFFFE00
003F8000
003F8000
003F8000
003F8000
003F8000
003F8000
003F8000
003F8000
003F8000
003F8000
003F8000
003F8000
003F8000
003F8000
ENDCHAR
STARTCHAR tbar
ENCODING 359
SWIDTH 416 0
DWIDTH 20 0
BBX 17 32 1 0
BITMAP
03E000
03E000
03E000
03E000
07E000
07E000
07E000
FFFF80
FFFF80
FFFF80
FFFF80
FFFF80
0FE000
0FE000
0FE000
0FE000
7FFF00
7FFF00
7FFF00
7FFF00
0FE000
0FE000
0FE000
0FE000
0FE000
0FF000
0FF000
07FF80
07FF80
07FF80
03FF80
00FF80
ENDCHAR
STARTCHAR Utilde
ENCODING 360
SWIDTH 724 0
DWIDTH 35 0
BBX 28 45 4 0
BITMAP
00000400
01FE0C00
03FFFC00
03FFFC00
03FFFC00
0303F800
00000000
00000000
00000000
00000000
FE0007F0
FE0007F0
FE0007F0
FE0007F0
FE0007F0
FE0007F0
FE0007F0
FE0007F0
FE0007F0
FE0007F0
FE0007F0
FE0007F0
FE0007F0
FE0007F0
FE0007F0
FE0007F0
FE0007F0
FE0007F0
FE0007F0
FE0007F0
FE0007F0
FE0007F0
FE0007F0
FE000FF0
FE000FE0
FF000FE0
FF000FE0
7F801FE0
7FC03FE0
7FFFFFC0
3FFFFF80
1FFFFF80
0FFFFF00
07FFFC00
01FFF000
ENDCHAR
STARTCHAR utilde
ENCODING 361
SWIDTH 595 0
DWIDTH 29 0
BBX 23 35 3 0
BITMAP
000020
07F060
1FFFE0
1FFFE0
0FFFF0
081FC0
000000
000000
000000
000000
FE00FE
FE00FE
FE00FE
FE00FE
FE00FE
FE00FE
FE00FE
FE00FE
FE00FE
FE00FE
FE00FE
FE00FE
FE00FE
FE00FE
FE00FE
FE00FE
FE00FE
FE01FE
FE01FE
FF03FE
FFFF7E
7FFF7E
3FFF7E
1FFE7E
07F87E
ENDCHAR
STARTCHAR Umacron
ENCODING 362
SWIDTH 724 0
DWIDTH 35 0
BBX 28 43 4 0
BITMAP
07FFFC00
07FFFC00
07FFFC00
07FFFC00
00000000
00000000
00000000
00000000
FE0007F0
FE0007F0
FE0007F0
FE0007F0
FE0007F0
FE0007F0
FE0007F0
FE0007F0
FE0007F0
FE0007F0
FE0007F0
FE0007F0
FE0007F0
FE0007F0
FE0007F0
FE0007F0
FE0007F0
FE0007F0
FE0007F0
FE0007F0
FE0007F0
FE0007F0
FE0007F0
FE000FF0
FE000FE0
FF000FE0
FF000FE0
7F801FE0
7FC03FE0
7FFFFFC0
3FFFFF80
1FFFFF80
0FFFFF00
07FFFC00
01FFF000
ENDCHAR
STARTCHAR umacron
ENCODING 363
SWIDTH 595 0
DWIDTH 29 0
BBX 23 33 3 0
BITMAP
1FFFF0
1FFFF0
1FFFF0
1FFFF0
000000
000000
000000
000000
FE00FE
FE00FE
FE00FE
FE00FE
FE00FE
FE00FE
FE00FE
FE00FE
FE00FE
FE00FE
FE00FE
FE00FE
FE00FE
FE00FE
FE00FE
FE00FE
FE00FE
FE01FE
FE01FE
FF03FE
FFFF7E
7FFF7E
3FFF7E
1FFE7E
07F87E
ENDCHAR
STARTCHAR Ubreve
ENCODING 364
SWIDTH 724 0
DWIDTH 35 0
BBX 28 44 4 0
BITMAP
07C03C00
03E07C00
03F0F800
01FFF800
00FFE000
003FC000
00000000
00000000
00000000
FE0007F0
FE0007F0
FE0007F0
FE0007F0
FE0007F0
FE0007F0
FE0007F0
FE0007F0
FE0007F0
FE0007F0
FE0007F0
FE0007F0
FE0007F0
FE0007F0
FE0007F0
FE0007F0
FE0007F0
FE0007F0
FE0007F0
FE0007F0
FE0007F0
FE0007F0
FE0007F0
FE000FF0
FE000FE0
FF000FE0
FF000FE0
7F801FE0
7FC03FE0
7FFFFFC0
3FFFFF80
1FFFFF80
0FFFFF00
07FFFC00
01FFF000
ENDCHAR
STARTCHAR ubreve
ENCODING 365
SWIDTH 595 0
DWIDTH 29 0
BBX 23 34 3 0
BITMAP
1E01F0
1F03E0
0F87E0
0FFFC0
07FF80
01FE00
000000
000000
000000
FE00FE
FE00FE
FE00FE
FE00FE
FE00FE
FE00FE
FE00FE
FE00FE
FE00FE
FE00FE
FE00FE
FE00FE
FE00FE
FE00FE
FE00FE
FE00FE
FE00FE
FE01FE
FE01FE
FF03FE
FFFF7E
7FFF7E
3FFF7E
1FFE7E
07F87E
ENDCHAR
STARTCHAR Uring
ENCODING 366
SWIDTH 724 0
DWIDTH 35 0
BBX 28 47 4 0
BITMAP
001F0000
003FC000
007FC000
0070E000
0060E000
0060E000
0070E000
007FC000
003FC000
001F0000
00000000
00000000
FE0007F0
FE0007F0
FE0007F0
FE0007F0
FE0007F0
FE0007F0
FE0007F0
FE0007F0
FE0007F0
FE0007F0
FE0007F0
FE0007F0
FE0007F0
FE0007F0
FE0007F0
FE0007F0
FE0007F0
FE0007F0
FE0007F0
FE0007F0
FE0007F0
FE0007F0
FE0007F0
FE000FF0
FE000FE0
FF000FE0
FF000FE0
7F801FE0
7FC03FE0
7FFFFFC0
3FFFFF80
1FFFFF80
0FFFFF00
07FFFC00
01FFF000
ENDCHAR
STARTCHAR uring
ENCODING 367
SWIDTH 595 0
DWIDTH 29 0
BBX 23 37 3 0
BITMAP
007C00
01FE00
01FF00
038700
038700
038700
038700
01FF00
01FE00
007C00
000000
000000
FE00FE
FE00FE
FE00FE
FE00FE
FE00FE
FE00FE
FE00FE
FE00FE
FE00FE
FE00FE
FE00FE
FE00FE
FE00FE
FE00FE
FE00FE
FE00FE
FE00FE
FE01FE
FE01FE
FF03FE
FFFF7E
7FFF7E
3FFF7E
1FFE7E
07F87E
ENDCHAR
STARTCHAR Uhungarumlaut
ENCODING 368
SWIDTH 724 0
DWIDTH 35 0
BBX 28 45 4 0
BITMAP
000FC7F0
001F8FE0
003F0FC0
003E1F80
007E3F00
00FC7C00
01F8F800
00000000
00000000
00000000
FE0007F0
FE0007F0
FE0007F0
FE0007F0
FE0007F0
FE0007F0
FE0007F0
FE0007F0
FE0007F0
FE0007F0
FE0007F0
FE0007F0
FE0007F0
FE0007F0
FE0007F0
FE0007F0
FE0007F0
FE0007F0
FE0007F0
FE0007F0
FE0007F0
FE0007F0
FE0007F0
FE000FF0
FE000FE0
FF000FE0
FF000FE0
7F801FE0
7FC03FE0
7FFFFFC0
3FFFFF80
1FFFFF80
0FFFFF00
07FFFC00
01FFF000
ENDCHAR
STARTCHAR uhungarumlaut
ENCODING 369
SWIDTH 595 0
DWIDTH 29 0
BBX 25 35 3 0
BITMAP
007F1F80
00FE3F00
00FC7E00
01F8FC00
03F1F800
03E3F000
07C7E000
08000000
00000000
00000000
FE00FE00
FE00FE00
FE00FE00
FE00FE00
FE00FE00
FE00FE00
FE00FE00
FE00FE00
FE00FE00
FE00FE00
FE00FE00
FE00FE00
FE00FE00
FE00FE00
FE00FE00
FE00FE00
FE00FE00
FE01FE00
FE01FE00
FF03FE00
FFFF7E00
7FFF7E00
3FFF7E00
1FFE7E00
07F87E00
ENDCHAR
STARTCHAR Uogonek
ENCODING 370
SWIDTH 724 0
DWIDTH 35 0
BBX 28 43 4 -8
BITMAP
FE0007F0
FE0007F0
FE0007F0
FE0007F0
FE0007F0
FE0007F0
FE0007F0
FE0007F0
FE0007F0
FE0007F0
FE0007F0
FE0007F0
FE0007F0
FE0007F0
FE0007F0
FE0007F0
FE0007F0
FE0007F0
FE0007F0
FE0007F0
FE0007F0
FE0007F0
FE0007F0
FE000FF0
FE000FE0
FF000FE0
FF000FE0
7F801FE0
7FC03FE0
7FFFFFC0
3FFFFF80
1FFFFF80
0FFFFF00
07FFFC00
01FFF000
001F0000
003E0000
007C0000
007C0000
007E6000
007FE000
007FE000
001FC000
ENDCHAR
STARTCHAR uogonek
ENCODING 371
SWIDTH 595 0
DWIDTH 29 0
BBX 23 33 3 -8
BITMAP
FE00FE
FE00FE
FE00FE
FE00FE
FE00FE
FE00FE
FE00FE
FE00FE
FE00FE
FE00FE
FE00FE
FE00FE
FE00FE
FE00FE
FE00FE
FE00FE
FE00FE
FE01FE
FE01FE
FF03FE
FFFF7E
7FFF7E
3FFF7E
1FFE7E
07F87E
0001F8
0003E0
0007C0
0007C0
0007E6
0007FE
0003FE
0001FC
ENDCHAR
STARTCHAR Wcircumflex
ENCODING 372
SWIDTH 968 0
DWIDTH 46 0
BBX 45 44 1 0
BITMAP
00001F800000
00003FC00000
00007FE00000
0000FDF00000
0001F8F80000
0003F07C0000
000400020000
000000000000
000000000000
FE000F8003F8
FE001F8007F0
7E001F8007F0
7F001FC007F0
7F003FC007E0
7F003FC00FE0
3F803FE00FE0
3F803FE00FC0
3F807FE01FC0
1F807FE01FC0
1FC07FF01FC0
1FC07FF01F80
0FC0FFF03F80
0FE0FDF83F80
0FE0FDF83F00
0FE1F9F87F00
07E1F9F87F00
07F1F8FC7F00
07F1F0FC7E00
03F3F0FCFE00
03F3F07EFE00
03FBF07EFC00
03FFE07FFC00
01FFE07FFC00
01FFE03FF800
01FFC03FF800
00FFC03FF800
00FFC01FF800
00FFC01FF000
007F801FF000
007F801FF000
007F800FE000
007F000FE000
003F000FE000
003F0007C000
ENDCHAR
STARTCHAR wcircumflex
ENCODING 373
SWIDTH 788 0
DWIDTH 38 0
BBX 36 34 1 0
BITMAP
0001F80000
0003FC0000
0007FE0000
000FDF0000
001F0F8000
003E07C000
0040002000
0000000000
0000000000
FC01F803F0
FC01F807F0
FE01F807E0
7E03F807E0
7E03FC07E0
7F03FC0FC0
3F07FC0FC0
3F07FE0FC0
3F07FE1F80
1F87FE1F80
1F8FFF1F80
1F8FBF3F00
0FCF9F3F00
0FDF9F3F00
0FDF1FBE00
07FF1FFE00
07FF0FFE00
07FE0FFC00
03FE0FFC00
03FE07FC00
03FE07F800
01FC07F800
01FC03F800
01FC03F000
00F803F000
ENDCHAR
STARTCHAR Ycircumflex
ENCODING 374
SWIDTH 667 0
DWIDTH 32 0
BBX 32 44 0 0
BITMAP
0003F000
0007F800
000FFC00
001F7E00
003E3F00
007C1F80
00800000
00000000
00000000
FF0000FF
7F8001FE
3F8001FC
3FC003FC
1FC003F8
0FE007F0
0FF00FF0
07F00FE0
07F81FE0
03F81FC0
01FC3F80
01FC3F80
00FE7F00
00FF7F00
007FFE00
003FFC00
003FFC00
001FF800
001FF800
000FF000
000FF000
000FF000
000FF000
000FF000
000FF000
000FF000
000FF000
000FF000
000FF000
000FF000
000FF000
000FF000
000FF000
000FF000
000FF000
ENDCHAR
STARTCHAR ycircumflex
ENCODING 375
SWIDTH 563 0
DWIDTH 27 0
BBX 25 42 1 -8
BITMAP
003F0000
007F8000
00FFC000
01F7E000
03E3F000
07C1F800
08000000
00000000
00000000
FE003F80
FE003F80
7E003F00
7F007F00
7F007F00
3F807E00
3F80FE00
1F80FC00
1FC1FC00
1FC1FC00
0FC1F800
0FE3F800
07E3F000
07E3F000
07F7F000
03F7E000
03FFE000
01FFC000
01FFC000
01FFC000
00FF8000
00FF8000
007F0000
007F0000
007F0000
007E0000
00FE0000
03FC0000
7FFC0000
7FF80000
7FF00000
7FE00000
3F800000
ENDCHAR
STARTCHAR Ydieresis
ENCODING 376
SWIDTH 667 0
DWIDTH 32 0
BBX 32 45 0 0
BITMAP
00FE1FC0
00FE1FC0
00FE1FC0
00FE1FC0
00FE1FC0
00FE1FC0
00000000
00000000
00000000
00000000
FF0000FF
7F8001FE
3F8001FC
3FC003FC
1FC003F8
0FE007F0
0FF00FF0
07F00FE0
07F81FE0
03F81FC0
01FC3F80
01FC3F80
00FE7F00
00FF7F00
007FFE00
003FFC00
003FFC00
001FF800
001FF800
000FF000
000FF000
000FF000
000FF000
000FF000
000FF000
000FF000
000FF000
000FF000
000FF000
000FF000
000FF000
000FF000
000FF000
000FF000
000FF000
ENDCHAR
STARTCHAR Zacute
ENCODING 377
SWIDTH 669 0
DWIDTH 32 0
BBX 27 45 3 0
BITMAP
0000FF00
0000FE00
0001FC00
0003F800
0003F000
0007E000
000FC000
00000000
00000000
00000000
7FFFFFE0
7FFFFFE0
7FFFFFE0
7FFFFFE0
7FFFFFE0
7FFFFFC0
00007F80
0000FF00
0000FF00
0001FE00
0003FC00
0007FC00
0007F800
000FF000
001FF000
001FE000
003FC000
007F8000
007F8000
00FF0000
01FE0000
01FE0000
03FC0000
07F80000
0FF80000
0FF00000
1FE00000
3FC00000
3FC00000
7FFFFFE0
FFFFFFE0
FFFFFFE0
FFFFFFE0
FFFFFFE0
FFFFFFE0
ENDCHAR
STARTCHAR zacute
ENCODING 378
SWIDTH 496 0
DWIDTH 24 0
BBX 20 35 2 0
BITMAP
000FF0
001FC0
001F80
003F00
007E00
007C00
00F800
010000
000000
000000
FFFFF0
FFFFF0
FFFFF0
FFFFF0
FFFFF0
001FE0
001FC0
003FC0
007F80
00FF00
00FE00
01FE00
03FC00
07F800
07F000
0FF000
1FE000
3FC000
7F8000
7F0000
FFFFF0
FFFFF0
FFFFF0
FFFFF0
FFFFF0
ENDCHAR
STARTCHAR Zdotaccent
ENCODING 379
SWIDTH 669 0
DWIDTH 32 0
BBX 27 45 3 0
BITMAP
001FC000
001FC000
001FC000
001FC000
001FC000
001FC000
00000000
00000000
00000000
00000000
7FFFFFE0
7FFFFFE0
7FFFFFE0
7FFFFFE0
7FFFFFE0
7FFFFFC0
00007F80
0000FF00
0000FF00
0001FE00
0003FC00
0007FC00
0007F800
000FF000
001FF000
001FE000
003FC000
007F8000
007F8000
00FF0000
01FE0000
01FE0000
03FC0000
07F80000
0FF80000
0FF00000
1FE00000
3FC00000
3FC00000
7FFFFFE0
FFFFFFE0
FFFFFFE0
FFFFFFE0
FFFFFFE0
FFFFFFE0
ENDCHAR
STARTCHAR zdotaccent
ENCODING 380
SWIDTH 496 0
DWIDTH 24 0
BBX 20 35 2 0
BITMAP
01F800
01F800
01F800
01F800
01F800
01F800
000000
000000
000000
000000
FFFFF0
FFFFF0
FFFFF0
FFFFF0
FFFFF0
001FE0
001FC0
003FC0
007F80
00FF00
00FE00
01FE00
03FC00
07F800
07F000
0FF000
1FE000
3FC000
7F8000
7F0000
FFFFF0
FFFFF0
FFFFF0
FFFFF0
FFFFF0
ENDCHAR
STARTCHAR Zcaron
ENCODING 381
SWIDTH 669 0
DWIDTH 32 0
BBX 27 44 3 0
BITMAP
03E07E00
01F0F800
00F9F000
007FE000
003FE000
001FC000
00000000
00000000
00000000
7FFFFFE0
7FFFFFE0
7FFFFFE0
7FFFFFE0
7FFFFFE0
7FFFFFC0
00007F80
0000FF00
0000FF00
0001FE00
0003FC00
0007FC00
0007F800
000FF000
001FF000
001FE000
003FC000
007F8000
007F8000
00FF0000
01FE0000
01FE0000
03FC0000
07F80000
0FF80000
0FF00000
1FE00000
3FC00000
3FC00000
7FFFFFE0
FFFFFFE0
FFFFFFE0
FFFFFFE0
FFFFFFE0
FFFFFFE0
ENDCHAR
STARTCHAR zcaron
ENCODING 382
SWIDTH 496 0
DWIDTH 24 0
BBX 20 34 2 0
BITMAP
7E07E0
1F0F80
0F9F00
07FE00
03FC00
01F800
000000
000000
000000
FFFFF0
FFFFF0
FFFFF0
FFFFF0
FFFFF0
001FE0
001FC0
003FC0
007F80
00FF00
00FE00
01FE00
03FC00
07F800
07F000
0FF000
1FE000
3FC000
7F8000
7F0000
FFFFF0
FFFFF0
FFFFF0
FFFFF0
FFFFF0
ENDCHAR
STARTCHAR uni018F
ENCODING 399
SWIDTH 759 0
DWIDTH 36 0
BBX 32 35 2 0
BITMAP
001FF800
00FFFF00
01FFFFC0
07FFFFE0
0FFFFFF0
1FFFFFF8
3FFC3FF8
3FE00FFC
7FC007FE
7F8003FE
FF8001FE
FF0001FE
000001FF
000000FF
000000FF
000000FF
FFFFFFFF
FFFFFFFF
FFFFFFFF
FFFFFFFF
7FFFFFFF
7F8000FF
7F8000FF
7F8001FE
7F8001FE
3FC001FE
3FC003FE
1FE007FC
1FF80FFC
0FFFFFF8
0FFFFFF0
07FFFFE0
01FFFFC0
00FFFF00
003FFC00
ENDCHAR
STARTCHAR florin
ENCODING 402
SWIDTH 519 0
DWIDTH 25 0
BBX 25 43 -1 -8
BITMAP
00003F80
0001FF80
0007FF80
0007FF00
000FFF00
000FE000
001FE000
001FC000
001FC000
001FC000
01FFFE00
03FFFE00
03FFFE00
03FFFC00
03FFFC00
003F8000
003F8000
007F0000
007F0000
007F0000
007F0000
007F0000
007F0000
00FE0000
00FE0000
00FE0000
00FE0000
00FE0000
01FE0000
01FC0000
01FC0000
01FC0000
01FC0000
01FC0000
03F80000
03F80000
03F80000
07F80000
FFF80000
FFF00000
FFE00000
FFC00000
FF800000
ENDCHAR
STARTCHAR Ohorn
ENCODING 416
SWIDTH 835 0
DWIDTH 40 0
BBX 37 36 2 0
BITMAP
00000000F8
001FF800F8
007FFF00F8
01FFFFC0F8
03FFFFE1F0
07FFFFFFF0
0FFFFFFFF0
1FF00FFFE0
1FE007FF80
3FC003FC00
3FC001FE00
7F8001FE00
7F8000FE00
7F8000FF00
7F0000FF00
FF0000FF00
FF0000FF00
FF00007F00
FF00007F00
FF00007F00
FF00007F00
FF0000FF00
7F0000FF00
7F0000FF00
7F8000FF00
7F8000FE00
7F8001FE00
3FC001FE00
3FE003FC00
1FF007FC00
0FFE3FF800
0FFFFFF000
07FFFFE000
01FFFFC000
00FFFF8000
003FFC0000
ENDCHAR
STARTCHAR ohorn
ENCODING 417
SWIDTH 641 0
DWIDTH 31 0
BBX 29 27 2 0
BITMAP
000000F8
000000F8
01FF80F8
07FFE0F8
0FFFF1F8
1FFFFFF0
3FFFFFF0
7F83FFE0
7F01FF80
7F00FE00
FE00FE00
FE007F00
FE007F00
FE007F00
FE007F00
FE007F00
FE007F00
FE007F00
FE00FE00
FF00FE00
7F01FE00
7F83FC00
3FFFFC00
1FFFF800
0FFFF000
07FFE000
01FF8000
ENDCHAR
STARTCHAR Uhorn
ENCODING 431
SWIDTH 860 0
DWIDTH 41 0
BBX 36 36 4 0
BITMAP
00000001F0
FE0007F1F0
FE0007F1F0
FE0007F3E0
FE0007F3E0
FE0007FFE0
FE0007FFC0
FE0007FFC0
FE0007FF00
FE0007F000
FE0007F000
FE0007F000
FE0007F000
FE0007F000
FE0007F000
FE0007F000
FE0007F000
FE0007F000
FE0007F000
FE0007F000
FE0007F000
FE0007F000
FE0007F000
FE0007F000
FE000FF000
FE000FE000
FF000FE000
FF000FE000
7F801FE000
7FC03FE000
7FFFFFC000
3FFFFF8000
1FFFFF8000
0FFFFF0000
07FFFC0000
01FFF00000
ENDCHAR
STARTCHAR uhorn
ENCODING 432
SWIDTH 710 0
DWIDTH 34 0
BBX 31 27 3 0
BITMAP
0000003E
0000003E
FE00FE3E
FE00FE3E
FE00FE7C
FE00FFFC
FE00FFFC
FE00FFF8
FE00FFE0
FE00FE00
FE00FE00
FE00FE00
FE00FE00
FE00FE00
FE00FE00
FE00FE00
FE00FE00
FE00FE00
FE00FE00
FE01FE00
FE01FE00
FF03FE00
FFFF7E00
7FFF7E00
3FFF7E00
1FFE7E00
07F87E00
ENDCHAR
STARTCHAR uni01D4
ENCODING 468
SWIDTH 595 0
DWIDTH 29 0
BBX 23 34 3 0
BITMAP
3F03F0
0F87C0
07CF80
03FF00
01FE00
00FC00
000000
000000
000000
FE00FE
FE00FE
FE00FE
FE00FE
FE00FE
FE00FE
FE00FE
FE00FE
FE00FE
FE00FE
FE00FE
FE00FE
FE00FE
FE00FE
FE00FE
FE00FE
FE00FE
FE01FE
FE01FE
FF03FE
FFFF7E
7FFF7E
3FFF7E
1FFE7E
07F87E
ENDCHAR
STARTCHAR uni01EA
ENCODING 490
SWIDTH 760 0
DWIDTH 37 0
BBX 32 43 2 -8
BITMAP
001FF800
007FFF00
01FFFF80
03FFFFE0
07FFFFF0
0FFFFFF8
1FF00FF8
1FE007FC
3FC003FC
3FC001FE
7F8001FE
7F8000FE
7F8000FF
7F0000FF
FF0000FF
FF0000FF
FF00007F
FF00007F
FF00007F
FF00007F
FF0000FF
7F0000FF
7F0000FF
7F8000FF
7F8000FE
7F8001FE
3FC001FE
3FE003FC
1FF007FC
0FFE3FF8
0FFFFFF0
07FFFFE0
01FFFFC0
00FFFF80
003FFC00
0003E000
0007C000
000F8000
000F8000
000F8C00
000FFC00
000FFC00
0003F800
ENDCHAR
STARTCHAR uni01EB
ENCODING 491
SWIDTH 575 0
DWIDTH 28 0
BBX 24 33 2 -8
BITMAP
01FF80
07FFE0
0FFFF0
1FFFF8
3FFFFC
7F83FC
7F01FE
7F00FE
FE00FE
FE007F
FE007F
FE007F
FE007F
FE007F
FE007F
FE007F
FE00FE
FF00FE
7F01FE
7F83FC
3FFFFC
1FFFF8
0FFFF0
07FFE0
01FF80
007E00
00F800
01F000
01F000
01F980
01FF80
00FF80
007F00
ENDCHAR
STARTCHAR Aringacute
ENCODING 506
SWIDTH 726 0
DWIDTH 35 0
BBX 33 45 1 0
BITMAP
0000F00000
0001E00000
0001E00000
0003E00000
0007F00000
000E780000
000C380000
001C180000
000C180000
000E380000
000FF80000
000FF80000
000FF80000
000FF80000
001FFC0000
001FFC0000
003FFC0000
003F7E0000
003F7E0000
007F7E0000
007E3F0000
007E3F0000
00FE3F8000
00FC1F8000
00FC1F8000
01FC1FC000
01F80FC000
01F80FC000
03F80FE000
03F007E000
07F007E000
07FFFFF000
07FFFFF000
0FFFFFF000
0FFFFFF800
0FFFFFF800
1FFFFFFC00
1FC001FC00
1FC001FC00
3F8000FE00
3F8000FE00
3F8000FE00
7F00007F00
7F00007F00
FF00007F80
ENDCHAR
STARTCHAR aringacute
ENCODING 507
SWIDTH 566 0
DWIDTH 27 0
BBX 23 36 2 0
BITMAP
001E00
001E00
001C00
003C00
00FE00
01FF00
01C380
018380
018380
01C380
00FF00
01FFC0
0FFFF0
1FFFF8
3FFFFC
3FE7FC
7F01FC
7E00FC
7E00FC
0000FE
0007FE
07FFFE
1FFFFE
3FFFFE
7FC0FE
7F00FE
FE00FE
FE00FE
FE00FE
FE01FE
FE03FE
FF87FE
7FFFFE
7FFEFE
3FFCFE
0FF87E
ENDCHAR
STARTCHAR AEacute
ENCODING 508
SWIDTH 1040 0
DWIDTH 50 0
BBX 47 45 0 0
BITMAP
000000003FC0
000000007F00
000000007E00
00000000FC00
00000001F800
00000001F000
00000003E000
000000040000
000000000000
000000000000
00003FFFFFFE
00003FFFFFFE
00007FFFFFFE
00007FFFFFFE
0000FFFFFFFE
0000FFFFFFFE
0001FFFC0000
0001FBFC0000
0003FBFC0000
0003F3FC0000
0007E3FC0000
0007E3FC0000
000FC3FC0000
001FC3FC0000
001F83FC0000
003F83FFFFF8
003F03FFFFF8
007F03FFFFF8
007E03FFFFF8
00FE03FFFFF8
00FC03FC0000
01FFFFFC0000
01FFFFFC0000
03FFFFFC0000
03FFFFFC0000
07FFFFFC0000
07FFFFFC0000
0FE003FC0000
1FC003FC0000
1FC003FFFFFE
3F8003FFFFFE
3F8003FFFFFE
7F0003FFFFFE
7F0003FFFFFE
FE0003FFFFFE
ENDCHAR
STARTCHAR aeacute
ENCODING 509
SWIDTH 913 0
DWIDTH 44 0
BBX 40 35 2 0
BITMAP
000007F000
00000FE000
00000FC000
00001F8000
00003F0000
00003E0000
00007C0000
0000800000
0000000000
0000000000
01FF80FF80
07FFE3FFE0
1FFFF7FFF0
3FFFFFFFF8
3FE7FFFFFC
7F01FF81FC
7E00FF00FE
7E00FF007E
0000FE007E
0007FE007F
03FFFFFFFF
1FFFFFFFFF
3FFFFFFFFF
7FC0FFFFFF
7F00FE0000
FE00FE0000
FE00FE0000
FE00FF007F
FE01FF007E
FE03FF80FE
FF87FFFFFE
7FFFDFFFFC
7FFF8FFFF8
3FFF07FFF0
0FFC01FFC0
ENDCHAR
STARTCHAR Oslashacute
ENCODING 510
SWIDTH 776 0
DWIDTH 37 0
BBX 35 46 1 -1
BITMAP
00000FE000
00001FC000
00003F8000
00007F0000
00007E0000
0000FC0000
0001F80000
0000000000
0000000000
0000000000
000FFC0180
003FFF83C0
00FFFFE7E0
01FFFFFFC0
03FFFFFF80
07FF1FFF00
0FFC07FF00
0FF001FE00
1FF001FF00
1FE003FF00
1FE007FF00
3FE00FFF80
3FC01FFF80
3FC01FFF80
3FC03E7F80
3FC07E7F80
7FC0FC7F80
7FC1F87F80
7FC3F07F80
3FC7E07F80
3FCFC07F80
3FDF807F80
3FFF00FF80
3FFE00FF80
3FFC00FF00
1FF800FF00
1FF001FF00
0FF001FE00
0FF803FE00
1FFE0FFC00
3FFFFFF800
7FFFFFF000
FCFFFFE000
787FFFC000
301FFE0000
1000000000
ENDCHAR
STARTCHAR oslashacute
ENCODING 511
SWIDTH 611 0
DWIDTH 29 0
BBX 27 35 1 0
BITMAP
0000FE00
0001FC00
0003F800
0003F000
0007E000
000FC000
001F8000
00000000
00000000
00000000
007FE080
01FFF9C0
03FFFFE0
07FFFFC0
0FFFFF80
0FF0FF00
1FC03F80
1FC0FF80
3F81FF80
3F83FFC0
3F87DFC0
3F8F9FC0
3F9F1FC0
3FBE1FC0
3FFC1FC0
3FF81FC0
3FF01FC0
1FE03F80
1FC03F80
1FE07F00
1FFFFF00
3FFFFE00
FFFFFC00
79FFF800
207FE000
ENDCHAR
STARTCHAR uni0200
ENCODING 512
SWIDTH 726 0
DWIDTH 35 0
BBX 33 45 1 0
BITMAP
3F8FC00000
1FC7E00000
0FE3F00000
03E1F80000
01F0F80000
00F8FC0000
007C7E0000
0002000000
0000000000
0000000000
0007F00000
000FF80000
000FF80000
000FF80000
001FFC0000
001FFC0000
003FFC0000
003F7E0000
003F7E0000
007F7E0000
007E3F0000
007E3F0000
00FE3F8000
00FC1F8000
00FC1F8000
01FC1FC000
01F80FC000
01F80FC000
03F80FE000
03F007E000
07F007E000
07FFFFF000
07FFFFF000
0FFFFFF000
0FFFFFF800
0FFFFFF800
1FFFFFFC00
1FC001FC00
1FC001FC00
3F8000FE00
3F8000FE00
3F8000FE00
7F00007F00
7F00007F00
FF00007F80
ENDCHAR
STARTCHAR uni0201
ENCODING 513
SWIDTH 566 0
DWIDTH 27 0
BBX 25 35 0 0
BITMAP
FE3F0000
7E1F8000
3F1F8000
1F8FC000
0FC7E000
07E3F000
03F1F000
00000800
00000000
00000000
007FF000
03FFFC00
07FFFE00
0FFFFF00
0FF9FF00
1FC07F00
1F803F00
1F803F00
00003F80
0001FF80
01FFFF80
07FFFF80
0FFFFF80
1FF03F80
1FC03F80
3F803F80
3F803F80
3F803F80
3F807F80
3F80FF80
3FE1FF80
1FFFFF80
1FFFBF80
0FFF3F80
03FE1F80
ENDCHAR
STARTCHAR uni0202
ENCODING 514
SWIDTH 726 0
DWIDTH 35 0
BBX 33 44 1 0
BITMAP
000FF80000
003FFC0000
007FFE0000
007C1F0000
00F80F0000
00F00F8000
0000000000
0000000000
0000000000
0007F00000
000FF80000
000FF80000
000FF80000
001FFC0000
001FFC0000
003FFC0000
003F7E0000
003F7E0000
007F7E0000
007E3F0000
007E3F0000
00FE3F8000
00FC1F8000
00FC1F8000
01FC1FC000
01F80FC000
01F80FC000
03F80FE000
03F007E000
07F007E000
07FFFFF000
07FFFFF000
0FFFFFF000
0FFFFFF800
0FFFFFF800
1FFFFFFC00
1FC001FC00
1FC001FC00
3F8000FE00
3F8000FE00
3F8000FE00
7F00007F00
7F00007F00
FF00007F80
ENDCHAR
STARTCHAR uni0203
ENCODING 515
SWIDTH 566 0
DWIDTH 27 0
BBX 23 34 2 0
BITMAP
00FF00
03FFC0
07FFE0
0FC3F0
0F81F0
0F00F0
000000
000000
000000
01FFC0
0FFFF0
1FFFF8
3FFFFC
3FE7FC
7F01FC
7E00FC
7E00FC
0000FE
0007FE
07FFFE
1FFFFE
3FFFFE
7FC0FE
7F00FE
FE00FE
FE00FE
FE00FE
FE01FE
FE03FE
FF87FE
7FFFFE
7FFEFE
3FFCFE
0FF87E
ENDCHAR
STARTCHAR uni0204
ENCODING 516
SWIDTH 634 0
DWIDTH 30 0
BBX 27 45 1 0
BITMAP
FE3F8000
3F1FC000
1F8FC000
0FC7E000
07E3F000
03F1F000
01F8F800
00000400
00000000
00000000
1FFFFFE0
1FFFFFE0
1FFFFFE0
1FFFFFE0
1FFFFFE0
1FFFFFE0
1FC00000
1FC00000
1FC00000
1FC00000
1FC00000
1FC00000
1FC00000
1FC00000
1FC00000
1FFFFF00
1FFFFF00
1FFFFF00
1FFFFF00
1FFFFF00
1FC00000
1FC00000
1FC00000
1FC00000
1FC00000
1FC00000
1FC00000
1FC00000
1FC00000
1FFFFFE0
1FFFFFE0
1FFFFFE0
1FFFFFE0
1FFFFFE0
1FFFFFE0
ENDCHAR
STARTCHAR uni0205
ENCODING 517
SWIDTH 576 0
DWIDTH 28 0
BBX 26 35 0 0
BITMAP
FE3F0000
7E1F8000
3F1F8000
1F8FC000
0FC7E000
07E3F000
03F1F000
00000800
00000000
00000000
007FE000
01FFF800
03FFFC00
07FFFE00
0FFFFF00
0FE07F00
1FC03F80
1F801F80
1F801F80
3F801F80
3FFFFFC0
3FFFFFC0
3FFFFFC0
3FFFFFC0
3F800000
3F800000
3F800000
1FC01FC0
1FC01F80
0FE03F80
0FFFFF00
07FFFF00
03FFFE00
01FFF800
007FE000
ENDCHAR
STARTCHAR uni0206
ENCODING 518
SWIDTH 634 0
DWIDTH 30 0
BBX 24 44 4 0
BITMAP
01FF00
03FFC0
07FFE0
0FC3E0
0F01F0
1F00F0
000000
000000
000000
FFFFFF
FFFFFF
FFFFFF
FFFFFF
FFFFFF
FFFFFF
FE0000
FE0000
FE0000
FE0000
FE0000
FE0000
FE0000
FE0000
FE0000
FFFFF8
FFFFF8
FFFFF8
FFFFF8
FFFFF8
FE0000
FE0000
FE0000
FE0000
FE0000
FE0000
FE0000
FE0000
FE0000
FFFFFF
FFFFFF
FFFFFF
FFFFFF
FFFFFF
FFFFFF
ENDCHAR
STARTCHAR uni0207
ENCODING 519
SWIDTH 576 0
DWIDTH 28 0
BBX 24 34 2 0
BITMAP
00FF00
03FFC0
07FFE0
0FC3F0
0F81F0
0F00F0
000000
000000
000000
01FF80
07FFE0
0FFFF0
1FFFF8
3FFFFC
3F81FC
7F00FE
7E007E
7E007E
FE007E
FFFFFF
FFFFFF
FFFFFF
FFFFFF
FE0000
FE0000
FE0000
7F007F
7F007E
3F80FE
3FFFFC
1FFFFC
0FFFF8
07FFE0
01FF80
ENDCHAR
STARTCHAR uni0208
ENCODING 520
SWIDTH 307 0
DWIDTH 15 0
BBX 21 45 -7 0
BITMAP
FE3F00
7F1F80
3F8FC0
0F87C0
07C3E0
03E3F0
01F1F8
000800
000000
000000
001FC0
001FC0
001FC0
001FC0
001FC0
001FC0
001FC0
001FC0
001FC0
001FC0
001FC0
001FC0
001FC0
001FC0
001FC0
001FC0
001FC0
001FC0
001FC0
001FC0
001FC0
001FC0
001FC0
001FC0
001FC0
001FC0
001FC0
001FC0
001FC0
001FC0
001FC0
001FC0
001FC0
001FC0
001FC0
ENDCHAR
STARTCHAR uni0209
ENCODING 521
SWIDTH 264 0
DWIDTH 13 0
BBX 21 35 -8 0
BITMAP
FE3F00
7F1F80
3F8FC0
0F87E0
07C3E0
03E3F0
01F1F8
000800
000000
000000
001FC0
001FC0
001FC0
001FC0
001FC0
001FC0
001FC0
001FC0
001FC0
001FC0
001FC0
001FC0
001FC0
001FC0
001FC0
001FC0
001FC0
001FC0
001FC0
001FC0
001FC0
001FC0
001FC0
001FC0
001FC0
ENDCHAR
STARTCHAR uni020A
ENCODING 522
SWIDTH 307 0
DWIDTH 15 0
BBX 17 44 -1 0
BITMAP
0FF800
3FFC00
7FFE00
7C1F00
F80F00
F00F80
000000
000000
000000
07F000
07F000
07F000
07F000
07F000
07F000
07F000
07F000
07F000
07F000
07F000
07F000
07F000
07F000
07F000
07F000
07F000
07F000
07F000
07F000
07F000
07F000
07F000
07F000
07F000
07F000
07F000
07F000
07F000
07F000
07F000
07F000
07F000
07F000
07F000
ENDCHAR
STARTCHAR uni020B
ENCODING 523
SWIDTH 346 0
DWIDTH 13 0
BBX 17 34 0 0
BITMAP
0FF800
3FFC00
7FFE00
7C3F00
F80F00
F00F80
000000
000000
000000
07F000
07F000
07F000
07F000
07F000
07F000
07F000
07F000
07F000
07F000
07F000
07F000
07F000
07F000
07F000
07F000
07F000
07F000
07F000
07F000
07F000
07F000
07F000
07F000
07F000
ENDCHAR
STARTCHAR uni020C
ENCODING 524
SWIDTH 760 0
DWIDTH 37 0
BBX 32 45 2 0
BITMAP
3F8FC000
1FC7E000
0FC3F000
07E1F000
03F1F800
00F8FC00
007C7E00
00020000
00000000
00000000
001FF800
007FFF00
01FFFF80
03FFFFE0
07FFFFF0
0FFFFFF8
1FF00FF8
1FE007FC
3FC003FC
3FC001FE
7F8001FE
7F8000FE
7F8000FF
7F0000FF
FF0000FF
FF0000FF
FF00007F
FF00007F
FF00007F
FF00007F
FF0000FF
7F0000FF
7F0000FF
7F8000FF
7F8000FE
7F8001FE
3FC001FE
3FE003FC
1FF007FC
0FFE3FF8
0FFFFFF0
07FFFFE0
01FFFFC0
00FFFF80
003FFC00
ENDCHAR
STARTCHAR uni020D
ENCODING 525
SWIDTH 575 0
DWIDTH 28 0
BBX 26 35 0 0
BITMAP
FC7F0000
7E3F8000
3F1F8000
1F8FC000
0FC7E000
07E3E000
03F1F000
00000800
00000000
00000000
007FE000
01FFF800
03FFFC00
07FFFE00
0FFFFF00
1FE0FF00
1FC07F80
1FC03F80
3F803F80
3F801FC0
3F801FC0
3F801FC0
3F801FC0
3F801FC0
3F801FC0
3F801FC0
3F803F80
3FC03F80
1FC07F80
1FE0FF00
0FFFFF00
07FFFE00
03FFFC00
01FFF800
007FE000
ENDCHAR
STARTCHAR uni020E
ENCODING 526
SWIDTH 760 0
DWIDTH 37 0
BBX 32 44 2 0
BITMAP
000FF800
003FFC00
007FFE00
007C3F00
00F80F00
00F00F80
00000000
00000000
00000000
001FF800
007FFF00
01FFFF80
03FFFFE0
07FFFFF0
0FFFFFF8
1FF00FF8
1FE007FC
3FC003FC
3FC001FE
7F8001FE
7F8000FE
7F8000FF
7F0000FF
FF0000FF
FF0000FF
FF00007F
FF00007F
FF00007F
FF00007F
FF0000FF
7F0000FF
7F0000FF
7F8000FF
7F8000FE
7F8001FE
3FC001FE
3FE003FC
1FF007FC
0FFE3FF8
0FFFFFF0
07FFFFE0
01FFFFC0
00FFFF80
003FFC00
ENDCHAR
STARTCHAR uni020F
ENCODING 527
SWIDTH 575 0
DWIDTH 28 0
BBX 24 34 2 0
BITMAP
01FF00
03FFC0
07FFE0
0FC3E0
0F01F0
1F00F0
000000
000000
000000
01FF80
07FFE0
0FFFF0
1FFFF8
3FFFFC
7F83FC
7F01FE
7F00FE
FE00FE
FE007F
FE007F
FE007F
FE007F
FE007F
FE007F
FE007F
FE00FE
FF00FE
7F01FE
7F83FC
3FFFFC
1FFFF8
0FFFF0
07FFE0
01FF80
ENDCHAR
STARTCHAR uni0210
ENCODING 528
SWIDTH 696 0
DWIDTH 33 0
BBX 29 45 2 0
BITMAP
FE3F0000
7F1F8000
3F0FC000
1F87C000
0FC7E000
03E3F000
01F1F800
00080000
00000000
00000000
3FFFF000
3FFFFE00
3FFFFF80
3FFFFFC0
3FFFFFE0
3FFFFFE0
3F801FF0
3F800FF0
3F8007F0
3F8007F0
3F8007F0
3F8007F0
3F8007F0
3F8007F0
3F800FF0
3F801FF0
3FFFFFE0
3FFFFFC0
3FFFFF80
3FFFFF00
3FFFFC00
3FFFFE00
3F80FE00
3F807F00
3F807F00
3F803F80
3F803F80
3F803F80
3F801FC0
3F801FC0
3F800FE0
3F800FE0
3F8007F0
3F8007F0
3F8007F8
ENDCHAR
STARTCHAR uni0211
ENCODING 529
SWIDTH 412 0
DWIDTH 20 0
BBX 23 35 -4 0
BITMAP
FE3F80
3F1F80
1F8FC0
0FC7E0
07E3F0
03E1F0
01F0F8
000800
000000
000000
01FC3E
01FC7E
01FCFE
01FDFE
01FFFE
01FFFE
01FFC2
01FF00
01FE00
01FC00
01FC00
01FC00
01FC00
01FC00
01FC00
01FC00
01FC00
01FC00
01FC00
01FC00
01FC00
01FC00
01FC00
01FC00
01FC00
ENDCHAR
STARTCHAR uni0212
ENCODING 530
SWIDTH 696 0
DWIDTH 33 0
BBX 27 44 4 0
BITMAP
00FF8000
03FFC000
07FFE000
07C3F000
0F80F000
0F00F800
00000000
00000000
00000000
FFFFC000
FFFFF800
FFFFFE00
FFFFFF00
FFFFFF80
FFFFFF80
FE007FC0
FE003FC0
FE001FC0
FE001FC0
FE001FC0
FE001FC0
FE001FC0
FE001FC0
FE003FC0
FE007FC0
FFFFFF80
FFFFFF00
FFFFFE00
FFFFFC00
FFFFF000
FFFFF800
FE03F800
FE01FC00
FE01FC00
FE00FE00
FE00FE00
FE00FE00
FE007F00
FE007F00
FE003F80
FE003F80
FE001FC0
FE001FC0
FE001FE0
ENDCHAR
STARTCHAR uni0213
ENCODING 531
SWIDTH 412 0
DWIDTH 20 0
BBX 17 33 2 0
BITMAP
0FF800
1FFE00
3FFF00
7E1F00
780F80
F80780
000000
000000
7F0F80
7F1F80
7F3F80
7F7F80
7FFF80
7FFF80
7FF080
7FC000
7F8000
7F0000
7F0000
7F0000
7F0000
7F0000
7F0000
7F0000
7F0000
7F0000
7F0000
7F0000
7F0000
7F0000
7F0000
7F0000
7F0000
ENDCHAR
STARTCHAR uni0214
ENCODING 532
SWIDTH 724 0
DWIDTH 35 0
BBX 29 45 3 0
BITMAP
FE3F8000
3F1F8000
1F8FC000
0FC7E000
07E3F000
03F1F000
01F8F800
00000000
00000000
00000000
7F0003F8
7F0003F8
7F0003F8
7F0003F8
7F0003F8
7F0003F8
7F0003F8
7F0003F8
7F0003F8
7F0003F8
7F0003F8
7F0003F8
7F0003F8
7F0003F8
7F0003F8
7F0003F8
7F0003F8
7F0003F8
7F0003F8
7F0003F8
7F0003F8
7F0003F8
7F0003F8
7F0007F8
7F0007F0
7F8007F0
7F8007F0
3FC00FF0
3FE01FF0
3FFFFFE0
1FFFFFC0
0FFFFFC0
07FFFF80
03FFFE00
00FFF800
ENDCHAR
STARTCHAR uni0215
ENCODING 533
SWIDTH 595 0
DWIDTH 29 0
BBX 26 35 0 0
BITMAP
FE3F0000
7F1F8000
3F0FC000
1F8FC000
0FC7E000
07E3F000
01F1F000
00000800
00000000
00000000
1FC01FC0
1FC01FC0
1FC01FC0
1FC01FC0
1FC01FC0
1FC01FC0
1FC01FC0
1FC01FC0
1FC01FC0
1FC01FC0
1FC01FC0
1FC01FC0
1FC01FC0
1FC01FC0
1FC01FC0
1FC01FC0
1FC01FC0
1FC03FC0
1FC03FC0
1FE07FC0
1FFFEFC0
0FFFEFC0
07FFEFC0
03FFCFC0
00FF0FC0
ENDCHAR
STARTCHAR uni0216
ENCODING 534
SWIDTH 724 0
DWIDTH 35 0
BBX 28 44 4 0
BITMAP
007FC000
00FFF000
01FFF800
03F0F800
03C07C00
07C03C00
00000000
00000000
00000000
FE0007F0
FE0007F0
FE0007F0
FE0007F0
FE0007F0
FE0007F0
FE0007F0
FE0007F0
FE0007F0
FE0007F0
FE0007F0
FE0007F0
FE0007F0
FE0007F0
FE0007F0
FE0007F0
FE0007F0
FE0007F0
FE0007F0
FE0007F0
FE0007F0
FE0007F0
FE0007F0
FE000FF0
FE000FE0
FF000FE0
FF000FE0
7F801FE0
7FC03FE0
7FFFFFC0
3FFFFF80
1FFFFF80
0FFFFF00
07FFFC00
01FFF000
ENDCHAR
STARTCHAR uni0217
ENCODING 535
SWIDTH 595 0
DWIDTH 29 0
BBX 23 34 3 0
BITMAP
01FE00
07FF80
0FFFC0
1F87E0
1F01E0
1E01F0
000000
000000
000000
FE00FE
FE00FE
FE00FE
FE00FE
FE00FE
FE00FE
FE00FE
FE00FE
FE00FE
FE00FE
FE00FE
FE00FE
FE00FE
FE00FE
FE00FE
FE00FE
FE00FE
FE01FE
FE01FE
FF03FE
FFFF7E
7FFF7E
3FFF7E
1FFE7E
07F87E
ENDCHAR
STARTCHAR uni0218
ENCODING 536
SWIDTH 692 0
DWIDTH 33 0
BBX 29 46 2 -11
BITMAP
003FF000
01FFFE00
03FFFF00
0FFFFFC0
1FFFFFC0
1FFCFFE0
3FC01FF0
3FC00FF0
3F8007F0
7F8007F0
7F800008
7F800000
3FC00000
3FF80000
3FFF8000
1FFFFC00
1FFFFF00
07FFFFC0
03FFFFE0
00FFFFE0
0007FFF0
00007FF0
00000FF8
000007F8
000003F8
FF0003F8
7F0003F8
7F8007F8
7FC00FF0
3FF03FF0
1FFFFFE0
0FFFFFC0
07FFFF80
03FFFE00
007FF800
00000000
00000000
000FC000
000FC000
000FC000
000FC000
000F8000
00070000
00060000
000E0000
001C0000
ENDCHAR
STARTCHAR uni0219
ENCODING 537
SWIDTH 527 0
DWIDTH 25 0
BBX 21 36 2 -11
BITMAP
03FF00
0FFFC0
1FFFE0
3FFFF0
7FCFF8
7E03F8
7E01F8
7E0000
7F0000
7FE000
7FFE00
3FFFC0
1FFFE0
0FFFF0
01FFF8
000FF8
0001F8
FC01F8
FC01F8
FE01F8
7FC7F8
3FFFF0
3FFFF0
0FFFC0
03FF80
000000
000000
00FC00
00FC00
00FC00
00FC00
00F800
007800
007000
00E000
00C000
ENDCHAR
STARTCHAR uni021A
ENCODING 538
SWIDTH 616 0
DWIDTH 30 0
BBX 28 46 1 -11
BITMAP
FFFFFFF0
FFFFFFF0
FFFFFFF0
FFFFFFF0
FFFFFFF0
FFFFFFF0
FFFFFFF0
003F8000
003F8000
003F8000
003F8000
003F8000
003F8000
003F8000
003F8000
003F8000
003F8000
003F8000
003F8000
003F8000
003F8000
003F8000
003F8000
003F8000
003F8000
003F8000
003F8000
003F8000
003F8000
003F8000
003F8000
003F8000
003F8000
003F8000
003F8000
00000000
00000000
001F8000
001F8000
001F8000
001F8000
001F8000
00070000
000E0000
000C0000
001C0000
ENDCHAR
STARTCHAR uni021B
ENCODING 539
SWIDTH 416 0
DWIDTH 20 0
BBX 17 43 1 -11
BITMAP
03E000
03E000
03E000
03E000
07E000
07E000
07E000
FFFF80
FFFF80
FFFF80
FFFF80
FFFF80
0FE000
0FE000
0FE000
0FE000
0FE000
0FE000
0FE000
0FE000
0FE000
0FE000
0FE000
0FE000
0FE000
0FF000
0FF000
07FF80
07FF80
07FF80
03FF80
00FF80
000000
000000
00FC00
00FC00
00FC00
00FC00
00F800
007000
007000
00E000
01C000
ENDCHAR
STARTCHAR uni0237
ENCODING 567
SWIDTH 287 0
DWIDTH 14 0
BBX 12 33 -1 -8
BITMAP
07F0
07F0
07F0
07F0
07F0
07F0
07F0
07F0
07F0
07F0
07F0
07F0
07F0
07F0
07F0
07F0
07F0
07F0
07F0
07F0
07F0
07F0
07F0
07F0
07F0
07F0
0FF0
7FF0
FFE0
FFE0
FFC0
FF80
7E00
ENDCHAR
STARTCHAR uni0259
ENCODING 601
SWIDTH 576 0
DWIDTH 28 0
BBX 24 25 2 0
BITMAP
01FF00
07FFC0
1FFFF0
3FFFF8
7FFFF8
7F03FC
FE01FE
FE00FE
0000FE
00007E
00007F
FFFFFF
FFFFFF
FFFFFF
FFFFFF
FE007E
FE007E
7E00FE
7E00FC
7F01FC
3FEFF8
1FFFF8
1FFFF0
07FFC0
03FF80
ENDCHAR
STARTCHAR uni02BB
ENCODING 699
SWIDTH 254 0
DWIDTH 12 0
BBX 7 13 2 22
BITMAP
06
1E
3E
78
70
70
FE
FE
FE
FE
FE
FE
FE
ENDCHAR
STARTCHAR uni02BC
ENCODING 700
SWIDTH 254 0
DWIDTH 12 0
BBX 7 13 2 22
BITMAP
FE
FE
FE
FE
FE
FE
FE
0E
0E
1E
3C
F8
F0
ENDCHAR
STARTCHAR circumflex
ENCODING 710
SWIDTH 378 0
DWIDTH 18 0
BBX 18 6 0 28
BITMAP
03F000
07F800
0FFC00
1FBE00
3E1F00
FC0FC0
ENDCHAR
STARTCHAR caron
ENCODING 711
SWIDTH 388 0
DWIDTH 19 0
BBX 18 6 0 28
BITMAP
FC0FC0
3E1F00
1F3E00
0FFC00
07F800
03F000
ENDCHAR
STARTCHAR breve
ENCODING 728
SWIDTH 381 0
DWIDTH 18 0
BBX 17 6 1 28
BITMAP
F00F80
F81F00
7C3F00
7FFE00
3FFC00
0FF000
ENDCHAR
STARTCHAR dotaccent
ENCODING 729
SWIDTH 149 0
DWIDTH 7 0
BBX 7 6 0 29
BITMAP
FE
FE
FE
FE
FE
FE
ENDCHAR
STARTCHAR ring
ENCODING 730
SWIDTH 258 0
DWIDTH 12 0
BBX 10 10 1 27
BITMAP
3F00
7F80
FFC0
E1C0
E1C0
E1C0
E1C0
7FC0
7F80
3F00
ENDCHAR
STARTCHAR ogonek
ENCODING 731
SWIDTH 254 0
DWIDTH 12 0
BBX 10 8 1 -8
BITMAP
3F80
7C00
F800
F800
FCC0
FFC0
7FC0
3F80
ENDCHAR
STARTCHAR tilde
ENCODING 732
SWIDTH 415 0
DWIDTH 20 0
BBX 16 6 2 29
BITMAP
0001
7F87
FFFF
FFFF
FFFF
C0FE
ENDCHAR
STARTCHAR hungarumlaut
ENCODING 733
SWIDTH 447 0
DWIDTH 21 0
BBX 21 7 0 28
BITMAP
07E3F8
0FC3F0
0FC7E0
1F8FC0
3F1F80
7E3F00
FC7E00
ENDCHAR
STARTCHAR gravecomb
ENCODING 768
SWIDTH 0 0
DWIDTH 0 0
BBX 12 7 0 28
BITMAP
FF00
7F00
3F80
0FC0
07C0
03E0
01F0
ENDCHAR
STARTCHAR acutecomb
ENCODING 769
SWIDTH 0 0
DWIDTH 0 0
BBX 12 7 0 28
BITMAP
07F0
0FE0
0FC0
1F80
3F00
7E00
FC00
ENDCHAR
STARTCHAR uni0302
ENCODING 770
SWIDTH 0 0
DWIDTH 0 0
BBX 18 6 0 28
BITMAP
03F000
07F800
0FFC00
1FBE00
3E1F00
FC0FC0
ENDCHAR
STARTCHAR tildecomb
ENCODING 771
SWIDTH 0 0
DWIDTH 0 0
BBX 16 6 2 29
BITMAP
0001
7F87
FFFF
FFFF
FFFF
C0FE
ENDCHAR
STARTCHAR uni0304
ENCODING 772
SWIDTH 0 0
DWIDTH 0 0
BBX 17 4 1 29
BITMAP
FFFF80
FFFF80
FFFF80
FFFF80
ENDCHAR
STARTCHAR uni0306
ENCODING 774
SWIDTH 0 0
DWIDTH 0 0
BBX 17 6 1 28
BITMAP
F00F80
F81F00
7C3F00
7FFE00
3FFC00
0FF000
ENDCHAR
STARTCHAR uni0307
ENCODING 775
SWIDTH 0 0
DWIDTH 0 0
BBX 7 6 0 29
BITMAP
FE
FE
FE
FE
FE
FE
ENDCHAR
STARTCHAR uni0308
ENCODING 776
SWIDTH 0 0
DWIDTH 0 0
BBX 18 6 0 29
BITMAP
FE1FC0
FE1FC0
FE1FC0
FE1FC0
FE1FC0
FE1FC0
ENDCHAR
STARTCHAR hookabovecomb
ENCODING 777
SWIDTH 0 0
DWIDTH 0 0
BBX 8 9 11 28
BITMAP
FC
FE
7F
0F
07
0F
1F
0E
04
ENDCHAR
STARTCHAR uni030A
ENCODING 778
SWIDTH 0 0
DWIDTH 0 0
BBX 10 10 1 27
BITMAP
3F00
7F80
FFC0
E1C0
E1C0
E1C0
E1C0
7FC0
7F80
3F00
ENDCHAR
STARTCHAR uni030B
ENCODING 779
SWIDTH 0 0
DWIDTH 0 0
BBX 21 7 0 28
BITMAP
07E3F8
0FC3F0
0FC7E0
1F8FC0
3F1F80
7E3F00
FC7E00
ENDCHAR
STARTCHAR uni030C
ENCODING 780
SWIDTH 0 0
DWIDTH 0 0
BBX 18 6 0 28
BITMAP
FC0FC0
3E1F00
1F3E00
0FFC00
07F800
03F000
ENDCHAR
STARTCHAR uni030F
ENCODING 783
SWIDTH 0 0
DWIDTH 0 0
BBX 21 7 0 28
BITMAP
FE3F80
3F1F80
1F8FC0
0FC7E0
07C3E0
03E1F0
01F9F8
ENDCHAR
STARTCHAR uni0311
ENCODING 785
SWIDTH 0 0
DWIDTH 0 0
BBX 17 6 0 28
BITMAP
07F800
1FFE00
3FFF00
7E1F80
7C0F80
F80780
ENDCHAR
STARTCHAR uni0312
ENCODING 786
SWIDTH 0 0
DWIDTH 0 0
BBX 6 9 3 28
BITMAP
1C
38
38
70
FC
FC
FC
FC
FC
ENDCHAR
STARTCHAR uni031B
ENCODING 795
SWIDTH 0 0
DWIDTH 0 0
BBX 9 8 0 22
BITMAP
0780
0F80
0F80
0F80
3F80
FF00
FF00
FC00
ENDCHAR
STARTCHAR dotbelowcomb
ENCODING 803
SWIDTH 0 0
DWIDTH 0 0
BBX 7 6 0 -10
BITMAP
FE
FE
FE
FE
FE
FE
ENDCHAR
STARTCHAR uni0326
ENCODING 806
SWIDTH 0 0
DWIDTH 0 0
BBX 6 9 0 -11
BITMAP
FC
FC
FC
FC
FC
38
70
70
E0
ENDCHAR
STARTCHAR uni0327
ENCODING 807
SWIDTH 0 0
DWIDTH 0 0
BBX 11 10 1 -10
BITMAP
0E00
1E00
1C00
3F80
07C0
01E0
01E0
E7E0
FFC0
7F80
ENDCHAR
STARTCHAR uni0328
ENCODING 808
SWIDTH 0 0
DWIDTH 0 0
BBX 10 8 1 -8
BITMAP
3F80
7C00
F800
F800
FCC0
FFC0
7FC0
3F80
ENDCHAR
STARTCHAR pi
ENCODING 960
SWIDTH 674 0
DWIDTH 32 0
BBX 30 25 1 0
BITMAP
FFFFFFFC
FFFFFFFC
FFFFFFFC
FFFFFFFC
FFFFFFFC
0FE01F80
0FE01F80
0FE01F80
0FE01F80
0FE01F80
0FE01F80
0FE01F80
0FE01F80
0FE01F80
0FC01F80
0FC01F80
1FC01F80
1FC01F80
1FC01F80
1FC01F80
1F801F80
1F801F80
3F801F80
3F801F80
3F001F80
ENDCHAR
STARTCHAR uni1E0C
ENCODING 7692
SWIDTH 720 0
DWIDTH 35 0
BBX 28 45 4 -10
BITMAP
FFF80000
FFFFC000
FFFFF000
FFFFFC00
FFFFFE00
FFFFFF00
FE03FF80
FE007FC0
FE003FC0
FE001FE0
FE001FE0
FE000FF0
FE000FF0
FE0007F0
FE0007F0
FE0007F0
FE0007F0
FE0007F0
FE0007F0
FE0007F0
FE0007F0
FE0007F0
FE000FF0
FE000FF0
FE001FE0
FE001FE0
FE003FC0
FE007FC0
FE01FF80
FFFFFF80
FFFFFF00
FFFFFC00
FFFFF800
FFFFE000
FFFE0000
00000000
00000000
00000000
00000000
003F0000
003F0000
003F0000
003F0000
003F0000
003F0000
ENDCHAR
STARTCHAR uni1E0D
ENCODING 7693
SWIDTH 608 0
DWIDTH 29 0
BBX 24 46 2 -10
BITMAP
00007F
00007F
00007F
00007F
00007F
00007F
00007F
00007F
00007F
00007F
00007F
03FC7F
0FFE7F
1FFF7F
3FFFFF
7FFFFF
7F81FF
7F00FF
FF00FF
FE007F
FE007F
FE007F
FE007F
FE007F
FE007F
FE007F
FE007F
FE007F
FF00FF
7F00FF
7F81FF
3FFFFF
3FFFDF
1FFF9F
0FFF1F
03FE1F
000000
000000
000000
000000
00FC00
00FC00
00FC00
00FC00
00FC00
00FC00
ENDCHAR
STARTCHAR uni1E24
ENCODING 7716
SWIDTH 770 0
DWIDTH 37 0
BBX 29 45 4 -10
BITMAP
FE0003F8
FE0003F8
FE0003F8
FE0003F8
FE0003F8
FE0003F8
FE0003F8
FE0003F8
FE0003F8
FE0003F8
FE0003F8
FE0003F8
FE0003F8
FE0003F8
FFFFFFF8
FFFFFFF8
FFFFFFF8
FFFFFFF8
FFFFFFF8
FFFFFFF8
FE0003F8
FE0003F8
FE0003F8
FE0003F8
FE0003F8
FE0003F8
FE0003F8
FE0003F8
FE0003F8
FE0003F8
FE0003F8
FE0003F8
FE0003F8
FE0003F8
FE0003F8
00000000
00000000
00000000
00000000
001FC000
001FC000
001FC000
001FC000
001FC000
001FC000
ENDCHAR
STARTCHAR uni1E25
ENCODING 7717
SWIDTH 592 0
DWIDTH 28 0
BBX 23 46 3 -10
BITMAP
FE0000
FE0000
FE0000
FE0000
FE0000
FE0000
FE0000
FE0000
FE0000
FE0000
FE0000
FE1F80
FE7FE0
FEFFF8
FFFFF8
FFFFFC
FFEFFC
FF01FE
FE01FE
FE00FE
FE00FE
FE00FE
FE00FE
FE00FE
FE00FE
FE00FE
FE00FE
FE00FE
FE00FE
FE00FE
FE00FE
FE00FE
FE00FE
FE00FE
FE00FE
FE00FE
000000
000000
000000
000000
00FE00
00FE00
00FE00
00FE00
00FE00
00FE00
ENDCHAR
STARTCHAR uni1E44
ENCODING 7748
SWIDTH 782 0
DWIDTH 38 0
BBX 30 45 4 0
BITMAP
001FC000
001FC000
001FC000
001FC000
001FC000
001FC000
00000000
00000000
00000000
00000000
FE0001FC
FF0001FC
FF0001FC
FF8001FC
FFC001FC
FFC001FC
FFE001FC
FFF001FC
FFF001FC
FFF801FC
FFFC01FC
FFFE01FC
FEFE01FC
FE7F01FC
FE7F81FC
FE3F81FC
FE1FC1FC
FE1FE1FC
FE0FE1FC
FE07F1FC
FE07F9FC
FE03F9FC
FE01FDFC
FE01FFFC
FE00FFFC
FE007FFC
FE007FFC
FE003FFC
FE001FFC
FE000FFC
FE000FFC
FE0007FC
FE0003FC
FE0003FC
FE0001FC
ENDCHAR
STARTCHAR uni1E45
ENCODING 7749
SWIDTH 593 0
DWIDTH 28 0
BBX 23 35 3 0
BITMAP
00FE00
00FE00
00FE00
00FE00
00FE00
00FE00
000000
000000
000000
000000
FE1F80
FE7FE0
FEFFF8
FFFFF8
FFFFFC
FFEFFC
FF01FE
FE01FE
FE00FE
FE00FE
FE00FE
FE00FE
FE00FE
FE00FE
FE00FE
FE00FE
FE00FE
FE00FE
FE00FE
FE00FE
FE00FE
FE00FE
FE00FE
FE00FE
FE00FE
ENDCHAR
STARTCHAR uni1E5A
ENCODING 7770
SWIDTH 696 0
DWIDTH 33 0
BBX 27 45 4 -10
BITMAP
FFFFC000
FFFFF800
FFFFFE00
FFFFFF00
FFFFFF80
FFFFFF80
FE007FC0
FE003FC0
FE001FC0
FE001FC0
FE001FC0
FE001FC0
FE001FC0
FE001FC0
FE003FC0
FE007FC0
FFFFFF80
FFFFFF00
FFFFFE00
FFFFFC00
FFFFF000
FFFFF800
FE03F800
FE01FC00
FE01FC00
FE00FE00
FE00FE00
FE00FE00
FE007F00
FE007F00
FE003F80
FE003F80
FE001FC0
FE001FC0
FE001FE0
00000000
00000000
00000000
00000000
007F0000
007F0000
007F0000
007F0000
007F0000
007F0000
ENDCHAR
STARTCHAR uni1E5B
ENCODING 7771
SWIDTH 412 0
DWIDTH 20 0
BBX 16 35 3 -10
BITMAP
FE1F
FE3F
FE7F
FEFF
FFFF
FFFF
FFE1
FF80
FF00
FE00
FE00
FE00
FE00
FE00
FE00
FE00
FE00
FE00
FE00
FE00
FE00
FE00
FE00
FE00
FE00
0000
0000
0000
0000
FE00
FE00
FE00
FE00
FE00
FE00
ENDCHAR
STARTCHAR uni1E62
ENCODING 7778
SWIDTH 692 0
DWIDTH 33 0
BBX 29 45 2 -10
BITMAP
003FF000
01FFFE00
03FFFF00
0FFFFFC0
1FFFFFC0
1FFCFFE0
3FC01FF0
3FC00FF0
3F8007F0
7F8007F0
7F800008
7F800000
3FC00000
3FF80000
3FFF8000
1FFFFC00
1FFFFF00
07FFFFC0
03FFFFE0
00FFFFE0
0007FFF0
00007FF0
00000FF8
000007F8
000003F8
FF0003F8
7F0003F8
7F8007F8
7FC00FF0
3FF03FF0
1FFFFFE0
0FFFFFC0
07FFFF80
03FFFE00
007FF800
00000000
00000000
00000000
00000000
001FC000
001FC000
001FC000
001FC000
001FC000
001FC000
ENDCHAR
STARTCHAR uni1E63
ENCODING 7779
SWIDTH 527 0
DWIDTH 25 0
BBX 21 35 2 -10
BITMAP
03FF00
0FFFC0
1FFFE0
3FFFF0
7FCFF8
7E03F8
7E01F8
7E0000
7F0000
7FE000
7FFE00
3FFFC0
1FFFE0
0FFFF0
01FFF8
000FF8
0001F8
FC01F8
FC01F8
FE01F8
7FC7F8
3FFFF0
3FFFF0
0FFFC0
03FF80
000000
000000
000000
000000
01FC00
01FC00
01FC00
01FC00
01FC00
01FC00
ENDCHAR
STARTCHAR uni1E6C
ENCODING 7788
SWIDTH 616 0
DWIDTH 30 0
BBX 28 45 1 -10
BITMAP
FFFFFFF0
FFFFFFF0
FFFFFFF0
FFFFFFF0
FFFFFFF0
FFFFFFF0
FFFFFFF0
003F8000
003F8000
003F8000
003F8000
003F8000
003F8000
003F8000
003F8000
003F8000
003F8000
003F8000
003F8000
003F8000
003F8000
003F8000
003F8000
003F8000
003F8000
003F8000
003F8000
003F8000
003F8000
003F8000
003F8000
003F8000
003F8000
003F8000
003F8000
00000000
00000000
00000000
00000000
001FC000
001FC000
001FC000
001FC000
001FC000
001FC000
ENDCHAR
STARTCHAR uni1E6D
ENCODING 7789
SWIDTH 416 0
DWIDTH 20 0
BBX 17 42 1 -10
BITMAP
03E000
03E000
03E000
03E000
07E000
07E000
07E000
FFFF80
FFFF80
FFFF80
FFFF80
FFFF80
0FE000
0FE000
0FE000
0FE000
0FE000
0FE000
0FE000
0FE000
0FE000
0FE000
0FE000
0FE000
0FE000
0FF000
0FF000
07FF80
07FF80
07FF80
03FF80
00FF80
000000
000000
000000
000000
01FC00
01FC00
01FC00
01FC00
01FC00
01FC00
ENDCHAR
STARTCHAR Wgrave
ENCODING 7808
SWIDTH 968 0
DWIDTH 46 0
BBX 45 45 1 0
BITMAP
0007F0000000
0003F8000000
0001F8000000
0000FC000000
00007E000000
00003E000000
00001F000000
000000800000
000000000000
000000000000
FE000F8003F8
FE001F8007F0
7E001F8007F0
7F001FC007F0
7F003FC007E0
7F003FC00FE0
3F803FE00FE0
3F803FE00FC0
3F807FE01FC0
1F807FE01FC0
1FC07FF01FC0
1FC07FF01F80
0FC0FFF03F80
0FE0FDF83F80
0FE0FDF83F00
0FE1F9F87F00
07E1F9F87F00
07F1F8FC7F00
07F1F0FC7E00
03F3F0FCFE00
03F3F07EFE00
03FBF07EFC00
03FFE07FFC00
01FFE07FFC00
01FFE03FF800
01FFC03FF800
00FFC03FF800
00FFC01FF800
00FFC01FF000
007F801FF000
007F801FF000
007F800FE000
007F000FE000
003F000FE000
003F0007C000
ENDCHAR
STARTCHAR wgrave
ENCODING 7809
SWIDTH 788 0
DWIDTH 38 0
BBX 36 35 1 0
BITMAP
00FF000000
003F800000
001F800000
000FC00000
0007E00000
0003E00000
0001F00000
0000080000
0000000000
0000000000
FC01F803F0
FC01F807F0
FE01F807E0
7E03F807E0
7E03FC07E0
7F03FC0FC0
3F07FC0FC0
3F07FE0FC0
3F07FE1F80
1F87FE1F80
1F8FFF1F80
1F8FBF3F00
0FCF9F3F00
0FDF9F3F00
0FDF1FBE00
07FF1FFE00
07FF0FFE00
07FE0FFC00
03FE0FFC00
03FE07FC00
03FE07F800
01FC07F800
01FC03F800
01FC03F000
00F803F000
ENDCHAR
STARTCHAR Wacute
ENCODING 7810
SWIDTH 968 0
DWIDTH 46 0
BBX 45 45 1 0
BITMAP
000000FF0000
000000FE0000
000001FC0000
000003F80000
000003E00000
000007C00000
00000F800000
000000000000
000000000000
000000000000
FE000F8003F8
FE001F8007F0
7E001F8007F0
7F001FC007F0
7F003FC007E0
7F003FC00FE0
3F803FE00FE0
3F803FE00FC0
3F807FE01FC0
1F807FE01FC0
1FC07FF01FC0
1FC07FF01F80
0FC0FFF03F80
0FE0FDF83F80
0FE0FDF83F00
0FE1F9F87F00
07E1F9F87F00
07F1F8FC7F00
07F1F0FC7E00
03F3F0FCFE00
03F3F07EFE00
03FBF07EFC00
03FFE07FFC00
01FFE07FFC00
01FFE03FF800
01FFC03FF800
00FFC03FF800
00FFC01FF800
00FFC01FF000
007F801FF000
007F801FF000
007F800FE000
007F000FE000
003F000FE000
003F0007C000
ENDCHAR
STARTCHAR wacute
ENCODING 7811
SWIDTH 788 0
DWIDTH 38 0
BBX 36 35 1 0
BITMAP
00000FF000
00000FC000
00001F8000
00003F0000
00007E0000
00007C0000
0000F80000
0001000000
0000000000
0000000000
FC01F803F0
FC01F807F0
FE01F807E0
7E03F807E0
7E03FC07E0
7F03FC0FC0
3F07FC0FC0
3F07FE0FC0
3F07FE1F80
1F87FE1F80
1F8FFF1F80
1F8FBF3F00
0FCF9F3F00
0FDF9F3F00
0FDF1FBE00
07FF1FFE00
07FF0FFE00
07FE0FFC00
03FE0FFC00
03FE07FC00
03FE07F800
01FC07F800
01FC03F800
01FC03F000
00F803F000
ENDCHAR
STARTCHAR Wdieresis
ENCODING 7812
SWIDTH 968 0
DWIDTH 46 0
BBX 45 45 1 0
BITMAP
0007F07E0000
0007F07E0000
0007F07E0000
0007F0FE0000
0007F0FE0000
0007F0FE0000
000000000000
000000000000
000000000000
000000000000
FE000F8003F8
FE001F8007F0
7E001F8007F0
7F001FC007F0
7F003FC007E0
7F003FC00FE0
3F803FE00FE0
3F803FE00FC0
3F807FE01FC0
1F807FE01FC0
1FC07FF01FC0
1FC07FF01F80
0FC0FFF03F80
0FE0FDF83F80
0FE0FDF83F00
0FE1F9F87F00
07E1F9F87F00
07F1F8FC7F00
07F1F0FC7E00
03F3F0FCFE00
03F3F07EFE00
03FBF07EFC00
03FFE07FFC00
01FFE07FFC00
01FFE03FF800
01FFC03FF800
00FFC03FF800
00FFC01FF800
00FFC01FF000
007F801FF000
007F801FF000
007F800FE000
007F000FE000
003F000FE000
003F0007C000
ENDCHAR
STARTCHAR wdieresis
ENCODING 7813
SWIDTH 788 0
DWIDTH 38 0
BBX 36 35 1 0
BITMAP
007F0FE000
007F0FE000
007F0FE000
007F0FE000
007F0FE000
007F0FE000
0000000000
0000000000
0000000000
0000000000
FC01F803F0
FC01F807F0
FE01F807E0
7E03F807E0
7E03FC07E0
7F03FC0FC0
3F07FC0FC0
3F07FE0FC0
3F07FE1F80
1F87FE1F80
1F8FFF1F80
1F8FBF3F00
0FCF9F3F00
0FDF9F3F00
0FDF1FBE00
07FF1FFE00
07FF0FFE00
07FE0FFC00
03FE0FFC00
03FE07FC00
03FE07F800
01FC07F800
01FC03F800
01FC03F000
00F803F000
ENDCHAR
STARTCHAR uni1E92
ENCODING 7826
SWIDTH 669 0
DWIDTH 32 0
BBX 27 45 3 -10
BITMAP
7FFFFFE0
7FFFFFE0
7FFFFFE0
7FFFFFE0
7FFFFFE0
7FFFFFC0
00007F80
0000FF00
0000FF00
0001FE00
0003FC00
0007FC00
0007F800
000FF000
001FF000
001FE000
003FC000
007F8000
007F8000
00FF0000
01FE0000
01FE0000
03FC0000
07F80000
0FF80000
0FF00000
1FE00000
3FC00000
3FC00000
7FFFFFE0
FFFFFFE0
FFFFFFE0
FFFFFFE0
FFFFFFE0
FFFFFFE0
00000000
00000000
00000000
00000000
003F8000
003F8000
003F8000
003F8000
003F8000
003F8000
ENDCHAR
STARTCHAR uni1E93
ENCODING 7827
SWIDTH 496 0
DWIDTH 24 0
BBX 20 35 2 -10
BITMAP
FFFFF0
FFFFF0
FFFFF0
FFFFF0
FFFFF0
001FE0
001FC0
003FC0
007F80
00FF00
00FE00
01FE00
03FC00
07F800
07F000
0FF000
1FE000
3FC000
7F8000
7F0000
FFFFF0
FFFFF0
FFFFF0
FFFFF0
FFFFF0
000000
000000
000000
000000
01F800
01F800
01F800
01F800
01F800
01F800
ENDCHAR
STARTCHAR uni1EA0
ENCODING 7840
SWIDTH 726 0
DWIDTH 35 0
BBX 33 45 1 -10
BITMAP
0007F00000
000FF80000
000FF80000
000FF80000
001FFC0000
001FFC0000
003FFC0000
003F7E0000
003F7E0000
007F7E0000
007E3F0000
007E3F0000
00FE3F8000
00FC1F8000
00FC1F8000
01FC1FC000
01F80FC000
01F80FC000
03F80FE000
03F007E000
07F007E000
07FFFFF000
07FFFFF000
0FFFFFF000
0FFFFFF800
0FFFFFF800
1FFFFFFC00
1FC001FC00
1FC001FC00
3F8000FE00
3F8000FE00
3F8000FE00
7F00007F00
7F00007F00
FF00007F80
0000000000
0000000000
0000000000
0000000000
0007F00000
0007F00000
0007F00000
0007F00000
0007F00000
0007F00000
ENDCHAR
STARTCHAR uni1EA1
ENCODING 7841
SWIDTH 566 0
DWIDTH 27 0
BBX 23 35 2 -10
BITMAP
01FFC0
0FFFF0
1FFFF8
3FFFFC
3FE7FC
7F01FC
7E00FC
7E00FC
0000FE
0007FE
07FFFE
1FFFFE
3FFFFE
7FC0FE
7F00FE
FE00FE
FE00FE
FE00FE
FE01FE
FE03FE
FF87FE
7FFFFE
7FFEFE
3FFCFE
0FF87E
000000
000000
000000
000000
007E00
007E00
007E00
007E00
007E00
007E00
ENDCHAR
STARTCHAR uni1EA2
ENCODING 7842
SWIDTH 726 0
DWIDTH 35 0
BBX 33 47 1 0
BITMAP
0007F00000
0003F00000
0003F80000
0000380000
00003C0000
0000380000
0000780000
0000700000
0000200000
0000000000
0000000000
0000000000
0007F00000
000FF80000
000FF80000
000FF80000
001FFC0000
001FFC0000
003FFC0000
003F7E0000
003F7E0000
007F7E0000
007E3F0000
007E3F0000
00FE3F8000
00FC1F8000
00FC1F8000
01FC1FC000
01F80FC000
01F80FC000
03F80FE000
03F007E000
07F007E000
07FFFFF000
07FFFFF000
0FFFFFF000
0FFFFFF800
0FFFFFF800
1FFFFFFC00
1FC001FC00
1FC001FC00
3F8000FE00
3F8000FE00
3F8000FE00
7F00007F00
7F00007F00
FF00007F80
ENDCHAR
STARTCHAR uni1EA3
ENCODING 7843
SWIDTH 566 0
DWIDTH 27 0
BBX 23 37 2 0
BITMAP
007E00
007F00
003F80
000780
000380
000780
000F80
000700
000200
000000
000000
000000
01FFC0
0FFFF0
1FFFF8
3FFFFC
3FE7FC
7F01FC
7E00FC
7E00FC
0000FE
0007FE
07FFFE
1FFFFE
3FFFFE
7FC0FE
7F00FE
FE00FE
FE00FE
FE00FE
FE01FE
FE03FE
FF87FE
7FFFFE
7FFEFE
3FFCFE
0FF87E
ENDCHAR
STARTCHAR uni1EA4
ENCODING 7844
SWIDTH 726 0
DWIDTH 35 0
BBX 33 50 1 0
BITMAP
0000007E00
0000007C00
000000F800
000000F000
000001E000
000003C000
0003E00000
0007F00000
000FF80000
001F7C0000
003E3E0000
00FC1F8000
0000000000
0000000000
0000000000
0007F00000
000FF80000
000FF80000
000FF80000
001FFC0000
001FFC0000
003FFC0000
003F7E0000
003F7E0000
007F7E0000
007E3F0000
007E3F0000
00FE3F8000
00FC1F8000
00FC1F8000
01FC1FC000
01F80FC000
01F80FC000
03F80FE000
03F007E000
07F007E000
07FFFFF000
07FFFFF000
0FFFFFF000
0FFFFFF800
0FFFFFF800
1FFFFFFC00
1FC001FC00
1FC001FC00
3F8000FE00
3F8000FE00
3F8000FE00
7F00007F00
7F00007F00
FF00007F80
ENDCHAR
STARTCHAR uni1EA5
ENCODING 7845
SWIDTH 566 0
DWIDTH 27 0
BBX 27 40 2 0
BITMAP
000007E0
00000F80
00000F80
00001F00
00001E00
00003C00
007E0000
00FF0000
01FF8000
03E7C000
07C3E000
0F83F000
10000800
00000000
00000000
01FFC000
0FFFF000
1FFFF800
3FFFFC00
3FE7FC00
7F01FC00
7E00FC00
7E00FC00
0000FE00
0007FE00
07FFFE00
1FFFFE00
3FFFFE00
7FC0FE00
7F00FE00
FE00FE00
FE00FE00
FE00FE00
FE01FE00
FE03FE00
FF87FE00
7FFFFE00
7FFEFE00
3FFCFE00
0FF87E00
ENDCHAR
STARTCHAR uni1EA6
ENCODING 7846
SWIDTH 726 0
DWIDTH 35 0
BBX 33 50 1 0
BITMAP
00001F0000
00000F8000
0000078000
000007C000
000003E000
000001E000
0003E01000
0007F00000
000FF80000
001F7C0000
003E3E0000
00FC1F8000
0000000000
0000000000
0000000000
0007F00000
000FF80000
000FF80000
000FF80000
001FFC0000
001FFC0000
003FFC0000
003F7E0000
003F7E0000
007F7E0000
007E3F0000
007E3F0000
00FE3F8000
00FC1F8000
00FC1F8000
01FC1FC000
01F80FC000
01F80FC000
03F80FE000
03F007E000
07F007E000
07FFFFF000
07FFFFF000
0FFFFFF000
0FFFFFF800
0FFFFFF800
1FFFFFFC00
1FC001FC00
1FC001FC00
3F8000FE00
3F8000FE00
3F8000FE00
7F00007F00
7F00007F00
FF00007F80
ENDCHAR
STARTCHAR uni1EA7
ENCODING 7847
SWIDTH 566 0
DWIDTH 27 0
BBX 23 40 2 0
BITMAP
0003F0
0001F0
0000F8
00007C
00003C
00001E
007E00
00FF00
01FF80
03E7C0
07C3E0
0F83F0
100008
000000
000000
01FFC0
0FFFF0
1FFFF8
3FFFFC
3FE7FC
7F01FC
7E00FC
7E00FC
0000FE
0007FE
07FFFE
1FFFFE
3FFFFE
7FC0FE
7F00FE
FE00FE
FE00FE
FE00FE
FE01FE
FE03FE
FF87FE
7FFFFE
7FFEFE
3FFCFE
0FF87E
ENDCHAR
STARTCHAR uni1EA8
ENCODING 7848
SWIDTH 726 0
DWIDTH 35 0
BBX 33 52 1 0
BITMAP
00001F0000
00003F8000
00001FC000
000009C000
000001E000
000001E000
000003C000
000003C000
0003E18000
0007F10000
000FF80000
001F7C0000
003E3E0000
00FC1F8000
0000000000
0000000000
0000000000
0007F00000
000FF80000
000FF80000
000FF80000
001FFC0000
001FFC0000
003FFC0000
003F7E0000
003F7E0000
007F7E0000
007E3F0000
007E3F0000
00FE3F8000
00FC1F8000
00FC1F8000
01FC1FC000
01F80FC000
01F80FC000
03F80FE000
03F007E000
07F007E000
07FFFFF000
07FFFFF000
0FFFFFF000
0FFFFFF800
0FFFFFF800
1FFFFFFC00
1FC001FC00
1FC001FC00
3F8000FE00
3F8000FE00
3F8000FE00
7F00007F00
7F00007F00
FF00007F80
ENDCHAR
STARTCHAR uni1EA9
ENCODING 7849
SWIDTH 566 0
DWIDTH 27 0
BBX 23 42 2 0
BITMAP
0001F0
0003F8
0001FC
00013C
00001C
00001C
00003C
00003C
007E18
00FF10
01FF80
03F7C0
07E3E0
0FC1F0
100008
000000
000000
01FFC0
0FFFF0
1FFFF8
3FFFFC
3FE7FC
7F01FC
7E00FC
7E00FC
0000FE
0007FE
07FFFE
1FFFFE
3FFFFE
7FC0FE
7F00FE
FE00FE
FE00FE
FE00FE
FE01FE
FE03FE
FF87FE
7FFFFE
7FFEFE
3FFCFE
0FF87E
ENDCHAR
STARTCHAR uni1EAA
ENCODING 7850
SWIDTH 726 0
DWIDTH 35 0
BBX 33 52 1 0
BITMAP
003F010000
007FFF0000
00FFFF0000
007FFF8000
0073FF0000
0040180000
0000000000
0000000000
0003E00000
0007F00000
000FF80000
001F7C0000
003E3E0000
00FC1F8000
0000000000
0000000000
0000000000
0007F00000
000FF80000
000FF80000
000FF80000
001FFC0000
001FFC0000
003FFC0000
003F7E0000
003F7E0000
007F7E0000
007E3F0000
007E3F0000
00FE3F8000
00FC1F8000
00FC1F8000
01FC1FC000
01F80FC000
01F80FC000
03F80FE000
03F007E000
07F007E000
07FFFFF000
07FFFFF000
0FFFFFF000
0FFFFFF800
0FFFFFF800
1FFFFFFC00
1FC001FC00
1FC001FC00
3F8000FE00
3F8000FE00
3F8000FE00
7F00007F00
7F00007F00
FF00007F80
ENDCHAR
STARTCHAR uni1EAB
ENCODING 7851
SWIDTH 566 0
DWIDTH 27 0
BBX 23 42 2 0
BITMAP
03E030
0FFFF0
0FFFF0
0FFFF0
0F3FF0
080380
000000
000000
007E00
00FF00
01FF80
03F7C0
07C3E0
0F81F0
100008
000000
000000
01FFC0
0FFFF0
1FFFF8
3FFFFC
3FE7FC
7F01FC
7E00FC
7E00FC
0000FE
0007FE
07FFFE
1FFFFE
3FFFFE
7FC0FE
7F00FE
FE00FE
FE00FE
FE00FE
FE01FE
FE03FE
FF87FE
7FFFFE
7FFEFE
3FFCFE
0FF87E
ENDCHAR
STARTCHAR uni1EAC
ENCODING 7852
SWIDTH 726 0
DWIDTH 35 0
BBX 33 54 1 -10
BITMAP
0003E00000
0007F00000
000FF80000
001F7C0000
003E3E0000
00FC1F8000
0000000000
0000000000
0000000000
0007F00000
000FF80000
000FF80000
000FF80000
001FFC0000
001FFC0000
003FFC0000
003F7E0000
003F7E0000
007F7E0000
007E3F0000
007E3F0000
00FE3F8000
00FC1F8000
00FC1F8000
01FC1FC000
01F80FC000
01F80FC000
03F80FE000
03F007E000
07F007E000
07FFFFF000
07FFFFF000
0FFFFFF000
0FFFFFF800
0FFFFFF800
1FFFFFFC00
1FC001FC00
1FC001FC00
3F8000FE00
3F8000FE00
3F8000FE00
7F00007F00
7F00007F00
FF00007F80
0000000000
0000000000
0000000000
0000000000
0007F00000
0007F00000
0007F00000
0007F00000
0007F00000
0007F00000
ENDCHAR
STARTCHAR uni1EAD
ENCODING 7853
SWIDTH 566 0
DWIDTH 27 0
BBX 23 44 2 -10
BITMAP
007E00
00FF00
01FF80
03E7C0
07C3E0
0F83F0
100008
000000
000000
01FFC0
0FFFF0
1FFFF8
3FFFFC
3FE7FC
7F01FC
7E00FC
7E00FC
0000FE
0007FE
07FFFE
1FFFFE
3FFFFE
7FC0FE
7F00FE
FE00FE
FE00FE
FE00FE
FE01FE
FE03FE
FF87FE
7FFFFE
7FFEFE
3FFCFE
0FF87E
000000
000000
000000
000000
007E00
007E00
007E00
007E00
007E00
007E00
ENDCHAR
STARTCHAR uni1EAE
ENCODING 7854
SWIDTH 726 0
DWIDTH 35 0
BBX 33 52 1 0
BITMAP
00003F0000
00003E0000
00007C0000
0000F80000
0000F00000
0001E00000
0001C00000
0000000000
00F80F8000
00F80F8000
007E3F0000
003FFE0000
001FFC0000
0007F00000
0000000000
0000000000
0000000000
0007F00000
000FF80000
000FF80000
000FF80000
001FFC0000
001FFC0000
003FFC0000
003F7E0000
003F7E0000
007F7E0000
007E3F0000
007E3F0000
00FE3F8000
00FC1F8000
00FC1F8000
01FC1FC000
01F80FC000
01F80FC000
03F80FE000
03F007E000
07F007E000
07FFFFF000
07FFFFF000
0FFFFFF000
0FFFFFF800
0FFFFFF800
1FFFFFFC00
1FC001FC00
1FC001FC00
3F8000FE00
3F8000FE00
3F8000FE00
7F00007F00
7F00007F00
FF00007F80
ENDCHAR
STARTCHAR uni1EAF
ENCODING 7855
SWIDTH 566 0
DWIDTH 27 0
BBX 23 42 2 0
BITMAP
0003E0
0007C0
0007C0
000F80
000F00
001E00
003C00
000000
0F00F8
0F81F0
07C3F0
07FFE0
03FFC0
00FF00
000000
000000
000000
01FFC0
0FFFF0
1FFFF8
3FFFFC
3FE7FC
7F01FC
7E00FC
7E00FC
0000FE
0007FE
07FFFE
1FFFFE
3FFFFE
7FC0FE
7F00FE
FE00FE
FE00FE
FE00FE
FE01FE
FE03FE
FF87FE
7FFFFE
7FFEFE
3FFCFE
0FF87E
ENDCHAR
STARTCHAR uni1EB0
ENCODING 7856
SWIDTH 726 0
DWIDTH 35 0
BBX 33 52 1 0
BITMAP
007E000000
003E000000
001F000000
000F800000
0007800000
0003C00000
0001E00000
0000000000
00F80F8000
00F80F8000
007E3F0000
003FFE0000
001FFC0000
0007F00000
0000000000
0000000000
0000000000
0007F00000
000FF80000
000FF80000
000FF80000
001FFC0000
001FFC0000
003FFC0000
003F7E0000
003F7E0000
007F7E0000
007E3F0000
007E3F0000
00FE3F8000
00FC1F8000
00FC1F8000
01FC1FC000
01F80FC000
01F80FC000
03F80FE000
03F007E000
07F007E000
07FFFFF000
07FFFFF000
0FFFFFF000
0FFFFFF800
0FFFFFF800
1FFFFFFC00
1FC001FC00
1FC001FC00
3F8000FE00
3F8000FE00
3F8000FE00
7F00007F00
7F00007F00
FF00007F80
ENDCHAR
STARTCHAR uni1EB1
ENCODING 7857
SWIDTH 566 0
DWIDTH 27 0
BBX 23 42 2 0
BITMAP
07E000
03E000
01F000
00F000
007800
007C00
003C00
000000
0F00F8
0F81F0
07C3F0
07FFE0
03FFC0
00FF00
000000
000000
000000
01FFC0
0FFFF0
1FFFF8
3FFFFC
3FE7FC
7F01FC
7E00FC
7E00FC
0000FE
0007FE
07FFFE
1FFFFE
3FFFFE
7FC0FE
7F00FE
FE00FE
FE00FE
FE00FE
FE01FE
FE03FE
FF87FE
7FFFFE
7FFEFE
3FFCFE
0FF87E
ENDCHAR
STARTCHAR uni1EB2
ENCODING 7858
SWIDTH 726 0
DWIDTH 35 0
BBX 33 53 1 0
BITMAP
0007800000
001FC00000
000FE00000
0004F00000
0000F00000
0000F00000
0000F00000
0001E00000
0000C00000
00F88F8000
00F80F8000
007E3F0000
003FFE0000
001FFC0000
0007F00000
0000000000
0000000000
0000000000
0007F00000
000FF80000
000FF80000
000FF80000
001FFC0000
001FFC0000
003FFC0000
003F7E0000
003F7E0000
007F7E0000
007E3F0000
007E3F0000
00FE3F8000
00FC1F8000
00FC1F8000
01FC1FC000
01F80FC000
01F80FC000
03F80FE000
03F007E000
07F007E000
07FFFFF000
07FFFFF000
0FFFFFF000
0FFFFFF800
0FFFFFF800
1FFFFFFC00
1FC001FC00
1FC001FC00
3F8000FE00
3F8000FE00
3F8000FE00
7F00007F00
7F00007F00
FF00007F80
ENDCHAR
STARTCHAR uni1EB3
ENCODING 7859
SWIDTH 566 0
DWIDTH 27 0
BBX 23 43 2 0
BITMAP
00F800
01FC00
00FE00
009E00
000E00
000E00
001E00
001E00
000C00
0F08F8
0F81F0
07C3F0
07FFE0
03FFC0
00FF00
000000
000000
000000
01FFC0
0FFFF0
1FFFF8
3FFFFC
3FE7FC
7F01FC
7E00FC
7E00FC
0000FE
0007FE
07FFFE
1FFFFE
3FFFFE
7FC0FE
7F00FE
FE00FE
FE00FE
FE00FE
FE01FE
FE03FE
FF87FE
7FFFFE
7FFEFE
3FFCFE
0FF87E
ENDCHAR
STARTCHAR uni1EB4
ENCODING 7860
SWIDTH 726 0
DWIDTH 35 0
BBX 33 52 1 0
BITMAP
003F010000
007FFF0000
00FFFF0000
00FFFF8000
0073FF0000
0040180000
0000000000
0000000000
00F80F8000
00F80F8000
007E3F0000
003FFE0000
001FFC0000
0007F00000
0000000000
0000000000
0000000000
0007F00000
000FF80000
000FF80000
000FF80000
001FFC0000
001FFC0000
003FFC0000
003F7E0000
003F7E0000
007F7E0000
007E3F0000
007E3F0000
00FE3F8000
00FC1F8000
00FC1F8000
01FC1FC000
01F80FC000
01F80FC000
03F80FE000
03F007E000
07F007E000
07FFFFF000
07FFFFF000
0FFFFFF000
0FFFFFF800
0FFFFFF800
1FFFFFFC00
1FC001FC00
1FC001FC00
3F8000FE00
3F8000FE00
3F8000FE00
7F00007F00
7F00007F00
FF00007F80
ENDCHAR
STARTCHAR uni1EB5
ENCODING 7861
SWIDTH 566 0
DWIDTH 27 0
BBX 23 42 2 0
BITMAP
03E030
0FFFF0
0FFFF0
0FFFF0
0F3FF0
080380
000000
000000
0F00F8
0F81F0
07C3F0
07FFE0
03FFC0
00FF00
000000
000000
000000
01FFC0
0FFFF0
1FFFF8
3FFFFC
3FE7FC
7F01FC
7E00FC
7E00FC
0000FE
0007FE
07FFFE
1FFFFE
3FFFFE
7FC0FE
7F00FE
FE00FE
FE00FE
FE00FE
FE01FE
FE03FE
FF87FE
7FFFFE
7FFEFE
3FFCFE
0FF87E
ENDCHAR
STARTCHAR uni1EB6
ENCODING 7862
SWIDTH 726 0
DWIDTH 35 0
BBX 33 54 1 -10
BITMAP
00F80F8000
00F80F0000
007E3F0000
003FFE0000
001FFC0000
000FF00000
0000000000
0000000000
0000000000
0007F00000
000FF80000
000FF80000
000FF80000
001FFC0000
001FFC0000
003FFC0000
003F7E0000
003F7E0000
007F7E0000
007E3F0000
007E3F0000
00FE3F8000
00FC1F8000
00FC1F8000
01FC1FC000
01F80FC000
01F80FC000
03F80FE000
03F007E000
07F007E000
07FFFFF000
07FFFFF000
0FFFFFF000
0FFFFFF800
0FFFFFF800
1FFFFFFC00
1FC001FC00
1FC001FC00
3F8000FE00
3F8000FE00
3F8000FE00
7F00007F00
7F00007F00
FF00007F80
0000000000
0000000000
0000000000
0000000000
0007F00000
0007F00000
0007F00000
0007F00000
0007F00000
0007F00000
ENDCHAR
STARTCHAR uni1EB7
ENCODING 7863
SWIDTH 566 0
DWIDTH 27 0
BBX 23 44 2 -10
BITMAP
0F00F0
0F81F0
07C3F0
07FFE0
03FFC0
00FF00
000000
000000
000000
01FFC0
0FFFF0
1FFFF8
3FFFFC
3FE7FC
7F01FC
7E00FC
7E00FC
0000FE
0007FE
07FFFE
1FFFFE
3FFFFE
7FC0FE
7F00FE
FE00FE
FE00FE
FE00FE
FE01FE
FE03FE
FF87FE
7FFFFE
7FFEFE
3FFCFE
0FF87E
000000
000000
000000
000000
007E00
007E00
007E00
007E00
007E00
007E00
ENDCHAR
STARTCHAR uni1EB8
ENCODING 7864
SWIDTH 634 0
DWIDTH 30 0
BBX 24 45 4 -10
BITMAP
FFFFFF
FFFFFF
FFFFFF
FFFFFF
FFFFFF
FFFFFF
FE0000
FE0000
FE0000
FE0000
FE0000
FE0000
FE0000
FE0000
FE0000
FFFFF8
FFFFF8
FFFFF8
FFFFF8
FFFFF8
FE0000
FE0000
FE0000
FE0000
FE0000
FE0000
FE0000
FE0000
FE0000
FFFFFF
FFFFFF
FFFFFF
FFFFFF
FFFFFF
FFFFFF
000000
000000
000000
000000
007F00
007F00
007F00
007F00
007F00
007F00
ENDCHAR
STARTCHAR uni1EB9
ENCODING 7865
SWIDTH 576 0
DWIDTH 28 0
BBX 24 35 2 -10
BITMAP
01FF80
07FFE0
0FFFF0
1FFFF8
3FFFFC
3F81FC
7F00FE
7E007E
7E007E
FE007E
FFFFFF
FFFFFF
FFFFFF
FFFFFF
FE0000
FE0000
FE0000
7F007F
7F007E
3F80FE
3FFFFC
1FFFFC
0FFFF8
07FFE0
01FF80
000000
000000
000000
000000
007F00
007F00
007F00
007F00
007F00
007F00
ENDCHAR
STARTCHAR uni1EBA
ENCODING 7866
SWIDTH 634 0
DWIDTH 30 0
BBX 24 47 4 0
BITMAP
00FE00
007F00
003F00
000780
000380
000780
000F80
000700
000600
000000
000000
000000
FFFFFF
FFFFFF
FFFFFF
FFFFFF
FFFFFF
FFFFFF
FE0000
FE0000
FE0000
FE0000
FE0000
FE0000
FE0000
FE0000
FE0000
FFFFF8
FFFFF8
FFFFF8
FFFFF8
FFFFF8
FE0000
FE0000
FE0000
FE0000
FE0000
FE0000
FE0000
FE0000
FE0000
FFFFFF
FFFFFF
FFFFFF
FFFFFF
FFFFFF
FFFFFF
ENDCHAR
STARTCHAR uni1EBB
ENCODING 7867
SWIDTH 576 0
DWIDTH 28 0
BBX 24 37 2 0
BITMAP
007E00
007F00
003F80
000780
000380
000780
000F80
000700
000200
000000
000000
000000
01FF80
07FFE0
0FFFF0
1FFFF8
3FFFFC
3F81FC
7F00FE
7E007E
7E007E
FE007E
FFFFFF
FFFFFF
FFFFFF
FFFFFF
FE0000
FE0000
FE0000
7F007F
7F007E
3F80FE
3FFFFC
1FFFFC
0FFFF8
07FFE0
01FF80
ENDCHAR
STARTCHAR uni1EBC
ENCODING 7868
SWIDTH 634 0
DWIDTH 30 0
BBX 24 45 4 0
BITMAP
000010
07F830
0FFFF0
0FFFF0
0FFFF0
0C0FE0
000000
000000
000000
000000
FFFFFF
FFFFFF
FFFFFF
FFFFFF
FFFFFF
FFFFFF
FE0000
FE0000
FE0000
FE0000
FE0000
FE0000
FE0000
FE0000
FE0000
FFFFF8
FFFFF8
FFFFF8
FFFFF8
FFFFF8
FE0000
FE0000
FE0000
FE0000
FE0000
FE0000
FE0000
FE0000
FE0000
FFFFFF
FFFFFF
FFFFFF
FFFFFF
FFFFFF
FFFFFF
ENDCHAR
STARTCHAR uni1EBD
ENCODING 7869
SWIDTH 576 0
DWIDTH 28 0
BBX 24 35 2 0
BITMAP
000010
07F830
0FFFF0
0FFFF0
0FFFF0
040FE0
000000
000000
000000
000000
01FF80
07FFE0
0FFFF0
1FFFF8
3FFFFC
3F81FC
7F00FE
7E007E
7E007E
FE007E
FFFFFF
FFFFFF
FFFFFF
FFFFFF
FE0000
FE0000
FE0000
7F007F
7F007E
3F80FE
3FFFFC
1FFFFC
0FFFF8
07FFE0
01FF80
ENDCHAR
STARTCHAR uni1EBE
ENCODING 7870
SWIDTH 634 0
DWIDTH 30 0
BBX 26 50 4 0
BITMAP
000007C0
00000F80
00000F00
00001E00
00003E00
00003C00
007E4000
00FF0000
01FF8000
03EFC000
07C7E000
0F83F000
10000000
00000000
00000000
FFFFFF00
FFFFFF00
FFFFFF00
FFFFFF00
FFFFFF00
FFFFFF00
FE000000
FE000000
FE000000
FE000000
FE000000
FE000000
FE000000
FE000000
FE000000
FFFFF800
FFFFF800
FFFFF800
FFFFF800
FFFFF800
FE000000
FE000000
FE000000
FE000000
FE000000
FE000000
FE000000
FE000000
FE000000
FFFFFF00
FFFFFF00
FFFFFF00
FFFFFF00
FFFFFF00
FFFFFF00
ENDCHAR
STARTCHAR uni1EBF
ENCODING 7871
SWIDTH 576 0
DWIDTH 28 0
BBX 27 40 2 0
BITMAP
000007E0
00000F80
00000F80
00001F00
00001E00
00003C00
007E0000
00FF0000
01FF8000
03E7C000
07C3E000
0F83F000
10000800
00000000
00000000
01FF8000
07FFE000
0FFFF000
1FFFF800
3FFFFC00
3F81FC00
7F00FE00
7E007E00
7E007E00
FE007E00
FFFFFF00
FFFFFF00
FFFFFF00
FFFFFF00
FE000000
FE000000
FE000000
7F007F00
7F007E00
3F80FE00
3FFFFC00
1FFFFC00
0FFFF800
07FFE000
01FF8000
ENDCHAR
STARTCHAR uni1EC0
ENCODING 7872
SWIDTH 634 0
DWIDTH 30 0
BBX 24 50 4 0
BITMAP
0003F0
0001F0
0000F8
000078
00003C
00001E
007E00
00FF00
01FF80
03EFC0
07C7E0
0F83F0
100000
000000
000000
FFFFFF
FFFFFF
FFFFFF
FFFFFF
FFFFFF
FFFFFF
FE0000
FE0000
FE0000
FE0000
FE0000
FE0000
FE0000
FE0000
FE0000
FFFFF8
FFFFF8
FFFFF8
FFFFF8
FFFFF8
FE0000
FE0000
FE0000
FE0000
FE0000
FE0000
FE0000
FE0000
FE0000
FFFFFF
FFFFFF
FFFFFF
FFFFFF
FFFFFF
FFFFFF
ENDCHAR
STARTCHAR uni1EC1
ENCODING 7873
SWIDTH 576 0
DWIDTH 28 0
BBX 24 40 2 0
BITMAP
0003F0
0001F0
0000F8
00007C
00003C
00001E
007E00
00FF00
01FF80
03E7C0
07C3E0
0F83F0
100008
000000
000000
01FF80
07FFE0
0FFFF0
1FFFF8
3FFFFC
3F81FC
7F00FE
7E007E
7E007E
FE007E
FFFFFF
FFFFFF
FFFFFF
FFFFFF
FE0000
FE0000
FE0000
7F007F
7F007E
3F80FE
3FFFFC
1FFFFC
0FFFF8
07FFE0
01FF80
ENDCHAR
STARTCHAR uni1EC2
ENCODING 7874
SWIDTH 634 0
DWIDTH 30 0
BBX 24 52 4 0
BITMAP
0001E0
0003F8
0001F8
00013C
00001C
00001C
00007C
000038
007E30
00FF10
01FF80
03E7C0
07C7E0
0F83F0
100008
000000
000000
FFFFFF
FFFFFF
FFFFFF
FFFFFF
FFFFFF
FFFFFF
FE0000
FE0000
FE0000
FE0000
FE0000
FE0000
FE0000
FE0000
FE0000
FFFFF8
FFFFF8
FFFFF8
FFFFF8
FFFFF8
FE0000
FE0000
FE0000
FE0000
FE0000
FE0000
FE0000
FE0000
FE0000
FFFFFF
FFFFFF
FFFFFF
FFFFFF
FFFFFF
FFFFFF
ENDCHAR
STARTCHAR uni1EC3
ENCODING 7875
SWIDTH 576 0
DWIDTH 28 0
BBX 24 42 2 0
BITMAP
0001F0
0003F8
0001FC
00013C
00001C
00001C
00003C
00003C
007E18
00FF10
01FF80
03F7C0
07E3E0
0FC1F0
100008
000000
000000
01FF80
07FFE0
0FFFF0
1FFFF8
3FFFFC
3F81FC
7F00FE
7E007E
7E007E
FE007E
FFFFFF
FFFFFF
FFFFFF
FFFFFF
FE0000
FE0000
FE0000
7F007F
7F007E
3F80FE
3FFFFC
1FFFFC
0FFFF8
07FFE0
01FF80
ENDCHAR
STARTCHAR uni1EC4
ENCODING 7876
SWIDTH 634 0
DWIDTH 30 0
BBX 24 52 4 0
BITMAP
03E020
0FFFF0
0FFFF0
0FFFF0
0E3FE0
080380
000000
000000
007E00
00FF00
01FF80
03EFC0
07C7E0
0F83F0
100008
000000
000000
FFFFFF
FFFFFF
FFFFFF
FFFFFF
FFFFFF
FFFFFF
FE0000
FE0000
FE0000
FE0000
FE0000
FE0000
FE0000
FE0000
FE0000
FFFFF8
FFFFF8
FFFFF8
FFFFF8
FFFFF8
FE0000
FE0000
FE0000
FE0000
FE0000
FE0000
FE0000
FE0000
FE0000
FFFFFF
FFFFFF
FFFFFF
FFFFFF
FFFFFF
FFFFFF
ENDCHAR
STARTCHAR uni1EC5
ENCODING 7877
SWIDTH 576 0
DWIDTH 28 0
BBX 24 42 2 0
BITMAP
03E030
0FFFF0
0FFFF0
0FFFF0
0F3FF0
080380
000000
000000
007E00
00FF00
01FF80
03F7C0
07C3E0
0F81F0
100008
000000
000000
01FF80
07FFE0
0FFFF0
1FFFF8
3FFFFC
3F81FC
7F00FE
7E007E
7E007E
FE007E
FFFFFF
FFFFFF
FFFFFF
FFFFFF
FE0000
FE0000
FE0000
7F007F
7F007E
3F80FE
3FFFFC
1FFFFC
0FFFF8
07FFE0
01FF80
ENDCHAR
STARTCHAR uni1EC6
ENCODING 7878
SWIDTH 634 0
DWIDTH 30 0
BBX 24 54 4 -10
BITMAP
007E00
00FF00
01FF80
03EFC0
07C7E0
0F83F0
100000
000000
000000
FFFFFF
FFFFFF
FFFFFF
FFFFFF
FFFFFF
FFFFFF
FE0000
FE0000
FE0000
FE0000
FE0000
FE0000
FE0000
FE0000
FE0000
FFFFF8
FFFFF8
FFFFF8
FFFFF8
FFFFF8
FE0000
FE0000
FE0000
FE0000
FE0000
FE0000
FE0000
FE0000
FE0000
FFFFFF
FFFFFF
FFFFFF
FFFFFF
FFFFFF
FFFFFF
000000
000000
000000
000000
007F00
007F00
007F00
007F00
007F00
007F00
ENDCHAR
STARTCHAR uni1EC7
ENCODING 7879
SWIDTH 576 0
DWIDTH 28 0
BBX 24 44 2 -10
BITMAP
007E00
00FF00
01FF80
03E7C0
07C3E0
0F83F0
100008
000000
000000
01FF80
07FFE0
0FFFF0
1FFFF8
3FFFFC
3F81FC
7F00FE
7E007E
7E007E
FE007E
FFFFFF
FFFFFF
FFFFFF
FFFFFF
FE0000
FE0000
FE0000
7F007F
7F007E
3F80FE
3FFFFC
1FFFFC
0FFFF8
07FFE0
01FF80
000000
000000
000000
000000
007F00
007F00
007F00
007F00
007F00
007F00
ENDCHAR
STARTCHAR uni1EC8
ENCODING 7880
SWIDTH 307 0
DWIDTH 15 0
BBX 9 47 4 0
BITMAP
FC00
7E00
7F00
0700
0780
0700
0F00
0E00
0400
0000
0000
0000
FE00
FE00
FE00
FE00
FE00
FE00
FE00
FE00
FE00
FE00
FE00
FE00
FE00
FE00
FE00
FE00
FE00
FE00
FE00
FE00
FE00
FE00
FE00
FE00
FE00
FE00
FE00
FE00
FE00
FE00
FE00
FE00
FE00
FE00
FE00
ENDCHAR
STARTCHAR uni1EC9
ENCODING 7881
SWIDTH 264 0
DWIDTH 13 0
BBX 9 37 3 0
BITMAP
FE00
7F00
7F00
0700
0780
0700
0F00
0E00
0400
0000
0000
0000
FE00
FE00
FE00
FE00
FE00
FE00
FE00
FE00
FE00
FE00
FE00
FE00
FE00
FE00
FE00
FE00
FE00
FE00
FE00
FE00
FE00
FE00
FE00
FE00
FE00
ENDCHAR
STARTCHAR uni1ECA
ENCODING 7882
SWIDTH 307 0
DWIDTH 15 0
BBX 7 45 4 -10
BITMAP
FE
FE
FE
FE
FE
FE
FE
FE
FE
FE
FE
FE
FE
FE
FE
FE
FE
FE
FE
FE
FE
FE
FE
FE
FE
FE
FE
FE
FE
FE
FE
FE
FE
FE
FE
00
00
00
00
FE
FE
FE
FE
FE
FE
ENDCHAR
STARTCHAR uni1ECB
ENCODING 7883
SWIDTH 267 0
DWIDTH 13 0
BBX 7 45 3 -10
BITMAP
FE
FE
FE
FE
FE
FE
FE
00
00
00
FE
FE
FE
FE
FE
FE
FE
FE
FE
FE
FE
FE
FE
FE
FE
FE
FE
FE
FE
FE
FE
FE
FE
FE
FE
00
00
00
00
FE
FE
FE
FE
FE
FE
ENDCHAR
STARTCHAR uni1ECC
ENCODING 7884
SWIDTH 760 0
DWIDTH 37 0
BBX 32 45 2 -10
BITMAP
001FF800
007FFF00
01FFFF80
03FFFFE0
07FFFFF0
0FFFFFF8
1FF00FF8
1FE007FC
3FC003FC
3FC001FE
7F8001FE
7F8000FE
7F8000FF
7F0000FF
FF0000FF
FF0000FF
FF00007F
FF00007F
FF00007F
FF00007F
FF0000FF
7F0000FF
7F0000FF
7F8000FF
7F8000FE
7F8001FE
3FC001FE
3FE003FC
1FF007FC
0FFE3FF8
0FFFFFF0
07FFFFE0
01FFFFC0
00FFFF80
003FFC00
00000000
00000000
00000000
00000000
0007F000
0007F000
0007F000
0007F000
0007F000
0007F000
ENDCHAR
STARTCHAR uni1ECD
ENCODING 7885
SWIDTH 575 0
DWIDTH 28 0
BBX 24 35 2 -10
BITMAP
01FF80
07FFE0
0FFFF0
1FFFF8
3FFFFC
7F83FC
7F01FE
7F00FE
FE00FE
FE007F
FE007F
FE007F
FE007F
FE007F
FE007F
FE007F
FE00FE
FF00FE
7F01FE
7F83FC
3FFFFC
1FFFF8
0FFFF0
07FFE0
01FF80
000000
000000
000000
000000
00FE00
00FE00
00FE00
00FE00
00FE00
00FE00
ENDCHAR
STARTCHAR uni1ECE
ENCODING 7886
SWIDTH 760 0
DWIDTH 37 0
BBX 32 47 2 0
BITMAP
0007E000
0007F000
0003F800
00003800
00003800
00003800
00007800
00007000
00002000
00000000
00000000
00000000
001FF800
007FFF00
01FFFF80
03FFFFE0
07FFFFF0
0FFFFFF8
1FF00FF8
1FE007FC
3FC003FC
3FC001FE
7F8001FE
7F8000FE
7F8000FF
7F0000FF
FF0000FF
FF0000FF
FF00007F
FF00007F
FF00007F
FF00007F
FF0000FF
7F0000FF
7F0000FF
7F8000FF
7F8000FE
7F8001FE
3FC001FE
3FE003FC
1FF007FC
0FFE3FF8
0FFFFFF0
07FFFFE0
01FFFFC0
00FFFF80
003FFC00
ENDCHAR
STARTCHAR uni1ECF
ENCODING 7887
SWIDTH 575 0
DWIDTH 28 0
BBX 24 37 2 0
BITMAP
00FE00
007F00
003F00
000780
000380
000780
000F00
000700
000600
000000
000000
000000
01FF80
07FFE0
0FFFF0
1FFFF8
3FFFFC
7F83FC
7F01FE
7F00FE
FE00FE
FE007F
FE007F
FE007F
FE007F
FE007F
FE007F
FE007F
FE00FE
FF00FE
7F01FE
7F83FC
3FFFFC
1FFFF8
0FFFF0
07FFE0
01FF80
ENDCHAR
STARTCHAR uni1ED0
ENCODING 7888
SWIDTH 760 0
DWIDTH 37 0
BBX 32 50 2 0
BITMAP
0000007E
0000007C
000000F8
000001F0
000001E0
000003C0
0007E000
000FF000
001FF800
003F7C00
007E3E00
00FC1F00
00000080
00000000
00000000
001FF800
007FFF00
01FFFF80
03FFFFE0
07FFFFF0
0FFFFFF8
1FF00FF8
1FE007FC
3FC003FC
3FC001FE
7F8001FE
7F8000FE
7F8000FF
7F0000FF
FF0000FF
FF0000FF
FF00007F
FF00007F
FF00007F
FF00007F
FF0000FF
7F0000FF
7F0000FF
7F8000FF
7F8000FE
7F8001FE
3FC001FE
3FE003FC
1FF007FC
0FFE3FF8
0FFFFFF0
07FFFFE0
01FFFFC0
00FFFF80
003FFC00
ENDCHAR
STARTCHAR uni1ED1
ENCODING 7889
SWIDTH 575 0
DWIDTH 28 0
BBX 26 40 2 0
BITMAP
000007C0
00000F80
00000F00
00001E00
00003E00
00003C00
007E4000
00FF0000
01FF8000
03EFC000
07C7E000
0F83F000
10000000
00000000
00000000
01FF8000
07FFE000
0FFFF000
1FFFF800
3FFFFC00
7F83FC00
7F01FE00
7F00FE00
FE00FE00
FE007F00
FE007F00
FE007F00
FE007F00
FE007F00
FE007F00
FE007F00
FE00FE00
FF00FE00
7F01FE00
7F83FC00
3FFFFC00
1FFFF800
0FFFF000
07FFE000
01FF8000
ENDCHAR
STARTCHAR uni1ED2
ENCODING 7890
SWIDTH 760 0
DWIDTH 37 0
BBX 32 50 2 0
BITMAP
00003F00
00000F80
00000F80
000007C0
000003C0
000001E0
0007E010
000FF000
001FF800
003F7C00
007E3E00
00FC1F00
00000080
00000000
00000000
001FF800
007FFF00
01FFFF80
03FFFFE0
07FFFFF0
0FFFFFF8
1FF00FF8
1FE007FC
3FC003FC
3FC001FE
7F8001FE
7F8000FE
7F8000FF
7F0000FF
FF0000FF
FF0000FF
FF00007F
FF00007F
FF00007F
FF00007F
FF0000FF
7F0000FF
7F0000FF
7F8000FF
7F8000FE
7F8001FE
3FC001FE
3FE003FC
1FF007FC
0FFE3FF8
0FFFFFF0
07FFFFE0
01FFFFC0
00FFFF80
003FFC00
ENDCHAR
STARTCHAR uni1ED3
ENCODING 7891
SWIDTH 575 0
DWIDTH 28 0
BBX 24 40 2 0
BITMAP
0003F0
0001F0
0000F8
000078
00003C
00001E
007E00
00FF00
01FF80
03EFC0
07C7E0
0F83F0
100000
000000
000000
01FF80
07FFE0
0FFFF0
1FFFF8
3FFFFC
7F83FC
7F01FE
7F00FE
FE00FE
FE007F
FE007F
FE007F
FE007F
FE007F
FE007F
FE007F
FE00FE
FF00FE
7F01FE
7F83FC
3FFFFC
1FFFF8
0FFFF0
07FFE0
01FF80
ENDCHAR
STARTCHAR uni1ED4
ENCODING 7892
SWIDTH 760 0
DWIDTH 37 0
BBX 32 52 2 0
BITMAP
00001F00
00003F80
00001FC0
000011C0
000001E0
000001E0
000003C0
000003C0
0003E180
0007F100
000FF800
001F7C00
003E3E00
00FC1F80
00000000
00000000
00000000
001FF800
007FFF00
01FFFF80
03FFFFE0
07FFFFF0
0FFFFFF8
1FF00FF8
1FE007FC
3FC003FC
3FC001FE
7F8001FE
7F8000FE
7F8000FF
7F0000FF
FF0000FF
FF0000FF
FF00007F
FF00007F
FF00007F
FF00007F
FF0000FF
7F0000FF
7F0000FF
7F8000FF
7F8000FE
7F8001FE
3FC001FE
3FE003FC
1FF007FC
0FFE3FF8
0FFFFFF0
07FFFFE0
01FFFFC0
00FFFF80
003FFC00
ENDCHAR
STARTCHAR uni1ED5
ENCODING 7893
SWIDTH 575 0
DWIDTH 28 0
BBX 24 42 2 0
BITMAP
0001E0
0003F8
0001F8
00013C
00001C
00001C
00007C
000038
007E30
00FF10
01FF80
03E7C0
07C7E0
0F83F0
100008
000000
000000
01FF80
07FFE0
0FFFF0
1FFFF8
3FFFFC
7F83FC
7F01FE
7F00FE
FE00FE
FE007F
FE007F
FE007F
FE007F
FE007F
FE007F
FE007F
FE00FE
FF00FE
7F01FE
7F83FC
3FFFFC
1FFFF8
0FFFF0
07FFE0
01FF80
ENDCHAR
STARTCHAR uni1ED6
ENCODING 7894
SWIDTH 760 0
DWIDTH 37 0
BBX 32 52 2 0
BITMAP
003F0100
007FFF00
00FFFF00
00FFFF80
0073FF00
00401800
00000000
00000000
0003E000
000FF000
001FF800
003F7C00
007E3E00
00FC1F00
00000080
00000000
00000000
001FF800
007FFF00
01FFFF80
03FFFFE0
07FFFFF0
0FFFFFF8
1FF00FF8
1FE007FC
3FC003FC
3FC001FE
7F8001FE
7F8000FE
7F8000FF
7F0000FF
FF0000FF
FF0000FF
FF00007F
FF00007F
FF00007F
FF00007F
FF0000FF
7F0000FF
7F0000FF
7F8000FF
7F8000FE
7F8001FE
3FC001FE
3FE003FC
1FF007FC
0FFE3FF8
0FFFFFF0
07FFFFE0
01FFFFC0
00FFFF80
003FFC00
ENDCHAR
STARTCHAR uni1ED7
ENCODING 7895
SWIDTH 575 0
DWIDTH 28 0
BBX 24 42 2 0
BITMAP
03E020
0FFFF0
0FFFF0
0FFFF0
0E3FE0
080380
000000
000000
007E00
00FF00
01FF80
03EFC0
07C7E0
0F83F0
100008
000000
000000
01FF80
07FFE0
0FFFF0
1FFFF8
3FFFFC
7F83FC
7F01FE
7F00FE
FE00FE
FE007F
FE007F
FE007F
FE007F
FE007F
FE007F
FE007F
FE00FE
FF00FE
7F01FE
7F83FC
3FFFFC
1FFFF8
0FFFF0
07FFE0
01FF80
ENDCHAR
STARTCHAR uni1ED8
ENCODING 7896
SWIDTH 760 0
DWIDTH 37 0
BBX 32 54 2 -10
BITMAP
0007E000
000FF000
001FF800
003F7C00
007E3E00
00FC1F00
00000080
00000000
00000000
001FF800
007FFF00
01FFFF80
03FFFFE0
07FFFFF0
0FFFFFF8
1FF00FF8
1FE007FC
3FC003FC
3FC001FE
7F8001FE
7F8000FE
7F8000FF
7F0000FF
FF0000FF
FF0000FF
FF00007F
FF00007F
FF00007F
FF00007F
FF0000FF
7F0000FF
7F0000FF
7F8000FF
7F8000FE
7F8001FE
3FC001FE
3FE003FC
1FF007FC
0FFE3FF8
0FFFFFF0
07FFFFE0
01FFFFC0
00FFFF80
003FFC00
00000000
00000000
00000000
00000000
0007F000
0007F000
0007F000
0007F000
0007F000
0007F000
ENDCHAR
STARTCHAR uni1ED9
ENCODING 7897
SWIDTH 575 0
DWIDTH 28 0
BBX 24 44 2 -10
BITMAP
007E00
00FF00
01FF80
03EFC0
07C7E0
0F83F0
100000
000000
000000
01FF80
07FFE0
0FFFF0
1FFFF8
3FFFFC
7F83FC
7F01FE
7F00FE
FE00FE
FE007F
FE007F
FE007F
FE007F
FE007F
FE007F
FE007F
FE00FE
FF00FE
7F01FE
7F83FC
3FFFFC
1FFFF8
0FFFF0
07FFE0
01FF80
000000
000000
000000
000000
00FE00
00FE00
00FE00
00FE00
00FE00
00FE00
ENDCHAR
STARTCHAR uni1EDA
ENCODING 7898
SWIDTH 835 0
DWIDTH 40 0
BBX 37 45 2 0
BITMAP
00003FC000
00003F8000
00007F0000
0000FE0000
0000FC0000
0001F80000
0003F00000
0000000000
0000000000
00000000F8
001FF800F8
007FFF00F8
01FFFFC0F8
03FFFFE1F0
07FFFFFFF0
0FFFFFFFF0
1FF00FFFE0
1FE007FF80
3FC003FC00
3FC001FE00
7F8001FE00
7F8000FE00
7F8000FF00
7F0000FF00
FF0000FF00
FF0000FF00
FF00007F00
FF00007F00
FF00007F00
FF00007F00
FF0000FF00
7F0000FF00
7F0000FF00
7F8000FF00
7F8000FE00
7F8001FE00
3FC001FE00
3FE003FC00
1FF007FC00
0FFE3FF800
0FFFFFF000
07FFFFE000
01FFFFC000
00FFFF8000
003FFC0000
ENDCHAR
STARTCHAR uni1EDB
ENCODING 7899
SWIDTH 641 0
DWIDTH 31 0
BBX 29 35 2 0
BITMAP
0003F800
0007F000
000FE000
000FC000
001F8000
003F0000
007E0000
00000000
000000F8
000000F8
01FF80F8
07FFE0F8
0FFFF1F8
1FFFFFF0
3FFFFFF0
7F83FFE0
7F01FF80
7F00FE00
FE00FE00
FE007F00
FE007F00
FE007F00
FE007F00
FE007F00
FE007F00
FE007F00
FE00FE00
FF00FE00
7F01FE00
7F83FC00
3FFFFC00
1FFFF800
0FFFF000
07FFE000
01FF8000
ENDCHAR
STARTCHAR uni1EDC
ENCODING 7900
SWIDTH 835 0
DWIDTH 40 0
BBX 37 45 2 0
BITMAP
01FC000000
00FE000000
007E000000
003F000000
001F800000
000F800000
0007C00000
0000200000
0000000000
00000000F8
001FF800F8
007FFF00F8
01FFFFC0F8
03FFFFE1F0
07FFFFFFF0
0FFFFFFFF0
1FF00FFFE0
1FE007FF80
3FC003FC00
3FC001FE00
7F8001FE00
7F8000FE00
7F8000FF00
7F0000FF00
FF0000FF00
FF0000FF00
FF00007F00
FF00007F00
FF00007F00
FF00007F00
FF0000FF00
7F0000FF00
7F0000FF00
7F8000FF00
7F8000FE00
7F8001FE00
3FC001FE00
3FE003FC00
1FF007FC00
0FFE3FF800
0FFFFFF000
07FFFFE000
01FFFFC000
00FFFF8000
003FFC0000
ENDCHAR
STARTCHAR uni1EDD
ENCODING 7901
SWIDTH 641 0
DWIDTH 31 0
BBX 29 35 2 0
BITMAP
3F800000
1FC00000
0FE00000
07E00000
03F00000
01F80000
00FC0000
00000000
000000F8
000000F8
01FF80F8
07FFE0F8
0FFFF1F8
1FFFFFF0
3FFFFFF0
7F83FFE0
7F01FF80
7F00FE00
FE00FE00
FE007F00
FE007F00
FE007F00
FE007F00
FE007F00
FE007F00
FE007F00
FE00FE00
FF00FE00
7F01FE00
7F83FC00
3FFFFC00
1FFFF800
0FFFF000
07FFE000
01FF8000
ENDCHAR
STARTCHAR uni1EDE
ENCODING 7902
SWIDTH 835 0
DWIDTH 40 0
BBX 37 47 2 0
BITMAP
0007E00000
0007F00000
0003F80000
0000380000
0000380000
0000380000
0000780000
0000700000
0000200000
0000000000
0000000000
00000000F8
001FF800F8
007FFF00F8
01FFFFC0F8
03FFFFE1F0
07FFFFFFF0
0FFFFFFFF0
1FF00FFFE0
1FE007FF80
3FC003FC00
3FC001FE00
7F8001FE00
7F8000FE00
7F8000FF00
7F0000FF00
FF0000FF00
FF0000FF00
FF00007F00
FF00007F00
FF00007F00
FF00007F00
FF0000FF00
7F0000FF00
7F0000FF00
7F8000FF00
7F8000FE00
7F8001FE00
3FC001FE00
3FE003FC00
1FF007FC00
0FFE3FF800
0FFFFFF000
07FFFFE000
01FFFFC000
00FFFF8000
003FFC0000
ENDCHAR
STARTCHAR uni1EDF
ENCODING 7903
SWIDTH 641 0
DWIDTH 31 0
BBX 29 37 2 0
BITMAP
00FE0000
007F0000
007F0000
00078000
00078000
00078000
000F0000
000F0000
00040000
00000000
000000F8
000000F8
01FF80F8
07FFE0F8
0FFFF1F8
1FFFFFF0
3FFFFFF0
7F83FFE0
7F01FF80
7F00FE00
FE00FE00
FE007F00
FE007F00
FE007F00
FE007F00
FE007F00
FE007F00
FE007F00
FE00FE00
FF00FE00
7F01FE00
7F83FC00
3FFFFC00
1FFFF800
0FFFF000
07FFE000
01FF8000
ENDCHAR
STARTCHAR uni1EE0
ENCODING 7904
SWIDTH 835 0
DWIDTH 40 0
BBX 37 45 2 0
BITMAP
0000010000
003F830000
00FFFF0000
00FFFF0000
007FFF8000
0060FE0000
0000000000
0000000000
0000000000
00000000F8
001FF800F8
007FFF00F8
01FFFFC0F8
03FFFFE1F0
07FFFFFFF0
0FFFFFFFF0
1FF00FFFE0
1FE007FF80
3FC003FC00
3FC001FE00
7F8001FE00
7F8000FE00
7F8000FF00
7F0000FF00
FF0000FF00
FF0000FF00
FF00007F00
FF00007F00
FF00007F00
FF00007F00
FF0000FF00
7F0000FF00
7F0000FF00
7F8000FF00
7F8000FE00
7F8001FE00
3FC001FE00
3FE003FC00
1FF007FC00
0FFE3FF800
0FFFFFF000
07FFFFE000
01FFFFC000
00FFFF8000
003FFC0000
ENDCHAR
STARTCHAR uni1EE1
ENCODING 7905
SWIDTH 641 0
DWIDTH 31 0
BBX 29 35 2 0
BITMAP
00002000
07F06000
1FFFF000
0FFFF000
0FFFF000
0C1FC000
00000000
00000000
000000F8
000000F8
01FF80F8
07FFE0F8
0FFFF1F8
1FFFFFF0
3FFFFFF0
7F83FFE0
7F01FF80
7F00FE00
FE00FE00
FE007F00
FE007F00
FE007F00
FE007F00
FE007F00
FE007F00
FE007F00
FE00FE00
FF00FE00
7F01FE00
7F83FC00
3FFFFC00
1FFFF800
0FFFF000
07FFE000
01FF8000
ENDCHAR
STARTCHAR uni1EE2
ENCODING 7906
SWIDTH 835 0
DWIDTH 40 0
BBX 37 46 2 -10
BITMAP
00000000F8
001FF800F8
007FFF00F8
01FFFFC0F8
03FFFFE1F0
07FFFFFFF0
0FFFFFFFF0
1FF00FFFE0
1FE007FF80
3FC003FC00
3FC001FE00
7F8001FE00
7F8000FE00
7F8000FF00
7F0000FF00
FF0000FF00
FF0000FF00
FF00007F00
FF00007F00
FF00007F00
FF00007F00
FF0000FF00
7F0000FF00
7F0000FF00
7F8000FF00
7F8000FE00
7F8001FE00
3FC001FE00
3FE003FC00
1FF007FC00
0FFE3FF800
0FFFFFF000
07FFFFE000
01FFFFC000
00FFFF8000
003FFC0000
0000000000
0000000000
0000000000
0000000000
0007F00000
0007F00000
0007F00000
0007F00000
0007F00000
0007F00000
ENDCHAR
STARTCHAR uni1EE3
ENCODING 7907
SWIDTH 641 0
DWIDTH 31 0
BBX 29 37 2 -10
BITMAP
000000F8
000000F8
01FF80F8
07FFE0F8
0FFFF1F8
1FFFFFF0
3FFFFFF0
7F83FFE0
7F01FF80
7F00FE00
FE00FE00
FE007F00
FE007F00
FE007F00
FE007F00
FE007F00
FE007F00
FE007F00
FE00FE00
FF00FE00
7F01FE00
7F83FC00
3FFFFC00
1FFFF800
0FFFF000
07FFE000
01FF8000
00000000
00000000
00000000
00000000
00FE0000
00FE0000
00FE0000
00FE0000
00FE0000
00FE0000
ENDCHAR
STARTCHAR uni1EE4
ENCODING 7908
SWIDTH 724 0
DWIDTH 35 0
BBX 28 45 4 -10
BITMAP
FE0007F0
FE0007F0
FE0007F0
FE0007F0
FE0007F0
FE0007F0
FE0007F0
FE0007F0
FE0007F0
FE0007F0
FE0007F0
FE0007F0
FE0007F0
FE0007F0
FE0007F0
FE0007F0
FE0007F0
FE0007F0
FE0007F0
FE0007F0
FE0007F0
FE0007F0
FE0007F0
FE000FF0
FE000FE0
FF000FE0
FF000FE0
7F801FE0
7FC03FE0
7FFFFFC0
3FFFFF80
1FFFFF80
0FFFFF00
07FFFC00
01FFF000
00000000
00000000
00000000
00000000
003F8000
003F8000
003F8000
003F8000
003F8000
003F8000
ENDCHAR
STARTCHAR uni1EE5
ENCODING 7909
SWIDTH 595 0
DWIDTH 29 0
BBX 23 35 3 -10
BITMAP
FE00FE
FE00FE
FE00FE
FE00FE
FE00FE
FE00FE
FE00FE
FE00FE
FE00FE
FE00FE
FE00FE
FE00FE
FE00FE
FE00FE
FE00FE
FE00FE
FE00FE
FE01FE
FE01FE
FF03FE
FFFF7E
7FFF7E
3FFF7E
1FFE7E
07F87E
000000
000000
000000
000000
00FE00
00FE00
00FE00
00FE00
00FE00
00FE00
ENDCHAR
STARTCHAR uni1EE6
ENCODING 7910
SWIDTH 724 0
DWIDTH 35 0
BBX 28 47 4 0
BITMAP
003F8000
001FC000
000FC000
0001E000
0001E000
0001E000
0003C000
0001C000
00018000
00000000
00000000
00000000
FE0007F0
FE0007F0
FE0007F0
FE0007F0
FE0007F0
FE0007F0
FE0007F0
FE0007F0
FE0007F0
FE0007F0
FE0007F0
FE0007F0
FE0007F0
FE0007F0
FE0007F0
FE0007F0
FE0007F0
FE0007F0
FE0007F0
FE0007F0
FE0007F0
FE0007F0
FE0007F0
FE000FF0
FE000FE0
FF000FE0
FF000FE0
7F801FE0
7FC03FE0
7FFFFFC0
3FFFFF80
1FFFFF80
0FFFFF00
07FFFC00
01FFF000
ENDCHAR
STARTCHAR uni1EE7
ENCODING 7911
SWIDTH 595 0
DWIDTH 29 0
BBX 23 37 3 0
BITMAP
00FC00
00FE00
007F00
000700
000700
000700
000F00
000E00
000400
000000
000000
000000
FE00FE
FE00FE
FE00FE
FE00FE
FE00FE
FE00FE
FE00FE
FE00FE
FE00FE
FE00FE
FE00FE
FE00FE
FE00FE
FE00FE
FE00FE
FE00FE
FE00FE
FE01FE
FE01FE
FF03FE
FFFF7E
7FFF7E
3FFF7E
1FFE7E
07F87E
ENDCHAR
STARTCHAR uni1EE8
ENCODING 7912
SWIDTH 860 0
DWIDTH 41 0
BBX 36 45 4 0
BITMAP
0000FE0000
0001FC0000
0001F80000
0003F00000
0007E00000
000FC00000
000F800000
0010000000
0000000000
00000001F0
FE0007F1F0
FE0007F1F0
FE0007F3E0
FE0007F3E0
FE0007FFE0
FE0007FFC0
FE0007FFC0
FE0007FF00
FE0007F000
FE0007F000
FE0007F000
FE0007F000
FE0007F000
FE0007F000
FE0007F000
FE0007F000
FE0007F000
FE0007F000
FE0007F000
FE0007F000
FE0007F000
FE0007F000
FE0007F000
FE000FF000
FE000FE000
FF000FE000
FF000FE000
7F801FE000
7FC03FE000
7FFFFFC000
3FFFFF8000
1FFFFF8000
0FFFFF0000
07FFFC0000
01FFF00000
ENDCHAR
STARTCHAR uni1EE9
ENCODING 7913
SWIDTH 710 0
DWIDTH 34 0
BBX 31 35 3 0
BITMAP
0003F800
0007F000
000FE000
000FC000
001F8000
003F0000
007E0000
00000000
0000003E
0000003E
FE00FE3E
FE00FE3E
FE00FE7C
FE00FFFC
FE00FFFC
FE00FFF8
FE00FFE0
FE00FE00
FE00FE00
FE00FE00
FE00FE00
FE00FE00
FE00FE00
FE00FE00
FE00FE00
FE00FE00
FE00FE00
FE01FE00
FE01FE00
FF03FE00
FFFF7E00
7FFF7E00
3FFF7E00
1FFE7E00
07F87E00
ENDCHAR
STARTCHAR uni1EEA
ENCODING 7914
SWIDTH 860 0
DWIDTH 41 0
BBX 36 45 4 0
BITMAP
0FE0000000
07F0000000
03F8000000
01FC000000
00FC000000
007E000000
003F000000
0000000000
0000000000
00000001F0
FE0007F1F0
FE0007F1F0
FE0007F3E0
FE0007F3E0
FE0007FFE0
FE0007FFC0
FE0007FFC0
FE0007FF00
FE0007F000
FE0007F000
FE0007F000
FE0007F000
FE0007F000
FE0007F000
FE0007F000
FE0007F000
FE0007F000
FE0007F000
FE0007F000
FE0007F000
FE0007F000
FE0007F000
FE0007F000
FE000FF000
FE000FE000
FF000FE000
FF000FE000
7F801FE000
7FC03FE000
7FFFFFC000
3FFFFF8000
1FFFFF8000
0FFFFF0000
07FFFC0000
01FFF00000
ENDCHAR
STARTCHAR uni1EEB
ENCODING 7915
SWIDTH 710 0
DWIDTH 34 0
BBX 31 35 3 0
BITMAP
3F800000
1FC00000
0FC00000
07E00000
03F00000
01F80000
00F80000
00040000
0000003E
0000003E
FE00FE3E
FE00FE3E
FE00FE7C
FE00FFFC
FE00FFFC
FE00FFF8
FE00FFE0
FE00FE00
FE00FE00
FE00FE00
FE00FE00
FE00FE00
FE00FE00
FE00FE00
FE00FE00
FE00FE00
FE00FE00
FE01FE00
FE01FE00
FF03FE00
FFFF7E00
7FFF7E00
3FFF7E00
1FFE7E00
07F87E00
ENDCHAR
STARTCHAR uni1EEC
ENCODING 7916
SWIDTH 860 0
DWIDTH 41 0
BBX 36 47 4 0
BITMAP
003F800000
001FC00000
000FC00000
0001E00000
0001E00000
0001E00000
0003C00000
0001C00000
0001800000
0000000000
0000000000
00000001F0
FE0007F1F0
FE0007F1F0
FE0007F3E0
FE0007F3E0
FE0007FFE0
FE0007FFC0
FE0007FFC0
FE0007FF00
FE0007F000
FE0007F000
FE0007F000
FE0007F000
FE0007F000
FE0007F000
FE0007F000
FE0007F000
FE0007F000
FE0007F000
FE0007F000
FE0007F000
FE0007F000
FE0007F000
FE0007F000
FE000FF000
FE000FE000
FF000FE000
FF000FE000
7F801FE000
7FC03FE000
7FFFFFC000
3FFFFF8000
1FFFFF8000
0FFFFF0000
07FFFC0000
01FFF00000
ENDCHAR
STARTCHAR uni1EED
ENCODING 7917
SWIDTH 710 0
DWIDTH 34 0
BBX 31 37 3 0
BITMAP
00FC0000
007E0000
007F0000
00070000
00078000
00070000
000F0000
000E0000
00040000
00000000
0000003E
0000003E
FE00FE3E
FE00FE3E
FE00FE7C
FE00FFFC
FE00FFFC
FE00FFF8
FE00FFE0
FE00FE00
FE00FE00
FE00FE00
FE00FE00
FE00FE00
FE00FE00
FE00FE00
FE00FE00
FE00FE00
FE00FE00
FE01FE00
FE01FE00
FF03FE00
FFFF7E00
7FFF7E00
3FFF7E00
1FFE7E00
07F87E00
ENDCHAR
STARTCHAR uni1EEE
ENCODING 7918
SWIDTH 856 0
DWIDTH 41 0
BBX 36 45 4 0
BITMAP
0000040000
01FE0C0000
03FFFC0000
03FFFC0000
03FFFC0000
0303F80000
0000000000
0000000000
0000000000
00000001F0
FE0007F1F0
FE0007F1F0
FE0007F3E0
FE0007F3E0
FE0007FFE0
FE0007FFC0
FE0007FFC0
FE0007FF00
FE0007F000
FE0007F000
FE0007F000
FE0007F000
FE0007F000
FE0007F000
FE0007F000
FE0007F000
FE0007F000
FE0007F000
FE0007F000
FE0007F000
FE0007F000
FE0007F000
FE0007F000
FE000FF000
FE000FE000
FF000FE000
FF000FE000
7F801FE000
7FC03FE000
7FFFFFC000
3FFFFF8000
1FFFFF8000
0FFFFF0000
07FFFC0000
01FFF00000
ENDCHAR
STARTCHAR uni1EEF
ENCODING 7919
SWIDTH 710 0
DWIDTH 34 0
BBX 31 35 3 0
BITMAP
00002000
07F06000
1FFFE000
1FFFF000
0FFFF000
0C1FC000
00000000
00000000
0000003E
0000003E
FE00FE3E
FE00FE3E
FE00FE7C
FE00FFFC
FE00FFFC
FE00FFF8
FE00FFE0
FE00FE00
FE00FE00
FE00FE00
FE00FE00
FE00FE00
FE00FE00
FE00FE00
FE00FE00
FE00FE00
FE00FE00
FE01FE00
FE01FE00
FF03FE00
FFFF7E00
7FFF7E00
3FFF7E00
1FFE7E00
07F87E00
ENDCHAR
STARTCHAR uni1EF0
ENCODING 7920
SWIDTH 860 0
DWIDTH 41 0
BBX 36 46 4 -10
BITMAP
00000001F0
FE0007F1F0
FE0007F1F0
FE0007F3E0
FE0007F3E0
FE0007FFE0
FE0007FFC0
FE0007FFC0
FE0007FF00
FE0007F000
FE0007F000
FE0007F000
FE0007F000
FE0007F000
FE0007F000
FE0007F000
FE0007F000
FE0007F000
FE0007F000
FE0007F000
FE0007F000
FE0007F000
FE0007F000
FE0007F000
FE000FF000
FE000FE000
FF000FE000
FF000FE000
7F801FE000
7FC03FE000
7FFFFFC000
3FFFFF8000
1FFFFF8000
0FFFFF0000
07FFFC0000
01FFF00000
0000000000
0000000000
0000000000
0000000000
003F800000
003F800000
003F800000
003F800000
003F800000
003F800000
ENDCHAR
STARTCHAR uni1EF1
ENCODING 7921
SWIDTH 710 0
DWIDTH 34 0
BBX 31 37 3 -10
BITMAP
0000003E
0000003E
FE00FE3E
FE00FE3E
FE00FE7C
FE00FFFC
FE00FFFC
FE00FFF8
FE00FFE0
FE00FE00
FE00FE00
FE00FE00
FE00FE00
FE00FE00
FE00FE00
FE00FE00
FE00FE00
FE00FE00
FE00FE00
FE01FE00
FE01FE00
FF03FE00
FFFF7E00
7FFF7E00
3FFF7E00
1FFE7E00
07F87E00
00000000
00000000
00000000
00000000
00FC0000
00FC0000
00FC0000
00FC0000
00FC0000
00FC0000
ENDCHAR
STARTCHAR Ygrave
ENCODING 7922
SWIDTH 667 0
DWIDTH 32 0
BBX 32 45 0 0
BITMAP
01FC0000
00FE0000
007F0000
003F8000
001F8000
000FC000
0007E000
00000000
00000000
00000000
FF0000FF
7F8001FE
3F8001FC
3FC003FC
1FC003F8
0FE007F0
0FF00FF0
07F00FE0
07F81FE0
03F81FC0
01FC3F80
01FC3F80
00FE7F00
00FF7F00
007FFE00
003FFC00
003FFC00
001FF800
001FF800
000FF000
000FF000
000FF000
000FF000
000FF000
000FF000
000FF000
000FF000
000FF000
000FF000
000FF000
000FF000
000FF000
000FF000
000FF000
000FF000
ENDCHAR
STARTCHAR ygrave
ENCODING 7923
SWIDTH 563 0
DWIDTH 27 0
BBX 25 43 1 -8
BITMAP
1FC00000
0FE00000
07F00000
03F00000
01F80000
00FC0000
007E0000
00000000
00000000
00000000
FE003F80
FE003F80
7E003F00
7F007F00
7F007F00
3F807E00
3F80FE00
1F80FC00
1FC1FC00
1FC1FC00
0FC1F800
0FE3F800
07E3F000
07E3F000
07F7F000
03F7E000
03FFE000
01FFC000
01FFC000
01FFC000
00FF8000
00FF8000
007F0000
007F0000
007F0000
007E0000
00FE0000
03FC0000
7FFC0000
7FF80000
7FF00000
7FE00000
3F800000
ENDCHAR
STARTCHAR uni1EF4
ENCODING 7924
SWIDTH 667 0
DWIDTH 32 0
BBX 32 45 0 -10
BITMAP
FF0000FF
7F8001FE
3F8001FC
3FC003FC
1FC003F8
0FE007F0
0FF00FF0
07F00FE0
07F81FE0
03F81FC0
01FC3F80
01FC3F80
00FE7F00
00FF7F00
007FFE00
003FFC00
003FFC00
001FF800
001FF800
000FF000
000FF000
000FF000
000FF000
000FF000
000FF000
000FF000
000FF000
000FF000
000FF000
000FF000
000FF000
000FF000
000FF000
000FF000
000FF000
00000000
00000000
00000000
00000000
0007E000
0007E000
0007E000
0007E000
0007E000
0007E000
ENDCHAR
STARTCHAR uni1EF5
ENCODING 7925
SWIDTH 563 0
DWIDTH 27 0
BBX 25 34 1 -9
BITMAP
FE003F80
FE003F80
7E003F00
7F007F00
7F007F00
3F807E00
3F80FE00
1F80FC00
1FC1FC00
1FC1FC00
0FC1F800
0FE3F800
07E3F000
07E3F000
07F7F000
03F7E000
03FFE000
01FFC000
01FFC000
01FFC000
00FF8000
00FF8000
007F0000
007F0000
007F0000
007E0000
00FE0000
03FC0000
7FFCFE00
7FF8FE00
7FF0FE00
7FE0FE00
3F80FE00
0000FE00
ENDCHAR
STARTCHAR uni1EF6
ENCODING 7926
SWIDTH 667 0
DWIDTH 32 0
BBX 32 47 0 0
BITMAP
0007F000
0003F800
0001F800
00003C00
00001C00
00003C00
00007800
00003800
00003000
00000000
00000000
00000000
FF0000FF
7F8001FE
3F8001FC
3FC003FC
1FC003F8
0FE007F0
0FF00FF0
07F00FE0
07F81FE0
03F81FC0
01FC3F80
01FC3F80
00FE7F00
00FF7F00
007FFE00
003FFC00
003FFC00
001FF800
001FF800
000FF000
000FF000
000FF000
000FF000
000FF000
000FF000
000FF000
000FF000
000FF000
000FF000
000FF000
000FF000
000FF000
000FF000
000FF000
000FF000
ENDCHAR
STARTCHAR uni1EF7
ENCODING 7927
SWIDTH 563 0
DWIDTH 27 0
BBX 25 45 1 -8
BITMAP
007F0000
003F8000
003F8000
00038000
0003C000
0003C000
00078000
00078000
00020000
00000000
00000000
00000000
FE003F80
FE003F80
7E003F00
7F007F00
7F007F00
3F807E00
3F80FE00
1F80FC00
1FC1FC00
1FC1FC00
0FC1F800
0FE3F800
07E3F000
07E3F000
07F7F000
03F7E000
03FFE000
01FFC000
01FFC000
01FFC000
00FF8000
00FF8000
007F0000
007F0000
007F0000
007E0000
00FE0000
03FC0000
7FFC0000
7FF80000
7FF00000
7FE00000
3F800000
ENDCHAR
STARTCHAR uni1EF8
ENCODING 7928
SWIDTH 667 0
DWIDTH 32 0
BBX 32 45 0 0
BITMAP
00000080
003FC180
007FFF80
007FFF80
007FFF80
00607F00
00000000
00000000
00000000
00000000
FF0000FF
7F8001FE
3F8001FC
3FC003FC
1FC003F8
0FE007F0
0FF00FF0
07F00FE0
07F81FE0
03F81FC0
01FC3F80
01FC3F80
00FE7F00
00FF7F00
007FFE00
003FFC00
003FFC00
001FF800
001FF800
000FF000
000FF000
000FF000
000FF000
000FF000
000FF000
000FF000
000FF000
000FF000
000FF000
000FF000
000FF000
000FF000
000FF000
000FF000
000FF000
ENDCHAR
STARTCHAR uni1EF9
ENCODING 7929
SWIDTH 563 0
DWIDTH 27 0
BBX 25 43 1 -8
BITMAP
00001000
03F83000
0FFFF800
07FFF800
07FFF800
060FE000
00000000
00000000
00000000
00000000
FE003F80
FE003F80
7E003F00
7F007F00
7F007F00
3F807E00
3F80FE00
1F80FC00
1FC1FC00
1FC1FC00
0FC1F800
0FE3F800
07E3F000
07E3F000
07F7F000
03F7E000
03FFE000
01FFC000
01FFC000
01FFC000
00FF8000
00FF8000
007F0000
007F0000
007F0000
007E0000
00FE0000
03FC0000
7FFC0000
7FF80000
7FF00000
7FE00000
3F800000
ENDCHAR
STARTCHAR endash
ENCODING 8211
SWIDTH 592 0
DWIDTH 28 0
BBX 23 6 3 9
BITMAP
000002
FFFFFE
FFFFFE
FFFFFE
FFFFFE
FFFFFE
ENDCHAR
STARTCHAR emdash
ENCODING 8212
SWIDTH 1148 0
DWIDTH 55 0
BBX 37 6 9 9
BITMAP
0000000008
FFFFFFFFF8
FFFFFFFFF8
FFFFFFFFF8
FFFFFFFFF8
FFFFFFFFF8
ENDCHAR
STARTCHAR quoteleft
ENCODING 8216
SWIDTH 263 0
DWIDTH 13 0
BBX 7 13 2 23
BITMAP
0E
0E
1C
3C
38
78
FC
FE
FE
FE
FE
FE
FE
ENDCHAR
STARTCHAR quoteright
ENCODING 8217
SWIDTH 261 0
DWIDTH 13 0
BBX 8 14 2 21
BITMAP
7F
7F
7F
7F
7F
7F
7F
1E
1C
3C
38
70
70
E0
ENDCHAR
STARTCHAR quotesinglbase
ENCODING 8218
SWIDTH 277 0
DWIDTH 13 0
BBX 8 14 2 -7
BITMAP
7F
7F
7F
7F
7F
7F
7E
1E
3C
3C
38
70
70
E0
ENDCHAR
STARTCHAR quotedblleft
ENCODING 8220
SWIDTH 479 0
DWIDTH 23 0
BBX 18 14 2 21
BITMAP
0601C0
0E0380
1C0380
1C0700
380F00
780E00
781E00
FE3F80
FE3F80
FE3F80
FE3F80
FE3F80
FE3F80
FE3F80
ENDCHAR
STARTCHAR quotedblright
ENCODING 8221
SWIDTH 478 0
DWIDTH 23 0
BBX 18 14 2 21
BITMAP
7F1FC0
7F1FC0
7F1FC0
7F1FC0
7F1FC0
7F1FC0
7F1FC0
1E0780
1C0780
3C0700
380F00
700E00
701C00
E01C00
ENDCHAR
STARTCHAR quotedblbase
ENCODING 8222
SWIDTH 498 0
DWIDTH 24 0
BBX 18 14 2 -7
BITMAP
7F1FC0
7F1FC0
7F1FC0
7F1FC0
7F1FC0
7F1FC0
7E1FC0
1E0780
3C0780
3C0700
380E00
700E00
701C00
E01C00
ENDCHAR
STARTCHAR dagger
ENCODING 8224
SWIDTH 520 0
DWIDTH 25 0
BBX 22 43 1 -8
BITMAP
00FE00
00FE00
00FE00
00FC00
00FC00
00FC00
007C00
007C00
007C00
007C00
007C00
C07C04
FFFFFC
FFFFFC
FFFFFC
FFFFFC
FFFBFC
007800
007800
007C00
007C00
007C00
007C00
007C00
007C00
007C00
007C00
007C00
007C00
007C00
007C00
007C00
00FC00
00FC00
00FC00
00FC00
00FC00
00FC00
00FC00
00FE00
00FE00
00FE00
00FE00
ENDCHAR
STARTCHAR daggerdbl
ENCODING 8225
SWIDTH 520 0
DWIDTH 25 0
BBX 22 43 1 -8
BITMAP
00FE00
00FE00
00FE00
00FC00
00FC00
00FC00
00FC00
007C00
007C00
007C00
007C00
007C00
F87C3C
FFFFFC
FFFFFC
FFFFFC
FFFFFC
FC787C
007800
007800
007800
007800
007800
007800
007800
007800
E0780C
FFFFFC
FFFFFC
FFFFFC
FFFFFC
FF7FFC
007C00
007C00
007C00
007C00
007C00
00FC00
00FC00
00FC00
00FE00
00FE00
00FE00
ENDCHAR
STARTCHAR bullet
ENCODING 8226
SWIDTH 353 0
DWIDTH 17 0
BBX 12 12 2 12
BITMAP
0600
1FC0
3FE0
7FF0
FFF0
FFF0
FFF0
FFF0
7FF0
7FE0
3FE0
1F80
ENDCHAR
STARTCHAR ellipsis
ENCODING 8230
SWIDTH 894 0
DWIDTH 43 0
BBX 38 8 2 0
BITMAP
FF01FE03FC
FF01FE03FC
FF01FE03FC
FF01FE03FC
FF01FE03FC
FF01FE03FC
FF01FE03FC
FF01FE03FC
ENDCHAR
STARTCHAR perthousand
ENCODING 8240
SWIDTH 1352 0
DWIDTH 65 0
BBX 60 35 2 0
BITMAP
03F00003E0000000
0FFC0003C0000000
1FFE000780000000
3F3F000F00000000
7E1F000F00000000
7C0F801E00000000
7C0F803C00000000
FC0FC03C00000000
F807C07800000000
F807C0F000000000
F807C0F000000000
F80FC1E000000000
7C0F83C000000000
7C0F83C000000000
7C0F878000000000
3E1F0F0000000000
1FFE0F0FE000FE00
0FFC1E1FF801FF80
07F83C3FFC03FFC0
00003C7EFE07EFE0
000078F83E0F83E0
0000F0F81F0F81F0
0000F1F01F1F01F0
0001E1F01F1F01F0
0003C1F01F1F01F0
0003C1F01F9F01F0
000781F01F9F01F0
000F01F01F1F01F0
000F01F01F1F01F0
001E00F81F1F81F0
003C00F83E0F83E0
003C007C7E0FC7E0
0078007FFC07FFC0
00F0003FF803FF80
01F0000FF000FF00
ENDCHAR
STARTCHAR guilsinglleft
ENCODING 8249
SWIDTH 309 0
DWIDTH 15 0
BBX 10 18 2 3
BITMAP
03C0
0780
0F80
0F00
1F00
1E00
3E00
7E00
FC00
7C00
7E00
3E00
1E00
1F00
0F00
0780
0780
03C0
ENDCHAR
STARTCHAR guilsinglright
ENCODING 8250
SWIDTH 308 0
DWIDTH 15 0
BBX 9 18 3 3
BITMAP
F000
7800
7800
3C00
3E00
3E00
1F00
1F80
0F80
0F80
1F00
1F00
3E00
3E00
7C00
7800
7800
F000
ENDCHAR
STARTCHAR fraction
ENCODING 8260
SWIDTH 237 0
DWIDTH 11 0
BBX 27 35 -8 0
BITMAP
000001E0
000003C0
000003C0
00000780
00000F00
00000F00
00001E00
00003C00
00003C00
00007800
0000F000
0000F000
0001E000
0003C000
0003C000
00078000
000F8000
000F0000
001E0000
003E0000
003C0000
00780000
00F80000
00F00000
01E00000
03E00000
03C00000
07800000
0F800000
0F000000
1E000000
3E000000
3C000000
78000000
F8000000
ENDCHAR
STARTCHAR uni2070
ENCODING 8304
SWIDTH 402 0
DWIDTH 19 0
BBX 17 22 1 18
BITMAP
03F000
0FF800
1FFC00
3FFE00
3C1F00
7C0F00
780F80
780F80
F80F80
F80F80
F80F80
F80F80
F80F80
F80F80
F80F80
780F80
7C0F00
7C1F00
3F3F00
3FFE00
1FFC00
07F800
ENDCHAR
STARTCHAR uni2074
ENCODING 8308
SWIDTH 410 0
DWIDTH 20 0
BBX 18 22 1 18
BITMAP
003C00
007C00
00FC00
00FC00
01FC00
03FC00
07BC00
07BC00
0F3C00
1E3C00
3C3C00
3C3C00
783C00
F03C00
FFFFC0
FFFFC0
FFFFC0
003C00
003C00
003C00
003C00
003C00
ENDCHAR
STARTCHAR uni2075
ENCODING 8309
SWIDTH 421 0
DWIDTH 20 0
BBX 18 22 1 18
BITMAP
3FFF80
3FFF80
3FFF80
3FFF00
3C0000
3C0000
3C0000
3C0000
3DFC00
3FFF00
3FFF80
3FFF80
0C0FC0
0007C0
0007C0
1007C0
3807C0
FC0FC0
7E1F80
3FFF80
1FFF00
07FC00
ENDCHAR
STARTCHAR uni2076
ENCODING 8310
SWIDTH 412 0
DWIDTH 20 0
BBX 18 22 1 18
BITMAP
03F000
0FFE00
1FFF00
3FFF00
3E0F80
7C0780
7C0000
780000
F8E000
FBFE00
FFFF00
FFFF80
FE0F80
FC0F80
F807C0
7807C0
7C0780
7C0F80
3E1F80
1FFF00
0FFE00
07F800
ENDCHAR
STARTCHAR uni2077
ENCODING 8311
SWIDTH 372 0
DWIDTH 18 0
BBX 16 22 1 18
BITMAP
FFFF
FFFF
FFFF
FFFF
001F
003E
003E
007C
0078
00F8
00F0
01F0
01E0
03E0
03E0
07C0
07C0
07C0
0780
0F80
0F80
0F80
ENDCHAR
STARTCHAR uni2078
ENCODING 8312
SWIDTH 429 0
DWIDTH 21 0
BBX 18 22 1 18
BITMAP
03F800
0FFE00
1FFF00
3E1F80
3C0F80
7C0780
7C0780
3C0F80
3E1F80
1FFF00
0FFE00
1FFF00
3FFF80
7C0F80
7C07C0
F807C0
F807C0
7C07C0
7E0FC0
3FFF80
1FFF00
0FFC00
ENDCHAR
STARTCHAR uni2079
ENCODING 8313
SWIDTH 411 0
DWIDTH 20 0
BBX 18 22 1 18
BITMAP
07F000
1FFC00
3FFE00
7F7F00
7C1F00
780F80
F80F80
F80F80
F80F80
7C0F80
7E3FC0
3FFF80
3FFF80
0FE780
000780
000780
F80F80
780F00
7C3F00
3FFE00
1FFC00
0FF000
ENDCHAR
STARTCHAR colonmonetary
ENCODING 8353
SWIDTH 718 0
DWIDTH 34 0
BBX 30 40 2 -3
BITMAP
0000E700
0001C700
001FFF00
00FFFF00
01FFFF80
07FFFFC0
0FFFFFE0
0FFFFFF0
1FF39FF0
3FE39FF8
3FC39FF8
3F879FFC
7F871FFC
7F871DFC
7F073C00
7F073800
FF0F3800
FF0E3800
FF0E3800
FF0E7800
FF0E7000
FF0E7000
FF1C7000
7F1C7000
7F1CF000
7F9CE1FC
7F9CE3FC
3FBCE3FC
3FF8E7F8
3FF8E7F8
1FF9CFF8
0FFDFFF0
07FFFFE0
07FFFFE0
01FFFFC0
00FFFF00
007FFC00
00F38000
00E38000
00E38000
ENDCHAR
STARTCHAR franc
ENCODING 8355
SWIDTH 624 0
DWIDTH 30 0
BBX 29 35 -1 0
BITMAP
0FFFFFF8
0FFFFFF8
0FFFFFF8
0FFFFFF8
0FFFFFF8
0FFFFFF8
0FF00000
0FF00000
0FF00000
0FF00000
0FF00000
0FF00000
0FF00000
0FF00000
0FF00000
0FFFFF80
0FFFFF80
0FFFFF80
0FFFFF80
0FFFFF80
0FFFFF80
0FF00000
0FF00000
0FF00000
0FF00000
FFFFE000
FFFFE000
FFFFE000
FFFFE000
0FF00000
0FF00000
0FF00000
0FF00000
0FF00000
0FF00000
ENDCHAR
STARTCHAR lira
ENCODING 8356
SWIDTH 648 0
DWIDTH 31 0
BBX 28 35 1 0
BITMAP
003FE000
00FFF800
01FFFE00
03FFFF00
07FFFF80
0FFE7F80
0FF81FC0
0FF01E00
0FF01000
0FF00000
0FF00000
0FF00000
FFFFE000
FFFFE000
FFFFE000
FFFFE000
07F80000
07F80000
07F80000
FFFFE000
FFFFE000
FFFFE000
FFFFE000
03F80000
03F80000
03F80200
07F003F0
07F007F0
0FE00FF0
FFFFFFE0
FFFFFFC0
FFFFFFC0
FFFFFF80
FFFFFE00
FFFFF800
ENDCHAR
STARTCHAR uni20A6
ENCODING 8358
SWIDTH 830 0
DWIDTH 40 0
BBX 39 35 0 0
BITMAP
07F8000FE0
07F8000FE0
07FC000FE0
07FE000FE0
07FE000FE0
07FF000FE0
07FF800FE0
07FF800FE0
07FFC00FE0
07FFE00FE0
FFFFFFFFFE
FFFFFFFFFE
FFFFFFFFFE
FFFFFFFFFE
07F1FC0FE0
07F1FE0FE0
07F0FF0FE0
07F07F0FE0
07F07F8FE0
07F03FCFE0
FFFFFFFFFE
FFFFFFFFFE
FFFFFFFFFE
FFFFFFFFFE
07F003FFE0
07F003FFE0
07F001FFE0
07F000FFE0
07F000FFE0
07F0007FE0
07F0003FE0
07F0003FE0
07F0001FE0
07F0000FE0
07F00007E0
ENDCHAR
STARTCHAR uni20A9
ENCODING 8361
SWIDTH 1118 0
DWIDTH 54 0
BBX 52 35 1 0
BITMAP
1FC001F0007F00
1FC001F0007E00
0FE003F800FE00
0FE003F800FE00
0FE003F800FE00
07E007F801FC00
FFFFFFFFFFFFF0
FFFFFFFFFFFFF0
FFFFFFFFFFFFF0
FFFFFFFFFFFFF0
03F80FFE03F800
03F80FFE03F800
01F81FFE03F000
01FC1FBF07F000
FFFFFFFFFFFFF0
FFFFFFFFFFFFF0
FFFFFFFFFFFFF0
00FE3F1F8FE000
00FE3F1F8FC000
007E7E1F8FC000
007F7E0FDFC000
007F7E0FDFC000
003F7E0FDF8000
003FFC07FF8000
003FFC07FF8000
001FFC07FF0000
001FF803FF0000
001FF803FF0000
001FF803FE0000
000FF003FE0000
000FF001FE0000
000FF001FE0000
0007F001FC0000
0007E000FC0000
0007E000FC0000
ENDCHAR
STARTCHAR dong
ENCODING 8363
SWIDTH 536 0
DWIDTH 26 0
BBX 23 35 2 0
BITMAP
0003F0
0003F0
0003F0
007FFE
007FFE
007FFE
0003F0
0003F0
07E3F0
0FFBF0
1FFFF0
3FFFF0
7F07F0
7E03F0
FC03F0
FC03F0
FC03F0
FC03F0
FC03F0
FC03F0
FC03F0
FC03F0
FC03F0
7E03F0
7F07F0
7FFFF0
3FFFF0
1FFBF0
07E3F0
000000
000000
000000
7FFFF0
7FFFF0
7FFFF0
ENDCHAR
STARTCHAR Euro
ENCODING 8364
SWIDTH 651 0
DWIDTH 31 0
BBX 29 35 0 0
BITMAP
0003FE00
000FFFC0
003FFFE0
007FFFF0
00FFFFF8
01FFEFF0
03FF01E0
03FC00C0
07FC0000
07F80000
07F80000
0FF80000
FFFFF000
FFFFF000
FFFFF000
FFFFF000
0FF00000
0FF00000
0FF00000
0FF00000
FFFFF000
FFFFF000
FFFFF000
0FF80000
07F80000
07F80000
07FC0040
03FE0060
03FF01E0
01FFEFF0
00FFFFF8
007FFFF0
003FFFE0
001FFFC0
0007FF00
ENDCHAR
STARTCHAR uni20B9
ENCODING 8377
SWIDTH 643 0
DWIDTH 31 0
BBX 29 35 1 0
BITMAP
FFFFFFF8
FFFFFFF8
FFFFFFF8
FFFFFFF8
0007FE00
0001FF00
0000FF00
FFFFFFF8
FFFFFFF8
FFFFFFF8
FFFFFFF8
0000FF80
0000FF00
0001FF00
000FFE00
FFFFFE00
FFFFFC00
FFFFF000
FFFFC000
FFFFC000
001FE000
001FE000
000FE000
000FF000
000FF000
0007F800
0007F800
0007FC00
0003FC00
0003FC00
0003FE00
0001FE00
0001FF00
0001FF00
0000FF80
ENDCHAR
STARTCHAR uni20BA
ENCODING 8378
SWIDTH 655 0
DWIDTH 31 0
BBX 30 35 1 0
BITMAP
07F80000
07F80000
07F80000
07F80000
07F80000
07F80000
07F80000
07F80000
07F87000
07FBF000
07FFF000
07FFF800
07FF8000
1FFC0000
FFF80000
FFF81000
FFF8F000
67FFF800
07FFF800
07FFE000
07FF8000
3FFC0000
FFF801F0
7FF801FC
7FF803F8
27F807F8
07F807F0
07F81FE0
07F83FE0
07FFFFC0
07FFFF80
07FFFF00
07FFFC00
07FFF000
07FF8000
ENDCHAR
STARTCHAR uni2113
ENCODING 8467
SWIDTH 570 0
DWIDTH 27 0
BBX 24 35 1 0
BITMAP
003FC0
00FFF0
01FFF8
03FFF8
03F8FC
07F07C
07F07C
0FE07C
0FE07C
0FE07C
0FE07C
0FE07C
0FE0F8
0FE1F8
0FE1F0
0FE3F0
0FE7E0
0FEFC0
0FFF80
0FFF00
0FFE00
0FFC00
0FF800
3FF000
7FE000
FFE000
7FE004
7FE006
6FF00F
07F83F
07FFFE
07FFFC
03FFFC
01FFF0
007FE0
ENDCHAR
STARTCHAR uni2116
ENCODING 8470
SWIDTH 1185 0
DWIDTH 57 0
BBX 51 35 4 0
BITMAP
FE0001FC00FE00
FF0001FC03FF00
FF0001FC07FF80
FF8001FC0F87C0
FFC001FC0F83C0
FFC001FC0F03E0
FFE001FC1F03E0
FFF001FC1F03E0
FFF001FC1F03E0
FFF801FC1F03E0
FFFC01FC0F03E0
FFFE01FC0F83C0
FEFE01FC07C7C0
FE7F01FC07FF80
FE7F81FC03FF00
FE3F81FC00FC00
FE1FC1FC000000
FE1FE1FC000000
FE0FE1FC000000
FE07F1FC000000
FE07F9FC000000
FE03F9FC000000
FE01FDFC000000
FE01FFFC000000
FE00FFFC000000
FE007FFC000000
FE007FFC000000
FE003FFC000000
FE001FFC000000
FE000FFC000000
FE000FFC000000
FE0007FC000000
FE0003FC000000
FE0003FC000000
FE0001FC000000
ENDCHAR
STARTCHAR uni2117
ENCODING 8471
SWIDTH 830 0
DWIDTH 40 0
BBX 36 35 2 0
BITMAP
0007FE0000
003FFF8000
00FFFFE000
01FFFFF800
03F801FC00
07E0007E00
0F80003F00
1F00001F00
3E1FF00F80
3C1FFF07C0
7C1FFF83C0
781FFFC3E0
781E07C1E0
F81E03C1E0
F01E03C1E0
F01E03C1E0
F01E07C1F0
F01FFFC1F0
F01FFF81F0
F01FFF01F0
F01E0001E0
F81E0001E0
781E0001E0
781E0003E0
7C1E0003C0
3C1E0007C0
3E1E000780
1F00000F80
0F80001F00
0FC0007E00
07F001FC00
03FFBFF800
00FFFFF000
003FFFC000
000FFF0000
ENDCHAR
ENDFONT
